<svg width="209" height="558" viewBox="0 0 209 558" fill="none" xmlns="http://www.w3.org/2000/svg">
<path d="M153.733 86.2487L156.927 87.1713C173.095 91.786 176.888 106.813 174.557 125.397C174.635 128.398 175.115 131.301 175.995 134.108C187.888 163.293 181.676 165.049 188.701 189.699C188.799 190 188.798 190.2 188.796 190.5C191.364 194.918 190.088 233.91 187.817 258.094C187.913 258.595 187.91 258.995 187.807 259.494C186.845 268.288 186.652 267.286 187.73 270.294C188.809 273.302 192.998 288.932 193.092 289.833C193.282 291.234 193.272 292.634 193.063 293.933C192.232 298.327 191.394 303.721 189.59 304.208C188.571 306.901 186.958 308.69 185.955 309.183C183.533 312.266 182.819 314.16 181.822 313.753C180.825 313.346 180.434 312.144 180.841 311.146C180.841 311.146 180.841 311.146 180.841 311.046C181.251 309.749 180.744 310.746 179.933 312.24C178.92 314.033 178.007 315.926 177.304 316.321C174.416 314.601 176.342 310.915 178.062 308.127C179.073 306.534 177.559 308.523 175.738 311.51C174.119 314.199 172.502 316.587 172.104 316.285C168.323 313.658 173.178 305.792 173.985 304.898C173.903 302.297 173.921 299.797 174.039 297.198C173.251 295.492 172.672 292.588 172.302 288.285C171.89 289.982 171.279 291.578 170.668 293.174C169.761 294.167 172.198 302.985 165.398 302.937C165.423 299.537 165.456 294.837 165.479 291.637C165.497 289.037 166.344 282.343 166.363 279.743C166.381 277.143 172.229 270.384 172.531 270.086C172.76 265.988 172.59 261.787 172.219 257.684C172.22 257.584 172.221 257.384 172.322 257.285C171.092 247.476 168.062 237.454 166.006 231.239C163.95 225.025 160.236 212.898 160.997 204.303C160.899 204.002 160.802 203.602 160.904 203.302C160.823 200.602 161.143 197.804 161.962 195.21C154.155 181.954 149.862 166.923 149.671 151.522C147.194 162.304 139.895 176.253 139.837 184.553C139.766 194.552 142.709 202.573 142.662 209.173C142.634 213.173 141.494 218.765 139.242 226.15C143.185 234.178 159.411 272.894 161.882 305.312C164.26 336.63 164.711 357.633 161.359 379.01C168.69 388.862 171.573 419.483 166.339 452.447C164.352 464.733 166.763 491.451 168.966 505.067C171.17 518.683 156.07 518.676 150.798 514.639C147.815 512.317 143.064 505.384 145.197 500.699C145.068 490.597 141.887 459.774 134.043 437.618C129.927 425.789 130.263 406.59 130.838 396.094C130.742 395.494 130.546 394.892 130.45 394.291C129.291 388.583 130.003 386.788 130.127 383.489C126.889 374.666 118.397 359.405 115.292 345.983C112.673 334.564 110.265 321.647 107.867 307.229L105.367 307.112C104.44 310.905 103.713 314.8 103.185 318.796C102.42 327.891 103.512 343.099 89.5201 384.301C89.479 390.101 91.274 390.814 90.5244 397.809C90.3095 399.907 89.9954 401.905 89.4805 404.001C92.3919 416.522 95.243 437.543 86.0086 456.478C79.9188 469.135 76.3927 486.911 78.424 496.625C80.992 501.144 79.7191 511.435 77.0007 514.016C72.0689 518.481 53.19 515.447 55.5898 501.364C57.9897 487.28 58.1406 465.981 54.259 449.253C50.7639 434.428 52.0893 416.737 55.3239 397.759C55.3288 397.059 55.3338 396.359 55.3395 395.559C55.3642 392.059 55.4869 388.86 55.7082 385.862C54.0606 378.45 51.9046 372.234 49.7712 348.719C48.6562 336.71 50.1271 326.721 49.9071 315.419C50.9671 278.725 57.778 234.873 61.1396 226.196L61.3396 226.198C60.8686 222.094 60.5984 217.892 60.5274 213.791C60.5636 208.692 63.7414 197.714 64.8137 187.521C65.6675 179.927 61.325 171.796 58.486 163.176C57.4095 173.968 52.0317 184.931 45.0688 193.781C52.532 227.235 39.5282 241.843 35.7405 268.317C36.2369 268.821 36.6334 269.324 37.0298 269.826C41.29 275.457 41.9376 282.862 39.1739 291.842C40.5526 294.852 41.5405 296.559 42.1363 297.163C43.8263 298.575 45.2327 297.685 45.7008 302.189C44.2043 301.678 42.5086 301.066 41.0129 300.455C44.2965 302.779 45.2802 305.086 44.1654 307.178L39.7832 304.647C40.8761 305.655 41.5669 306.96 41.7569 308.361C41.647 309.76 41.2378 311.057 40.5293 312.252L36.4712 306.323L31.1422 296.285L34.1791 305.207C36.2592 308.022 37.3415 310.53 37.5273 312.531C37.7131 314.532 37.0046 315.727 35.2032 315.915C31.6373 311.089 29.4587 308.074 28.6658 307.068C26.592 303.353 24.819 299.541 23.3474 295.53C22.6637 293.225 22.5034 287.624 22.8678 278.526C22.7806 276.726 22.7941 274.826 23.0068 273.027C24.7187 257.239 16.3875 233.379 18.9625 208.697C19.3965 203.9 20.5305 199.108 22.2623 194.62C22.6914 190.523 25.1296 185.14 24.9544 181.639C23.4116 145.327 31.9632 152.188 31.5858 134.884C31.2084 117.581 30.1899 106.074 36.8492 97.7208C41.9959 91.1571 53.6225 87.4394 60.7259 86.9897C62.1336 85.8997 63.74 85.011 65.3456 84.2224C70.0611 82.0557 74.9751 80.0905 79.8877 78.3253C85.8428 70.5673 84.7563 68.6595 84.8534 54.9599C84.9519 41.0602 119.907 47.508 119.865 53.4079C119.826 58.9078 117.038 71.3883 123.997 77.2378" fill="url(#paint0_linear_159_996)"/>
<path d="M178.852 295.532L179.891 304.139" stroke="#F29353" stroke-width="1.14" stroke-linecap="round"/>
<path d="M183.852 295.567L184.179 305.87L182.762 308.16" stroke="#F29353" stroke-width="1.14" stroke-linecap="round"/>
<path d="M189.673 292.608L189.402 302.607L187.471 306.993" stroke="#F29353" stroke-width="1.14" stroke-linecap="round"/>
<path d="M173.384 290.993L172.316 286.385L171.189 290.177" stroke="#F29353" stroke-width="1.14" stroke-linecap="round"/>
<path d="M173.555 266.793L172.427 270.686" stroke="#F29353" stroke-width="1.14" stroke-linecap="round"/>
<path d="M151.465 138.234C151.043 141.331 152.114 145.438 154.879 150.358" stroke="#EE8B48" stroke-width="1.14" stroke-linecap="round"/>
<path d="M167.533 185.249C165.513 188.034 163.991 191.124 163.068 194.417" stroke="#F29353" stroke-width="1.14" stroke-linecap="round"/>
<path d="M62.8746 390.612C61.4329 396.502 62.0995 401.207 64.774 404.826C67.4484 408.445 68.8037 414.755 68.64 423.754" stroke="#F08944" stroke-width="1.14" stroke-linecap="round"/>
<path d="M83.3786 390.158C84.9296 397.069 84.4942 402.066 81.9738 404.948" stroke="#F08944" stroke-width="1.14" stroke-linecap="round"/>
<path d="M63.2916 148.309C58.2137 145.173 55.9711 137.057 54.3719 136.946C52.7726 136.835 50.538 141.719 47.3154 144.896" stroke="#EE8B48" stroke-width="1.14" stroke-linecap="round"/>
<path d="M55.9359 142.057C55.9976 147.458 54.8601 152.75 52.7254 157.635" stroke="#EE8B48" stroke-width="1.14" stroke-linecap="round"/>
<path d="M57.0454 140.665C60.8865 148.992 67.7693 151.441 79.669 151.525C91.5687 151.61 100.578 150.373 101.344 140.979" stroke="#EE8B48" stroke-width="1.14" stroke-linecap="round"/>
<path d="M142.29 148.869C147.411 145.805 149.769 137.722 151.369 137.633C152.97 137.544 155.135 142.46 158.313 145.683" stroke="#EE8B48" stroke-width="1.14" stroke-linecap="round"/>
<path d="M148.643 141.314C144.684 149.586 137.768 151.937 125.868 151.853C113.968 151.768 104.978 150.405 104.344 141" stroke="#EE8B48" stroke-width="1.14" stroke-linecap="round"/>
<path d="M121.311 75.2185C121.691 78.0213 122.372 80.7262 123.353 83.4332" stroke="#F89451" stroke-width="1.14" stroke-linecap="round"/>
<path d="M82.6039 76.0444C82.4876 78.3436 82.0713 80.6408 81.4557 82.8365" stroke="#F89451" stroke-width="1.14" stroke-linecap="round"/>
<path d="M134.189 388.818C133.947 394.816 135.215 399.325 138.094 402.246C140.974 405.166 143.033 410.981 144.47 419.791" stroke="#F08944" stroke-width="1.14" stroke-linecap="round"/>
<path d="M154.582 389.962C155.431 397.068 154.497 401.862 151.678 404.542" stroke="#F08944" stroke-width="1.14" stroke-linecap="round"/>
<path fill-rule="evenodd" clip-rule="evenodd" d="M43.5873 543.98C44.7497 549.288 49.2241 552.92 56.0133 554.468C62.8025 556.016 75.0057 555.603 78.8233 553.13C82.6409 550.657 90.1038 541.809 79.704 527.635C82.6656 518.956 87.3115 512.489 79.484 502.233C75.9309 509.708 64.9574 505.93 56.8803 502.673C54.9853 501.959 50.8713 518.031 49.5168 525.721C44.8439 535.988 41.944 535.968 43.5873 543.98Z" fill="#C6C6C6"/>
<path fill-rule="evenodd" clip-rule="evenodd" d="M61.2943 500.704C64.4077 498.826 68.4062 499.054 71.2898 501.375C72.0855 501.981 73.3685 504.39 75.3727 503.804C78.479 502.926 78.2017 499.724 79.3094 498.632C80.4172 497.54 83.4583 505.861 80.6031 513.641C77.7479 521.421 83.5635 533.363 83.5635 533.363C83.5635 533.363 86.3592 548.083 75.956 548.509C72.9546 548.688 73.0688 546.689 64.4655 547.128C59.2635 547.391 60.3415 550.499 52.5615 547.643C44.7816 544.788 42.8277 538.274 44.351 534.985C45.9758 531.496 49.0182 525.518 50.7614 519.43C51.0322 509.432 52.8804 502.645 56.1058 499.067C56.1916 501.068 57.5831 502.278 58.283 502.283C60.4823 502.398 60.4901 501.298 61.2943 500.704Z" fill="black"/>
<path fill-rule="evenodd" clip-rule="evenodd" d="M57.4236 510.677L69.8914 515.265L59.8484 521.294L70.5156 525.97L58.5102 526.685L70.1531 520.667L59.5867 515.892L71.4303 509.776L57.4236 510.677Z" stroke="white" stroke-width="1.07" stroke-linecap="round" stroke-linejoin="round"/>
<path fill-rule="evenodd" clip-rule="evenodd" d="M181.384 544.956C180.346 550.349 175.92 554.018 169.208 555.67C162.496 557.323 150.197 557.235 146.314 554.808C142.43 552.48 134.792 543.726 144.994 529.398C141.855 520.775 137.099 514.441 144.674 503.995C148.421 511.422 159.25 507.398 167.274 503.955C169.18 503.169 173.567 519.2 175.113 526.811C180.04 537.046 182.941 536.967 181.384 544.956Z" fill="#C6C6C6"/>
<path fill-rule="evenodd" clip-rule="evenodd" d="M162.888 502.024C159.701 500.201 155.698 500.573 152.881 502.953C152.076 503.647 150.86 505.939 148.864 505.425C145.769 504.603 146.893 501.211 145.801 500.203C144.708 499.195 140.848 507.668 143.793 515.389C146.838 523.111 141.253 535.172 141.253 535.172C141.253 535.172 138.748 549.954 149.247 550.129C152.247 550.15 152.16 548.249 160.659 548.509C165.858 548.646 164.835 551.839 172.657 548.794C180.479 545.75 182.125 539.161 180.548 535.95C178.873 532.438 175.715 526.516 173.757 520.502C173.228 510.498 171.277 503.684 168.001 500.26C167.887 502.259 166.577 503.55 165.977 503.546C163.776 503.73 163.684 502.63 162.888 502.024Z" fill="black"/>
<path fill-rule="evenodd" clip-rule="evenodd" d="M166.917 511.953L154.583 516.765L164.642 522.637L154.107 527.562L166.203 528.048L154.345 522.164L164.88 517.238L152.921 511.354L166.917 511.953Z" stroke="white" stroke-width="1.07" stroke-linecap="round" stroke-linejoin="round"/>
<g opacity="0.42" filter="url(#filter0_f_159_996)">
<path fill-rule="evenodd" clip-rule="evenodd" d="M86.427 58.6712C86.6845 64.6731 87.8753 80.0819 94.1504 83.6265C100.425 87.171 107.826 87.1235 111.65 83.7505C115.474 80.3775 119.256 68.804 119.438 57.305C120.493 49.5123 83.8809 51.0529 86.427 58.6712Z" fill="#915D2E" fill-opacity="0.7"/>
</g>
<path fill-rule="evenodd" clip-rule="evenodd" d="M82.913 60.6462C83.2655 67.3489 91.2022 76.3053 94.483 79.0286C97.7638 81.752 106.357 82.8129 110.183 79.1399C114.009 75.4669 117.439 71.1911 118.257 68.6968C119.075 66.2026 121.613 60.7204 122.025 59.1233C124.59 64.0416 134.447 41.9109 125.836 43.4499C125.878 37.55 126.58 23.1547 118.625 16.6981C110.671 10.2416 100.279 9.06795 89.343 14.0906C78.4071 19.1132 76.3307 29.8988 78.7286 44.3162C80.725 44.8303 71.2401 42.6631 74.8706 52.489C77.3344 57.6066 77.3018 62.2065 82.913 60.6462Z" fill="#FFD4AB"/>
<path d="M101.187 78.5762L103.486 78.5925" stroke="#EA833E" stroke-width="1.14" stroke-linecap="round"/>
<path d="M127.011 46.9582C123.494 49.4333 121.68 51.3205 121.67 52.7205" stroke="#EA833E" stroke-width="1.14" stroke-linecap="round"/>
<path d="M124.387 50.3397L124.37 52.7396L121.643 56.5204" stroke="#EA833E" stroke-width="1.14" stroke-linecap="round"/>
<path d="M76.2012 48.1982C78.1969 48.8124 79.7855 50.4237 80.3713 52.4279" stroke="#EA833E" stroke-width="1.14" stroke-linecap="round"/>
<path d="M78.188 50.0125L78.6603 53.9159L81.144 56.2336" stroke="#EA833E" stroke-width="1.14" stroke-linecap="round"/>
<path opacity="0.75" fill-rule="evenodd" clip-rule="evenodd" d="M139.085 226.417C125.269 235.487 67.3263 233.95 60.8034 226.322C56.615 209.667 63.3387 199.644 63.9897 185.908C64.2968 179.427 59.9994 173.602 58.6736 163.934C57.4744 158.695 56.8877 154.257 56.9135 150.621C63.4329 143.723 66.7441 133.004 66.8471 118.465C66.996 97.4449 63.0348 92.2891 60.6813 86.7588C60.131 85.7523 62.9782 84.0949 66.1262 82.852C69.7566 81.4186 73.6158 79.3502 74.13 80.1678C74.1166 82.0576 81.5021 109.331 101.795 109.475C122.088 109.619 128.447 105.01 134.068 80.403C133.841 79.694 136.526 80.3073 141.018 81.5417C145.511 82.776 148.94 83.9463 148.04 84.5053C146.64 85.076 146.082 89.1752 142.562 115.164C139.043 141.154 146.276 141.357 150.309 146.136C150.397 150.045 149.799 154.578 148.513 159.733C141.939 174.603 139.632 186.528 141.593 195.507C144.535 208.976 144.907 220.903 139.085 226.417Z" fill="#FFFAF9"/>
<path opacity="0.85" fill-rule="evenodd" clip-rule="evenodd" d="M104.14 321.813L105.118 312.318L107.64 312.297L108.558 321.844C128.606 322.059 142.725 320.995 150.914 318.653C157.387 316.802 161.492 311.811 163.232 303.68C158.949 279.464 154.936 261.995 151.192 251.273C147.536 240.801 141.742 226.167 139.242 226.15C102.046 236.269 67.5459 229.844 61.1394 226.196C59.0987 226.042 58.1811 233.037 56.7904 239.116C54.6324 248.55 49.9038 289.632 49.138 306.166C49.0527 318.209 67.3867 323.424 104.14 321.813Z" fill="black"/>
<g filter="url(#filter1_d_159_996)">
<path d="M171.146 97C191.321 99.9407 204 104.197 204 108.932C204 117.806 159.452 125 104.5 125C49.5477 125 5 117.806 5 108.932C5 104.383 16.7011 100.276 35.5071 97.3533" stroke="#E95D5C" stroke-width="2" stroke-linecap="round"/>
</g>
<g filter="url(#filter2_d_159_996)">
<path d="M141.849 178C153.609 180.941 161 185.197 161 189.932C161 198.806 135.033 206 103 206C70.9675 206 45 198.806 45 189.932C45 185.383 51.8207 181.276 62.783 178.353" stroke="#E95D5C" stroke-width="2" stroke-linecap="round"/>
</g>
<g filter="url(#filter3_d_159_996)">
<path d="M155.401 263C170.506 265.941 180 270.197 180 274.932C180 283.806 146.645 291 105.5 291C64.3548 291 31 283.806 31 274.932C31 270.383 39.7611 266.276 53.842 263.353" stroke="#E95D5C" stroke-width="2" stroke-linecap="round"/>
</g>
<path d="M124 43.5C124.301 40.7785 125 38.9105 123.5 33C121.645 28.031 117.556 24.5852 117.892 18.5858C114.706 16.0908 107.832 20.8399 100.952 21.8063C94.0728 22.7727 80.4992 19.0895 81.4992 30.0895C82.9992 38.2952 80.8312 38.8484 81.4993 45.5L78.9995 44.5C76.9996 42 73.075 29.5078 75.553 16.0688C78.0309 2.6297 106.83 -10.5854 120.201 12.9035C133.406 9.00761 126.81 40.4864 126.5 43.5H124Z" fill="black"/>
<defs>
<filter id="filter0_f_159_996" x="82.3003" y="48.158" width="41.1597" height="42.1248" filterUnits="userSpaceOnUse" color-interpolation-filters="sRGB">
<feFlood flood-opacity="0" result="BackgroundImageFix"/>
<feBlend mode="normal" in="SourceGraphic" in2="BackgroundImageFix" result="shape"/>
<feGaussianBlur stdDeviation="2" result="effect1_foregroundBlur_159_996"/>
</filter>
<filter id="filter1_d_159_996" x="0" y="95.9998" width="209" height="38.0002" filterUnits="userSpaceOnUse" color-interpolation-filters="sRGB">
<feFlood flood-opacity="0" result="BackgroundImageFix"/>
<feColorMatrix in="SourceAlpha" type="matrix" values="0 0 0 0 0 0 0 0 0 0 0 0 0 0 0 0 0 0 127 0" result="hardAlpha"/>
<feOffset dy="4"/>
<feGaussianBlur stdDeviation="2"/>
<feComposite in2="hardAlpha" operator="out"/>
<feColorMatrix type="matrix" values="0 0 0 0 0.913725 0 0 0 0 0.364706 0 0 0 0 0.360784 0 0 0 0.37 0"/>
<feBlend mode="normal" in2="BackgroundImageFix" result="effect1_dropShadow_159_996"/>
<feBlend mode="normal" in="SourceGraphic" in2="effect1_dropShadow_159_996" result="shape"/>
</filter>
<filter id="filter2_d_159_996" x="40" y="177" width="126" height="38.0002" filterUnits="userSpaceOnUse" color-interpolation-filters="sRGB">
<feFlood flood-opacity="0" result="BackgroundImageFix"/>
<feColorMatrix in="SourceAlpha" type="matrix" values="0 0 0 0 0 0 0 0 0 0 0 0 0 0 0 0 0 0 127 0" result="hardAlpha"/>
<feOffset dy="4"/>
<feGaussianBlur stdDeviation="2"/>
<feComposite in2="hardAlpha" operator="out"/>
<feColorMatrix type="matrix" values="0 0 0 0 0.913725 0 0 0 0 0.364706 0 0 0 0 0.360784 0 0 0 0.37 0"/>
<feBlend mode="normal" in2="BackgroundImageFix" result="effect1_dropShadow_159_996"/>
<feBlend mode="normal" in="SourceGraphic" in2="effect1_dropShadow_159_996" result="shape"/>
</filter>
<filter id="filter3_d_159_996" x="26" y="262" width="159" height="38.0002" filterUnits="userSpaceOnUse" color-interpolation-filters="sRGB">
<feFlood flood-opacity="0" result="BackgroundImageFix"/>
<feColorMatrix in="SourceAlpha" type="matrix" values="0 0 0 0 0 0 0 0 0 0 0 0 0 0 0 0 0 0 127 0" result="hardAlpha"/>
<feOffset dy="4"/>
<feGaussianBlur stdDeviation="2"/>
<feComposite in2="hardAlpha" operator="out"/>
<feColorMatrix type="matrix" values="0 0 0 0 0.913725 0 0 0 0 0.364706 0 0 0 0 0.360784 0 0 0 0.37 0"/>
<feBlend mode="normal" in2="BackgroundImageFix" result="effect1_dropShadow_159_996"/>
<feBlend mode="normal" in="SourceGraphic" in2="effect1_dropShadow_159_996" result="shape"/>
</filter>
<linearGradient id="paint0_linear_159_996" x1="106.293" y1="-24.2557" x2="127.802" y2="642.349" gradientUnits="userSpaceOnUse">
<stop stop-color="#FFD6A7"/>
<stop offset="0.49" stop-color="#FFCFB0"/>
<stop offset="1" stop-color="#FFB783"/>
</linearGradient>
</defs>
</svg>
