<svg width="16" height="26" viewBox="0 0 16 26" fill="none" xmlns="http://www.w3.org/2000/svg">
<path d="M10.397 4.87429C11.7218 4.87429 12.7966 3.78265 12.7966 2.43714C12.7966 1.09164 11.7218 0 10.397 0C9.07222 0 7.9974 1.09164 7.9974 2.43714C7.9974 3.78265 9.07222 4.87429 10.397 4.87429ZM15.1212 12.4447V12.4447C14.3751 12.0609 13.8109 11.3977 13.5517 10.5998L13.4715 10.3528C12.7366 8.08827 10.6869 6.50413 8.36234 6.49905C6.56264 6.49397 5.56781 7.01186 3.69813 7.77855C2.61831 8.22028 1.73346 9.05805 1.21354 10.1243L0.878602 10.8148C0.488667 11.617 0.803614 12.5919 1.58848 12.993C2.36835 13.3941 3.31819 13.0692 3.71312 12.267L4.04807 11.5764C4.22304 11.221 4.51299 10.9418 4.87293 10.7945V10.7945C5.42998 10.5665 6.01024 11.0673 5.86615 11.6517L5.45283 13.3281C5.19287 14.3842 5.47283 15.5063 6.1977 16.3136L9.1922 19.6342C9.55214 20.0353 9.80709 20.5177 9.93707 21.0407L10.8519 24.7624C11.0669 25.6306 11.9367 26.1637 12.7916 25.9454C13.6464 25.7271 14.1714 24.8436 13.9564 23.9754L12.8466 19.4565C12.7166 18.9336 12.4616 18.4461 12.1017 18.0501L10.1448 15.8791C9.94609 15.6586 9.86963 15.3541 9.94065 15.066L10.4759 12.8946C10.5367 12.6478 10.8827 12.6348 10.9619 12.8762V12.8762C11.2269 13.6937 11.7968 14.369 12.5466 14.7549L13.7114 15.354C14.4913 15.7551 15.4411 15.4302 15.8361 14.6279C16.221 13.8308 15.9061 12.8458 15.1212 12.4447ZM3.67813 19.5885C3.51816 19.9998 3.2782 20.3705 2.96825 20.6802L0.468671 23.2239C-0.156224 23.8586 -0.156224 24.8893 0.468671 25.524C1.09357 26.1587 2.10339 26.1587 2.72829 25.524L5.69779 22.508C6.00274 22.1983 6.2427 21.8277 6.40767 21.4164L6.74771 20.5517C6.95286 20.03 5.97146 18.471 5.59582 18.055V18.055C4.81324 17.1882 4.14858 18.3998 3.71885 19.4857L3.67813 19.5885Z" fill="url(#paint0_linear_110_167)"/>
<defs>
<linearGradient id="paint0_linear_110_167" x1="0" y1="13" x2="16" y2="13" gradientUnits="userSpaceOnUse">
<stop stop-color="#673AB7"/>
<stop offset="1" stop-color="#512DA8"/>
</linearGradient>
</defs>
</svg>
