<svg width="30" height="30" viewBox="0 0 30 30" fill="none" xmlns="http://www.w3.org/2000/svg">
<path d="M21.2358 16.1719C21.2358 16.5406 20.9369 16.8409 20.5671 16.8409H16.4709C16.1364 16.8409 15.8542 16.5955 15.8113 16.2634L15.0871 11.0661L13.6253 24.439C13.5902 24.7539 13.335 25.0061 13.0139 25.0297C12.995 25.0309 12.9792 25.0328 12.9592 25.0328C12.6605 25.0328 12.3972 24.8366 12.3182 24.545L10.1393 16.7953L7.99349 20.8726C7.86481 21.1181 7.5955 21.2673 7.32189 21.2257C7.04519 21.1926 6.82029 20.9927 6.75177 20.7241L5.70725 16.5484H0.669208C0.301299 16.5487 0 16.2479 0 15.8797C0 15.5099 0.301299 15.2108 0.669208 15.2108H6.22843C6.53498 15.2108 6.80429 15.4197 6.87783 15.7176L7.62367 18.6988L9.73491 14.6905C9.86097 14.4463 10.1243 14.2995 10.3948 14.3353C10.6663 14.3642 10.8936 14.5561 10.9707 14.8185L12.6698 20.8633L14.3454 5.56203C14.3809 5.22754 14.6607 4.97351 15.0002 4.96826C15.3765 5.00025 15.625 5.21322 15.6718 5.54746L17.0542 15.503H20.5683C20.9369 15.5032 21.2358 15.8038 21.2358 16.1719ZM24.775 15.5032H22.6592C22.2916 15.5032 21.9903 15.804 21.9903 16.1722C21.9903 16.5408 22.2916 16.8412 22.6592 16.8412H24.775C25.142 16.8412 25.444 16.5408 25.444 16.1722C25.444 15.8038 25.142 15.5032 24.775 15.5032ZM29.331 15.5032H27.0794C26.7125 15.5032 26.4104 15.804 26.4104 16.1722C26.4104 16.5408 26.7125 16.8412 27.0794 16.8412H29.331C29.6977 16.8412 30 16.5408 30 16.1722C30 15.8038 29.6977 15.5032 29.331 15.5032Z" fill="#FF575F"/>
</svg>
