<svg width="22" height="26" viewBox="0 0 22 26" fill="none" xmlns="http://www.w3.org/2000/svg">
<path d="M15.4607 0.777835C15.9796 0.776616 16.3899 1.17975 16.3911 1.71726L16.3923 2.63346C19.7591 2.89733 21.9831 5.19152 21.9867 8.70975L22 19.0079C22.0048 22.8438 19.595 25.2039 15.7322 25.21L6.29675 25.2223C2.45813 25.2271 0.0181172 22.8108 0.0132903 18.964L8.10015e-06 8.78672C-0.00481071 5.24527 2.14076 2.95719 5.50755 2.64812L5.50634 1.73192C5.50514 1.19441 5.90336 0.790054 6.43432 0.790054C6.96529 0.788832 7.36351 1.19196 7.36471 1.72947L7.36592 2.5846L14.5339 2.57483L14.5327 1.7197C14.5315 1.18219 14.9297 0.779059 15.4607 0.777835ZM15.953 18.1235H15.941C15.3859 18.1369 14.9406 18.6024 14.9527 19.1643C14.9539 19.7262 15.4016 20.1892 15.9567 20.2014C16.5226 20.2002 16.9812 19.7348 16.98 19.1606C16.98 18.5865 16.5202 18.1235 15.953 18.1235ZM6.00955 18.1247C5.45445 18.1491 5.02003 18.6146 5.02123 19.1765C5.04658 19.7385 5.50514 20.1782 6.06023 20.1526C6.60447 20.1281 7.03769 19.6627 7.01235 19.1008C7.00028 18.551 6.55258 18.1235 6.00955 18.1247ZM10.9813 18.1186C10.4262 18.1443 9.99298 18.6085 9.99298 19.1704C10.0183 19.7323 10.4769 20.1709 11.032 20.1465C11.575 20.1208 12.0094 19.6566 11.9841 19.0934C11.972 18.5449 11.5243 18.1174 10.9813 18.1186ZM6.00352 13.7269C5.44842 13.7513 5.0152 14.2168 5.01641 14.7787C5.04054 15.3407 5.50031 15.7804 6.05541 15.7548C6.59844 15.7303 7.03166 15.2649 7.00631 14.703C6.99425 14.1532 6.54776 13.7257 6.00352 13.7269ZM10.9765 13.6841C10.4214 13.7086 9.98695 14.174 9.98815 14.736C10.0123 15.2979 10.4721 15.7365 11.0272 15.712C11.5702 15.6864 12.0034 15.2222 11.9793 14.6602C11.966 14.1105 11.5195 13.6829 10.9765 13.6841ZM15.9482 13.6903C15.3931 13.7025 14.9587 14.1545 14.9599 14.7164V14.7298C14.972 15.2918 15.4305 15.7181 15.9868 15.7059C16.5299 15.6925 16.9631 15.227 16.951 14.6651C16.9257 14.1276 16.49 13.689 15.9482 13.6903ZM14.5363 4.45611L7.36833 4.46588L7.36954 5.45416C7.36954 5.98068 6.97253 6.39602 6.44156 6.39602C5.9106 6.39725 5.51117 5.98312 5.51117 5.45661L5.50996 4.51597C3.15683 4.75174 1.85477 6.1346 1.85838 8.78427L1.85959 9.16419L20.1295 9.13976V8.7122C20.0777 6.08573 18.7599 4.70776 16.3947 4.50253L16.3959 5.44317C16.3959 5.96846 15.9868 6.38503 15.4679 6.38503C14.937 6.38625 14.5375 5.9709 14.5375 5.44561L14.5363 4.45611Z" fill="white"/>
</svg>
