<svg width="280" height="280" viewBox="0 0 280 280" fill="none" xmlns="http://www.w3.org/2000/svg">
<path d="M148.688 267.576L142.796 178.116H142.994L149.684 267.516L148.688 267.576ZM130.412 267.516L129.542 267.45L136.772 178.086H137.102L130.412 267.516ZM168.092 264.834L148.292 177.348L148.718 177.252L168.818 264.672L168.092 264.834ZM111.278 264.696L110.42 264.498L131 177.204L131.318 177.276L111.278 264.696ZM186.536 259.338L153.968 175.68L154.208 175.59L187.418 258.99L186.536 259.338ZM92.732 259.056L91.916 258.738L125.516 175.47L125.822 175.584L92.732 259.056ZM204.11 251.1L159.11 173.262L159.416 173.088L204.836 250.68L204.11 251.1ZM75.23 250.722L74.426 250.26L120.386 172.98L120.62 173.118L75.23 250.722ZM220.064 240.48L164.048 169.998L164.222 169.86L220.826 239.886L220.064 240.48ZM59.264 239.97L58.424 239.304L115.67 169.776L115.76 169.848L59.264 239.97ZM234.38 227.532L168.296 166.176L168.506 165.96L234.986 226.92L234.38 227.532ZM45.086 226.968L44.486 226.368L111.254 165.672L111.5 165.93L45.086 226.968ZM246.482 212.76L172.04 161.58L172.148 161.418L247.052 211.938C246.866 212.214 246.674 212.484 246.482 212.76ZM33.026 212.052C32.846 211.794 32.666 211.536 32.492 211.272L107.708 161.208L107.846 161.412L33.026 212.052ZM256.4 196.116L174.908 156.762L175.094 156.39L256.694 195.42L256.4 196.116ZM23.336 195.516L22.922 194.658L104.864 156.258L104.966 156.468L23.336 195.516ZM263.57 178.452L177.11 151.338L177.176 151.128L263.84 177.492C263.744 177.804 263.648 178.11 263.546 178.422L263.57 178.452ZM16.196 177.612L15.926 176.742L102.752 150.912L102.836 151.176L16.196 177.612ZM268.01 159.642L178.4 145.89L178.454 145.56L268.136 158.796L268.01 159.642ZM11.888 158.976C11.84 158.67 11.792 158.376 11.75 158.064L101.504 145.35L101.546 145.614L11.888 158.976ZM269.558 140.79L178.892 139.992V139.626H269.564V139.776C269.564 140.1 269.564 140.43 269.558 140.76V140.79ZM101.108 139.884H10.436V139.062L101.102 139.524L101.108 139.884ZM178.508 134.154V133.962L268.142 120.474C268.196 120.798 268.244 121.128 268.292 121.458L178.508 134.154ZM101.57 134.022L11.84 120.906C11.888 120.594 11.93 120.306 11.984 119.976L101.6 133.776L101.57 134.022ZM177.302 128.736L177.176 128.328L263.798 101.85L264.026 102.576L177.302 128.736ZM102.8 128.472L16.13 102.144L16.394 101.298L102.89 128.184L102.8 128.472ZM175.19 123.348L175.034 123.03L256.634 83.946L257 84.69L175.19 123.348ZM104.894 123.174L23.216 84.252L23.582 83.502L105.056 122.856L104.894 123.174ZM172.34 118.374L172.106 118.038L246.926 67.398L247.37 68.034L172.34 118.374ZM107.822 118.176L32.876 67.704C33.05 67.446 33.23 67.194 33.404 66.942L107.972 117.942L107.822 118.176ZM168.59 113.718L168.476 113.592L234.8 52.476L235.496 53.22L168.59 113.718ZM111.464 113.658L44.924 52.776C45.134 52.554 45.344 52.326 45.56 52.104L111.644 113.448L111.464 113.658ZM164.372 109.818L164.168 109.656L220.646 39.51L221.384 40.11L164.372 109.818ZM115.772 109.722L59.06 39.738L59.828 39.138L115.928 109.566L115.772 109.722ZM159.638 106.572L159.374 106.422L204.644 28.734L205.424 29.184L159.638 106.572ZM120.566 106.476L75.026 28.926L75.836 28.464L120.8 106.326L120.566 106.476ZM154.4 104.016L154.166 103.92L187.166 20.436L188.048 20.778L154.4 104.016ZM125.798 103.962L92.474 20.562C92.768 20.448 93.074 20.328 93.368 20.22L126.026 103.848L125.798 103.962ZM148.922 102.318L148.682 102.264L168.56 14.802L169.49 15.012L148.922 102.318ZM131.27 102.318L111.02 14.898L111.962 14.688L131.462 102.234L131.27 102.318ZM143.162 101.466H142.91L149.462 12.066C149.78 12.066 150.062 12.108 150.404 12.138L143.162 101.466ZM137.018 101.466L130.184 12.066L131.126 12L137.276 101.442L137.018 101.466Z" fill="#FFBA00"/>
<path d="M30.638 233.094H21.002V233.244H30.638V233.094Z" fill="#FFBA00"/>
<path d="M124.328 231.468H92.21V231.618H124.328V231.468Z" fill="#FFBA00"/>
<path d="M52.988 238.668H31.238V238.818H52.988V238.668Z" fill="#FFBA00"/>
<path d="M242.924 231.39H217.01V231.54H242.924V231.39Z" fill="#FFBA00"/>
<path d="M252.068 231.39H248.27V231.54H252.068V231.39Z" fill="#FFBA00"/>
<path d="M212.06 235.128H179.726V235.278H212.06V235.128Z" fill="#FFBA00"/>
<path d="M15.9319 120.9L45.7639 126.828L41.3779 120.072L57.8119 119.268L32.2279 115.05L36.4519 120.708L15.9319 120.9Z" fill="#FF5C5C"/>
<path d="M39.9861 91.962L53.6661 108.882L54.3501 103.158L63.7521 110.244L51.6261 96.21L51.3501 101.25L39.9861 91.962Z" fill="#FF5C5C"/>
<path d="M255.344 135.966L226.202 134.094L231.236 139.968L215.696 142.812L240.572 143.592L235.844 138.744L255.344 135.966Z" fill="#FF5C5C"/>
<path d="M241.364 169.302L227.588 154.242L227.276 159.636L218.072 153.54L230.228 165.99L230.192 161.25L241.364 169.302Z" fill="#FF5C5C"/>
<path d="M229.16 140.201C229.16 145.919 189.242 150.551 140 150.551C90.7581 150.551 50.8401 145.919 50.8401 140.201C50.8401 134.483 90.7581 129.857 140 129.857C189.242 129.857 229.16 134.489 229.16 140.201Z" fill="#F5F5F5"/>
<path d="M173.15 113.786L152 145.724L161.966 143.834L155.06 163.376L172.184 135.572L163.58 137.792L173.15 113.786Z" fill="#4CAF50"/>
<path opacity="0.8" d="M173.15 113.786L152 145.724L161.966 143.834L155.06 163.376L172.184 135.572L163.58 137.792L173.15 113.786Z" fill="white"/>
<path d="M130.166 123.344L135.182 153.44L139.964 146.93L146.552 162.068L141.434 136.568L137.624 142.532L130.166 123.344Z" fill="#4CAF50"/>
<path opacity="0.8" d="M130.166 123.344L135.182 153.44L139.964 146.93L146.552 162.068L141.434 136.568L137.624 142.532L130.166 123.344Z" fill="white"/>
<path d="M193.292 142.706L171.962 154.43L178.13 156.308L168.476 165.26L186.314 154.676L180.818 153.386L193.292 142.706Z" fill="#4CAF50"/>
<path opacity="0.8" d="M193.292 142.706L171.962 154.43L178.13 156.308L168.476 165.26L186.314 154.676L180.818 153.386L193.292 142.706Z" fill="white"/>
<path d="M233.048 116.32C234.797 120.24 235.412 124.572 234.823 128.823C234.234 133.075 232.466 137.077 229.718 140.374" stroke="#263238" stroke-linecap="round" stroke-linejoin="round"/>
<path d="M66.5901 141.01C62.0297 149.54 59.2932 158.926 58.5547 168.57C57.8162 178.215 59.0916 187.907 62.3001 197.032" stroke="#263238" stroke-linecap="round" stroke-linejoin="round"/>
<path d="M160.844 82.7142C161.236 84.16 161.325 85.6711 161.105 87.1528C160.885 88.6345 160.361 90.0547 159.566 91.3242" stroke="#263238" stroke-linecap="round" stroke-linejoin="round"/>
<path d="M55.4 157.96C54.0668 163.396 53.4158 168.977 53.462 174.574" stroke="#263238" stroke-linecap="round" stroke-linejoin="round"/>
<path d="M84.0439 189.226C84.0439 189.226 70.9459 208.078 75.5659 209.494C80.1859 210.91 94.9159 197.494 94.9159 197.494L84.0439 189.226Z" fill="#4CAF50"/>
<path opacity="0.3" d="M81.356 193.294C81.356 193.294 86.258 200.548 90.08 201.61L94.916 197.494L84.044 189.208L81.356 193.294Z" fill="black"/>
<path d="M173.3 201.694C173.3 201.694 180.2 223.606 175.4 223.606C170.6 223.606 160.49 206.398 160.49 206.398L173.3 201.694Z" fill="#4CAF50"/>
<path opacity="0.3" d="M174.65 206.422C174.65 206.422 167.81 211.888 163.85 211.768L160.46 206.368L173.3 201.688L174.65 206.422Z" fill="black"/>
<path d="M109.004 77.4403L105.71 78.8383L89.2939 40.2283C89.1115 39.7912 89.1087 39.2998 89.2861 38.8607C89.4636 38.4215 89.807 38.07 90.2419 37.8823C90.6797 37.698 91.1726 37.6943 91.6132 37.8718C92.0538 38.0494 92.4063 38.3939 92.5939 38.8303L109.004 77.4403Z" fill="#263238"/>
<path opacity="0.3" d="M109.004 77.4403L105.71 78.8383L89.2939 40.2283C89.1115 39.7912 89.1087 39.2998 89.2861 38.8607C89.4636 38.4215 89.807 38.07 90.2419 37.8823C90.6797 37.698 91.1726 37.6943 91.6132 37.8718C92.0538 38.0494 92.4063 38.3939 92.5939 38.8303L109.004 77.4403Z" fill="white"/>
<path d="M70.6461 84.8983C70.6461 84.8983 59.9841 58.3423 80.8821 47.5363C100.136 37.5823 104.168 37.4683 104.168 37.4683C104.168 37.4683 129.758 28.8943 137.888 54.6943L70.6461 84.8983Z" fill="#4CAF50"/>
<path opacity="0.3" d="M102.254 70.7083L102.782 71.9503L105.992 70.3603L105.518 69.2383L102.254 70.7083Z" fill="black"/>
<g opacity="0.3">
<path d="M90.2421 42.8864C81.6381 46.7024 77.3481 51.2864 74.7501 57.6824C72.1521 64.0784 74.4081 75.6824 76.8981 82.0904L87.6981 77.2364C87.6981 77.2364 78.3441 66.4363 81.3081 57.2023C83.0253 51.7506 86.0995 46.8245 90.2421 42.8864Z" fill="white"/>
</g>
<path d="M188.834 94.0724L186.236 91.6124L215.066 61.1324C215.393 60.791 215.841 60.5921 216.314 60.5786C216.787 60.5651 217.246 60.7382 217.592 61.0604C217.935 61.3878 218.135 61.8375 218.149 62.3116C218.162 62.7857 217.988 63.246 217.664 63.5924L188.834 94.0724Z" fill="#263238"/>
<path opacity="0.3" d="M188.834 94.0724L186.236 91.6124L215.066 61.1324C215.393 60.791 215.841 60.5921 216.314 60.5786C216.787 60.5651 217.246 60.7382 217.592 61.0604C217.935 61.3878 218.135 61.8375 218.149 62.3116C218.162 62.7857 217.988 63.246 217.664 63.5924L188.834 94.0724Z" fill="white"/>
<path d="M166.664 61.8943C166.664 61.8943 186.74 41.4943 204.998 56.3383C221.798 70.0123 223.544 73.6543 223.544 73.6543C223.544 73.6543 241.622 93.6943 221.228 111.454L166.664 61.8943Z" fill="#4CAF50"/>
<path opacity="0.3" d="M192.308 85.1924L191.384 86.1704L194.12 88.4864L194.96 87.5984L192.308 85.1924Z" fill="black"/>
<g opacity="0.3">
<path d="M213.008 63.0583C206.066 56.6983 200.138 54.6043 193.25 54.7723C186.362 54.9403 176.63 61.6543 171.74 66.5023L180.506 74.4943C180.506 74.4943 186.68 61.6003 196.31 60.6283C201.992 60.0125 207.737 60.8485 213.008 63.0583Z" fill="white"/>
</g>
<path d="M157.868 51.9703L146.786 50.2843L146.126 54.6163L149.072 55.0603L147.218 67.2823L152.408 68.0743L154.262 55.8523L157.208 56.2963L157.868 51.9703Z" fill="#263238"/>
<path opacity="0.3" d="M157.868 51.9703L146.786 50.2843L146.126 54.6163L149.072 55.0603L147.218 67.2823L152.408 68.0743L154.262 55.8523L157.208 56.2963L157.868 51.9703Z" fill="white"/>
<path opacity="0.3" d="M154.266 55.8437L149.076 55.0551L148.867 56.4253L154.058 57.214L154.266 55.8437Z" fill="black"/>
<path d="M189.513 191.959C218.304 163.169 218.304 116.491 189.513 87.7007C160.723 58.9105 114.045 58.9105 85.2548 87.7007C56.4646 116.491 56.4646 163.169 85.2548 191.959C114.045 220.75 160.723 220.75 189.513 191.959Z" fill="#FFBA00"/>
<path opacity="0.8" d="M183.648 186.082C209.101 160.628 209.101 119.36 183.648 93.906C158.194 68.4524 116.926 68.4524 91.4721 93.906C66.0185 119.36 66.0185 160.628 91.4721 186.082C116.926 211.535 158.194 211.535 183.648 186.082Z" fill="white"/>
<g opacity="0.3">
<path d="M89.2458 183.76C95.312 190.404 102.684 195.725 110.9 199.39C116.738 190.348 124.55 182.59 132.698 175.468C142.898 166.582 153.764 158.452 163.076 148.666C165.044 146.596 166.976 144.4 168.086 141.76C169.196 139.12 169.364 135.946 167.876 133.504C165.884 130.222 161.678 129.19 157.91 128.446L143.6 125.62C140.318 124.972 136.286 123.514 136.088 120.178C135.926 117.37 138.704 115.378 141.158 113.998C154.63 106.398 168.35 99.2703 182.318 92.6143C180.878 91.2463 179.378 89.9443 177.818 88.7083L170.888 83.9083C168.412 82.4265 165.843 81.1077 163.196 79.9603C150.728 89.3323 139.544 100.492 130.688 113.332C128.534 116.452 126.488 119.776 125.774 123.502C125.06 127.228 125.978 131.482 128.918 133.882C131.474 135.97 134.978 136.282 138.188 137.056C141.398 137.83 144.884 139.456 145.748 142.666C146.546 145.63 144.74 148.636 142.778 150.994C129.314 167.182 106.628 171.97 89.2458 183.76Z" fill="white"/>
</g>
<path opacity="0.3" d="M135.518 139.546L114.608 147.646L96.074 159.868L118.43 152.65L135.518 139.546Z" fill="black"/>
<path d="M138.494 138.694L113.516 145.822L94.988 158.044L117.344 150.826L138.494 138.694Z" fill="#263238"/>
<path opacity="0.3" d="M138.356 141.376L150.23 123.778L156.548 106.552L144.656 121.582L138.356 141.376Z" fill="black"/>
<path d="M137.36 140.014L149.228 122.416L155.552 105.19L143.654 120.22L137.36 140.014Z" fill="#263238"/>
<path d="M143.198 80.8303L141.998 88.6843L140.888 88.5163L141.932 81.6403L140.132 81.3703L140.282 80.3923L143.198 80.8303Z" fill="#263238"/>
<path d="M149.39 88.8103L149.24 89.7883L143.6 88.9303L143.72 88.1683L147.386 85.5643C148.34 84.8863 148.586 84.4123 148.646 83.9203C148.766 83.1163 148.268 82.5343 147.17 82.3663C146.796 82.2877 146.409 82.296 146.038 82.3907C145.668 82.4854 145.324 82.6638 145.034 82.9123L144.368 82.1383C144.789 81.7939 145.282 81.5474 145.81 81.4167C146.338 81.2859 146.889 81.2742 147.422 81.3823C149.06 81.6343 149.99 82.6363 149.786 83.9803C149.666 84.7423 149.342 85.3903 148.118 86.2543L145.364 88.1983L149.39 88.8103Z" fill="#263238"/>
<path d="M174.2 93.5863L173 101.44L171.89 101.272L172.934 94.3903L171.134 94.1263L171.284 93.1483L174.2 93.5863Z" fill="#263238"/>
<path d="M191.132 124.33L190.982 125.302L185.342 124.444L185.456 123.682L189.122 121.084C190.076 120.4 190.322 119.932 190.382 119.44C190.508 118.63 190.01 118.048 188.912 117.886C188.537 117.806 188.149 117.813 187.777 117.908C187.405 118.003 187.061 118.182 186.77 118.432L186.11 117.652C186.531 117.308 187.024 117.062 187.552 116.933C188.081 116.803 188.631 116.793 189.164 116.902C190.802 117.148 191.726 118.15 191.522 119.5C191.408 120.262 191.078 120.91 189.854 121.768L187.106 123.694L191.132 124.33Z" fill="#263238"/>
<path d="M193.358 149.494C193.16 150.82 192.02 151.75 190.022 151.444C188.975 151.315 188.007 150.822 187.286 150.052L187.934 149.242C188.509 149.901 189.305 150.327 190.172 150.442C191.372 150.616 192.11 150.184 192.236 149.332C192.362 148.48 191.852 147.868 190.502 147.664L189.902 147.568L190.016 146.782L192.362 144.664L188.582 144.064L188.732 143.086L193.91 143.872L193.796 144.64L191.36 146.86C192.884 147.262 193.544 148.294 193.358 149.494Z" fill="#263238"/>
<path d="M184.4 176.812L182.906 176.584L182.612 178.516L181.526 178.348L181.82 176.416L177.452 175.756L177.572 174.97L182.372 170.44L183.572 170.626L179 175L182 175.456L182.258 173.752L183.314 173.914L183.056 175.618L184.544 175.846L184.4 176.812Z" fill="#263238"/>
<path d="M160.67 191.938C160.466 193.3 159.338 194.242 157.328 193.936C156.281 193.802 155.312 193.311 154.586 192.544L155.24 191.734C155.809 192.395 156.601 192.822 157.466 192.934C158.666 193.114 159.416 192.67 159.542 191.812C159.668 190.954 159.2 190.294 157.382 190.012L155.582 189.742L156.62 185.698L161.054 186.37L160.904 187.348L157.412 186.814L156.872 188.938L157.748 189.07C160.112 189.436 160.886 190.552 160.67 191.938Z" fill="#263238"/>
<path d="M132.344 196.492C132.116 198.004 130.748 198.784 129.188 198.55C127.076 198.226 126.104 196.63 126.482 194.128C126.89 191.452 128.624 190.246 130.826 190.576C131.508 190.656 132.157 190.917 132.704 191.332L132.146 192.142C131.733 191.806 131.23 191.598 130.7 191.542C129.104 191.296 127.934 192.142 127.634 194.104C127.634 194.194 127.634 194.284 127.634 194.386C127.946 194.082 128.328 193.859 128.747 193.739C129.166 193.618 129.608 193.604 130.034 193.696C131.6 193.942 132.566 195.046 132.344 196.492ZM131.252 196.372C131.39 195.448 130.784 194.752 129.686 194.572C128.588 194.392 127.778 194.956 127.646 195.82C127.514 196.684 128.066 197.434 129.278 197.62C130.304 197.788 131.108 197.302 131.252 196.372Z" fill="#263238"/>
<path d="M108.56 178.396L108.44 179.158L104.192 185.758L102.992 185.578L107.144 179.176L103.544 178.63L103.334 180.034L102.254 179.866L102.614 177.466L108.56 178.396Z" fill="#263238"/>
<path d="M91.31 162.364C91.094 163.792 89.75 164.494 87.83 164.2C85.91 163.906 84.83 162.844 85.07 161.416C85.1287 160.993 85.3229 160.6 85.6236 160.296C85.9243 159.992 86.3152 159.794 86.738 159.73C86.4261 159.542 86.1789 159.263 86.0289 158.931C85.8789 158.599 85.8332 158.229 85.898 157.87C86.096 156.556 87.356 155.908 89.048 156.166C90.74 156.424 91.772 157.42 91.574 158.734C91.5278 159.097 91.3722 159.438 91.1278 159.71C90.8834 159.982 90.5618 160.173 90.206 160.258C90.5938 160.442 90.9114 160.746 91.1106 161.126C91.3098 161.506 91.3798 161.941 91.31 162.364ZM90.194 162.16C90.326 161.296 89.642 160.642 88.394 160.456C87.146 160.27 86.324 160.69 86.192 161.554C86.06 162.418 86.714 163.102 87.962 163.294C89.21 163.486 90.056 163.048 90.2 162.16H90.194ZM87.002 158.086C86.882 158.86 87.452 159.436 88.526 159.598C89.6 159.76 90.326 159.382 90.47 158.608C90.614 157.834 89.966 157.234 88.91 157.078C87.854 156.922 87.122 157.294 87.002 158.086Z" fill="#263238"/>
<path d="M87.5001 130.972C87.0921 133.654 85.3581 134.86 83.1621 134.524C82.4776 134.446 81.8267 134.185 81.2781 133.768L81.8361 132.958C82.2563 133.291 82.7615 133.499 83.2941 133.558C84.8901 133.798 86.0481 132.958 86.3481 130.99L86.3901 130.714C86.0769 131.017 85.6941 131.237 85.2756 131.356C84.857 131.476 84.4155 131.49 83.9901 131.398C82.4301 131.164 81.4521 130.06 81.6741 128.614C81.8961 127.168 83.2581 126.316 84.8181 126.556C86.9061 126.874 87.8781 128.494 87.5001 130.972ZM86.3481 129.268C86.4681 128.464 85.9281 127.654 84.7041 127.468C84.4916 127.41 84.2691 127.397 84.0513 127.43C83.8334 127.464 83.6251 127.543 83.4399 127.662C83.2547 127.782 83.0968 127.939 82.9766 128.124C82.8563 128.309 82.7764 128.517 82.7421 128.734C82.6041 129.652 83.1981 130.354 84.2961 130.534C85.3941 130.714 86.2161 130.132 86.3481 129.268Z" fill="#263238"/>
<path d="M94.0881 102.544L92.8881 110.398L91.7781 110.23L92.8281 103.348L91.0281 103.078L91.1781 102.106L94.0881 102.544Z" fill="#263238"/>
<path d="M95.2101 106.732C95.6001 104.17 97.1901 102.922 99.0321 103.204C100.874 103.486 102.032 105.148 101.618 107.704C101.204 110.26 99.6381 111.514 97.8081 111.232C95.9781 110.95 94.8201 109.294 95.2101 106.732ZM100.496 107.536C100.802 105.526 100.1 104.386 98.8761 104.2C97.6521 104.014 96.6381 104.89 96.3321 106.9C96.0261 108.91 96.7281 110.05 97.9641 110.236C99.2001 110.422 100.19 109.54 100.496 107.536Z" fill="#263238"/>
<path d="M116.468 84.8084L115.268 92.6624L114.158 92.4944L115.208 85.6184L113.408 85.3484L113.558 84.3704L116.468 84.8084Z" fill="#263238"/>
<path d="M120.62 85.4384L119.42 93.2924L118.304 93.1244L119.354 86.2484L117.554 85.9784L117.704 85.0004L120.62 85.4384Z" fill="#263238"/>
<path d="M97.9579 112.048C108.008 118.648 117.914 125.482 127.904 132.184C131.06 134.304 134.226 136.406 137.402 138.49C138.374 139.132 139.274 137.572 138.308 136.936C128.258 130.336 118.352 123.502 108.368 116.8C105.212 114.68 102.046 112.576 98.8699 110.488C97.8979 109.852 96.9979 111.412 97.9579 112.048Z" fill="#D7504D"/>
<path d="M169.454 182.686C169.42 182.888 169.327 183.075 169.187 183.224C169.047 183.373 168.866 183.477 168.667 183.524C168.468 183.57 168.26 183.557 168.068 183.486C167.876 183.414 167.71 183.288 167.59 183.122C167.47 182.957 167.402 182.759 167.393 182.555C167.385 182.351 167.437 182.149 167.543 181.974C167.65 181.799 167.805 181.66 167.99 181.573C168.175 181.486 168.382 181.456 168.584 181.486C168.721 181.507 168.852 181.554 168.97 181.626C169.087 181.698 169.19 181.792 169.271 181.904C169.352 182.015 169.41 182.142 169.441 182.277C169.473 182.411 169.477 182.55 169.454 182.686Z" fill="#263238"/>
<path d="M143.522 193.516C143.487 193.716 143.394 193.901 143.254 194.048C143.115 194.195 142.935 194.298 142.738 194.343C142.54 194.389 142.334 194.375 142.144 194.304C141.954 194.233 141.789 194.108 141.67 193.944C141.551 193.78 141.483 193.584 141.475 193.381C141.466 193.179 141.517 192.978 141.622 192.805C141.727 192.631 141.88 192.492 142.064 192.405C142.247 192.319 142.451 192.288 142.652 192.316C142.789 192.336 142.92 192.383 143.039 192.454C143.157 192.526 143.26 192.62 143.341 192.732C143.422 192.844 143.48 192.971 143.511 193.106C143.542 193.241 143.546 193.38 143.522 193.516Z" fill="#263238"/>
<path d="M186.086 161.614C186.068 161.751 186.023 161.883 185.953 162.002C185.884 162.122 185.791 162.226 185.68 162.309C185.57 162.392 185.444 162.452 185.31 162.485C185.177 162.519 185.037 162.526 184.901 162.505C184.764 162.484 184.633 162.437 184.515 162.365C184.398 162.293 184.295 162.198 184.215 162.086C184.134 161.974 184.076 161.847 184.045 161.712C184.014 161.578 184.01 161.438 184.034 161.302C184.08 161.035 184.229 160.796 184.45 160.637C184.67 160.478 184.944 160.412 185.213 160.453C185.481 160.494 185.723 160.638 185.887 160.855C186.05 161.072 186.121 161.345 186.086 161.614Z" fill="#263238"/>
<path d="M188.991 133.216C189.476 132.91 189.621 132.269 189.315 131.784C189.009 131.3 188.368 131.155 187.883 131.461C187.398 131.766 187.253 132.407 187.559 132.892C187.865 133.377 188.506 133.522 188.991 133.216Z" fill="#263238"/>
<path d="M180.032 106.156C179.997 106.356 179.904 106.541 179.764 106.688C179.625 106.835 179.445 106.938 179.247 106.984C179.05 107.029 178.843 107.015 178.653 106.944C178.464 106.873 178.299 106.748 178.18 106.584C178.061 106.42 177.993 106.224 177.984 106.021C177.976 105.819 178.027 105.618 178.132 105.445C178.237 105.271 178.39 105.132 178.573 105.045C178.756 104.959 178.961 104.928 179.162 104.956C179.299 104.976 179.43 105.023 179.549 105.094C179.667 105.166 179.77 105.26 179.851 105.372C179.932 105.484 179.99 105.611 180.021 105.746C180.052 105.881 180.056 106.02 180.032 106.156Z" fill="#263238"/>
<path d="M160.4 90.0044C160.366 90.2059 160.273 90.3929 160.133 90.5419C159.993 90.6908 159.812 90.7951 159.613 90.8417C159.414 90.8882 159.206 90.875 159.014 90.8036C158.822 90.7321 158.656 90.6058 158.536 90.4402C158.416 90.2747 158.348 90.0775 158.339 89.8732C158.331 89.6689 158.383 89.4668 158.49 89.292C158.596 89.1173 158.751 88.9778 158.936 88.8911C159.121 88.8043 159.328 88.7742 159.53 88.8044C159.667 88.8248 159.798 88.8722 159.916 88.9438C160.034 89.0155 160.136 89.11 160.217 89.2217C160.298 89.3334 160.356 89.4602 160.387 89.5946C160.419 89.729 160.423 89.8683 160.4 90.0044Z" fill="#263238"/>
<path d="M92.288 170.962C92.2578 171.164 92.288 171.371 92.3747 171.556C92.4615 171.741 92.601 171.897 92.7757 172.003C92.9504 172.109 93.1526 172.161 93.3568 172.153C93.5611 172.145 93.7584 172.076 93.9239 171.956C94.0894 171.836 94.2158 171.67 94.2872 171.478C94.3586 171.287 94.3719 171.078 94.3253 170.879C94.2788 170.68 94.1745 170.499 94.0255 170.359C93.8766 170.219 93.6896 170.126 93.488 170.092C93.352 170.07 93.213 170.075 93.0789 170.107C92.9448 170.139 92.8184 170.197 92.7068 170.277C92.5953 170.358 92.5008 170.46 92.429 170.578C92.3571 170.696 92.3092 170.826 92.288 170.962Z" fill="#263238"/>
<path d="M113.828 188.998C113.798 189.201 113.828 189.407 113.915 189.592C114.002 189.777 114.141 189.933 114.316 190.039C114.49 190.145 114.693 190.197 114.897 190.189C115.101 190.181 115.298 190.112 115.464 189.992C115.629 189.872 115.756 189.706 115.827 189.514C115.899 189.323 115.912 189.114 115.865 188.915C115.819 188.716 115.715 188.535 115.566 188.395C115.417 188.255 115.23 188.163 115.028 188.128C114.892 188.105 114.753 188.11 114.618 188.141C114.484 188.172 114.357 188.23 114.245 188.311C114.134 188.392 114.039 188.495 113.968 188.613C113.896 188.731 113.848 188.862 113.828 188.998Z" fill="#263238"/>
<path d="M82.6639 145.894C82.6325 146.097 82.6616 146.304 82.7475 146.489C82.8334 146.675 82.9723 146.831 83.1467 146.938C83.3211 147.045 83.5233 147.098 83.7278 147.091C83.9323 147.083 84.13 147.016 84.2961 146.896C84.4622 146.776 84.5892 146.61 84.6612 146.419C84.7332 146.227 84.747 146.019 84.7008 145.819C84.6546 145.62 84.5505 145.439 84.4016 145.298C84.2527 145.158 84.0656 145.065 83.8639 145.03C83.7283 145.007 83.5894 145.011 83.4553 145.042C83.3213 145.073 83.1948 145.131 83.0831 145.211C82.9714 145.292 82.8769 145.393 82.8049 145.511C82.7329 145.628 82.685 145.758 82.6639 145.894Z" fill="#263238"/>
<path d="M89.7239 118.094C90.1896 117.76 90.296 117.111 89.9616 116.645C89.6273 116.18 88.9787 116.073 88.5131 116.408C88.0474 116.742 87.941 117.391 88.2753 117.856C88.6097 118.322 89.2583 118.428 89.7239 118.094Z" fill="#263238"/>
<path d="M104.924 94.7383C104.895 94.939 104.926 95.1437 105.013 95.3269C105.1 95.5101 105.239 95.6636 105.412 95.7684C105.586 95.8731 105.787 95.9244 105.989 95.9159C106.192 95.9073 106.387 95.8393 106.551 95.7203C106.715 95.6013 106.841 95.4366 106.912 95.2468C106.983 95.0569 106.997 94.8503 106.951 94.6528C106.906 94.4552 106.803 94.2755 106.656 94.136C106.509 93.9965 106.324 93.9034 106.124 93.8683C105.988 93.8444 105.848 93.8481 105.714 93.8792C105.579 93.9103 105.452 93.9681 105.34 94.0493C105.228 94.1304 105.133 94.2332 105.062 94.3516C104.991 94.47 104.944 94.6015 104.924 94.7383Z" fill="#263238"/>
<path d="M128.486 85.1563C128.457 85.357 128.488 85.5617 128.575 85.7449C128.662 85.9281 128.801 86.0816 128.974 86.1864C129.148 86.2911 129.349 86.3424 129.551 86.3338C129.754 86.3253 129.949 86.2573 130.113 86.1383C130.277 86.0193 130.403 85.8546 130.474 85.6647C130.545 85.4749 130.559 85.2683 130.513 85.0707C130.468 84.8732 130.365 84.6935 130.218 84.554C130.071 84.4145 129.886 84.3214 129.686 84.2863C129.55 84.2633 129.411 84.2676 129.276 84.299C129.142 84.3304 129.015 84.3883 128.903 84.4693C128.792 84.5504 128.697 84.6528 128.626 84.7708C128.554 84.8888 128.506 85.0198 128.486 85.1563Z" fill="#263238"/>
<path d="M141.842 138.094C141.91 138.904 141.737 139.716 141.344 140.427C140.951 141.138 140.356 141.717 139.634 142.09C138.912 142.464 138.096 142.614 137.288 142.524C136.48 142.433 135.718 142.105 135.097 141.581C134.475 141.057 134.023 140.361 133.798 139.58C133.572 138.799 133.583 137.969 133.829 137.195C134.076 136.42 134.546 135.736 135.181 135.229C135.815 134.721 136.586 134.414 137.396 134.344C137.934 134.297 138.477 134.357 138.992 134.521C139.507 134.684 139.985 134.947 140.398 135.296C140.811 135.644 141.151 136.071 141.399 136.551C141.647 137.031 141.797 137.556 141.842 138.094Z" fill="#263238"/>
<g opacity="0.3">
<path d="M75.356 159.85C72.76 161.094 70.176 162.356 67.604 163.636C70.8107 172.992 75.8578 181.612 82.448 188.986C85.376 188.014 88.34 187.002 91.34 185.95C84.0207 178.639 78.5424 169.693 75.356 159.85Z" fill="white"/>
</g>
<g opacity="0.3">
<path d="M151.898 76.2944C160.123 78.1701 167.903 81.635 174.8 86.4944C175.286 83.6804 176.768 81.1484 178.784 78.8564C172.14 74.3354 164.795 70.9418 157.046 68.8124C154.852 70.9414 153.102 73.4845 151.898 76.2944Z" fill="white"/>
</g>
<g opacity="0.3">
<path d="M102.716 195.028C100.259 193.487 97.91 191.781 95.6838 189.922C93.0052 191.279 90.4195 192.813 87.9438 194.512C89.9016 196.289 91.9546 197.957 94.0938 199.51C96.8778 197.884 99.7638 196.402 102.716 195.028Z" fill="white"/>
</g>
<g opacity="0.3">
<path d="M198.146 116.212C199.67 112.834 201.272 109.504 203.03 106.27C201.169 102.642 199.014 99.1726 196.586 95.8964C195.326 99.0824 194.054 102.256 192.734 105.412C194.865 108.839 196.677 112.454 198.146 116.212Z" fill="white"/>
</g>
<g opacity="0.3">
<path d="M137.522 203.854C128.295 203.857 119.177 201.868 110.79 198.023C102.402 194.178 94.9433 188.569 88.9225 181.577C82.9016 174.586 78.4607 166.377 75.9029 157.512C73.3452 148.647 72.7309 139.335 74.1021 130.21C75.9472 118.112 81.2227 106.796 89.3033 97.6045C97.3839 88.4129 107.931 81.7312 119.693 78.3513C131.456 74.9715 143.941 75.0353 155.668 78.5352C167.395 82.0352 177.873 88.8244 185.859 98.098C193.846 107.372 199.005 118.741 200.726 130.858C202.448 142.974 200.659 155.331 195.571 166.462C190.484 177.593 182.311 187.031 172.022 193.659C161.734 200.286 149.76 203.825 137.522 203.854ZM137.252 77.0024C125.236 77.0264 113.479 80.4961 103.376 86.9999C93.2722 93.5036 85.2459 102.769 80.2486 113.696C75.2513 124.623 73.4928 136.755 75.1815 148.651C76.8703 160.548 81.9355 171.711 89.7765 180.816C97.6175 189.92 107.905 196.586 119.42 200.021C130.934 203.456 143.192 203.516 154.74 200.195C166.288 196.875 176.641 190.311 184.572 181.285C192.502 172.258 197.678 161.146 199.484 149.266C200.725 141.111 200.347 132.791 198.372 124.782C196.397 116.773 192.863 109.231 187.973 102.588C183.082 95.9447 176.931 90.33 169.87 86.0645C162.81 81.7991 154.978 78.9664 146.822 77.7284C143.655 77.246 140.456 77.0033 137.252 77.0024Z" fill="black"/>
</g>
</svg>
