<svg width="280" height="280" viewBox="0 0 280 280" fill="none" xmlns="http://www.w3.org/2000/svg">
<g clip-path="url(#clip0_304_3157)">
<path d="M61.3347 19.5485C61.7583 23.2857 61.7583 27.0588 61.3347 30.796C60.9142 27.0586 60.9142 23.2859 61.3347 19.5485Z" fill="#EBEBEB"/>
<path d="M31.8223 8.30697C58.4799 7.89563 88.1214 7.90791 114.804 8.30697C88.1152 8.6999 58.4861 8.71218 31.8223 8.30697Z" fill="#EBEBEB"/>
<path d="M22.4226 19.5484C49.8968 19.1432 80.4346 19.1494 107.921 19.5484C80.4285 19.9475 49.903 19.9536 22.4226 19.5484Z" fill="#EBEBEB"/>
<path d="M40.4115 8.30701C40.832 12.0423 40.832 15.8131 40.4115 19.5484C39.9878 15.8133 39.9878 12.0422 40.4115 8.30701Z" fill="#EBEBEB"/>
<path d="M82.2889 8.30701C82.7094 12.0423 82.7094 15.8131 82.2889 19.5484C81.8653 15.8133 81.8653 12.0422 82.2889 8.30701Z" fill="#EBEBEB"/>
<path d="M113.262 217.074C139.926 216.663 169.568 216.675 196.25 217.074C169.562 217.473 139.932 217.479 113.262 217.074Z" fill="#EBEBEB"/>
<path d="M93.3706 228.316C120.839 227.91 151.376 227.923 178.869 228.316C151.37 228.715 120.845 228.727 93.3706 228.316Z" fill="#EBEBEB"/>
<path d="M192.922 147.305C210.058 146.9 229.023 146.9 246.158 147.305C229.016 147.71 210.058 147.71 192.922 147.305Z" fill="#EBEBEB"/>
<path d="M212.243 158.473C229.225 158.068 248.012 158.068 265 158.473C248.012 158.878 229.225 158.878 212.243 158.473Z" fill="#EBEBEB"/>
<path d="M134.714 217.074C135.137 220.809 135.137 224.58 134.714 228.316C134.293 224.58 134.293 220.81 134.714 217.074Z" fill="#EBEBEB"/>
<path d="M176.585 217.074C177.009 220.809 177.009 224.58 176.585 228.316C176.165 224.58 176.165 220.81 176.585 217.074Z" fill="#EBEBEB"/>
<path d="M218.463 158.473C218.883 162.208 218.883 165.979 218.463 169.714C218.036 165.979 218.036 162.208 218.463 158.473Z" fill="#EBEBEB"/>
<path d="M260.334 158.473C260.755 162.208 260.755 165.979 260.334 169.714C259.91 165.979 259.91 162.208 260.334 158.473Z" fill="#EBEBEB"/>
<path d="M113.772 228.273C114.193 232.008 114.193 235.779 113.772 239.514C113.348 235.779 113.348 232.008 113.772 228.273Z" fill="#EBEBEB"/>
<path d="M155.711 228.273C156.131 232.008 156.131 235.779 155.711 239.514C155.29 235.779 155.29 232.008 155.711 228.273Z" fill="#EBEBEB"/>
<path d="M239.589 146.992C240.012 150.729 240.012 154.502 239.589 158.239C239.168 154.502 239.168 150.729 239.589 146.992Z" fill="#EBEBEB"/>
<path d="M56.8836 169.641C46.9192 170.052 36.8811 170.052 26.9167 169.641C36.8811 169.229 46.9192 169.229 56.8836 169.641Z" fill="#EBEBEB"/>
<path d="M68.2355 158.473C51.1002 158.878 32.1415 158.878 15 158.473C32.1415 158.068 51.1002 158.068 68.2355 158.473Z" fill="#EBEBEB"/>
<path d="M19.666 158.473C19.2455 154.735 19.2455 150.963 19.666 147.225C20.0896 150.962 20.0896 154.736 19.666 158.473Z" fill="#EBEBEB"/>
<path d="M61.3347 158.473C60.9142 154.735 60.9142 150.963 61.3347 147.225C61.7583 150.962 61.7583 154.736 61.3347 158.473Z" fill="#EBEBEB"/>
<path d="M40.4115 169.954C39.9878 166.216 39.9878 162.443 40.4115 158.706C40.832 162.443 40.832 166.216 40.4115 169.954Z" fill="#EBEBEB"/>
<path d="M116.799 68.0381C144.267 67.6329 174.811 67.639 202.297 68.0381C174.805 68.4371 144.273 68.4494 116.799 68.0381Z" fill="#EBEBEB"/>
<path d="M146.397 79.2856C164.859 78.8743 185.389 78.8865 203.857 79.2856C185.383 79.6847 164.865 79.6908 146.397 79.2856Z" fill="#EBEBEB"/>
<path d="M176.641 56.7966C177.061 60.532 177.061 64.3027 176.641 68.038C176.214 64.3031 176.214 60.5316 176.641 56.7966Z" fill="#EBEBEB"/>
<path d="M155.711 68.0381C156.131 71.7755 156.131 75.5482 155.711 79.2856C155.29 75.5482 155.29 71.7755 155.711 68.0381Z" fill="#EBEBEB"/>
<path d="M197.564 68.0381C197.988 71.7753 197.988 75.5484 197.564 79.2856C197.143 75.5482 197.143 71.7755 197.564 68.0381Z" fill="#EBEBEB"/>
<path d="M103.881 111.831C115.712 111.414 127.623 111.414 139.447 111.831C127.617 112.242 115.712 112.242 103.881 111.831Z" fill="#EBEBEB"/>
<path d="M95.5623 123.072C114.024 122.667 134.554 122.673 153.028 123.072C134.548 123.472 114.03 123.484 95.5623 123.072Z" fill="#EBEBEB"/>
<path d="M113.791 100.583C114.211 104.321 114.211 108.094 113.791 111.831C113.367 108.094 113.367 104.321 113.791 100.583Z" fill="#EBEBEB"/>
<path d="M134.714 111.831C135.137 115.566 135.137 119.337 134.714 123.072C134.293 119.337 134.293 115.566 134.714 111.831Z" fill="#EBEBEB"/>
<path d="M146.776 219.418L145.234 219.723L155.006 269.122L156.548 268.817L146.776 219.418Z" fill="#EBEBEB"/>
<path d="M159.017 219.036L147.225 270.193L148.763 270.547L160.554 219.39L159.017 219.036Z" fill="#EBEBEB"/>
<path d="M164.681 219.98L149.308 270.107L150.811 270.568L166.184 220.441L164.681 219.98Z" fill="#EBEBEB"/>
<path d="M147.717 221.048L146.218 221.522L161.284 269.217L162.783 268.744L147.717 221.048Z" fill="#EBEBEB"/>
<path d="M155.842 218.827L154.265 218.863L155.423 269.513L157.001 269.477L155.842 218.827Z" fill="#EBEBEB"/>
<path d="M163.686 270.764H145.998L149.504 248.594H160.181L163.686 270.764Z" fill="#A6A6A6"/>
<path d="M20.5378 270.77C97.0727 270.389 182.927 270.389 259.462 270.77C182.927 271.145 97.0727 271.145 20.5378 270.77Z" fill="#263238"/>
<path d="M140 201.013C189.708 201.013 230.005 160.717 230.005 111.008C230.005 61.3 189.708 21.0034 140 21.0034C90.2917 21.0034 49.9951 61.3 49.9951 111.008C49.9951 160.717 90.2917 201.013 140 201.013Z" fill="url(#paint0_linear_304_3157)"/>
<path opacity="0.1" d="M139.916 194.998C186.669 193.553 223.398 154.481 221.954 107.728C220.509 60.9749 181.437 24.2453 134.684 25.69C87.9308 27.1348 51.2012 66.2068 52.646 112.96C54.0908 159.713 93.1628 196.442 139.916 194.998Z" fill="black"/>
<path d="M219.271 115.38C221.68 71.6035 188.146 34.1629 144.37 31.7538C100.593 29.3446 63.1529 62.8792 60.7437 106.655C58.3346 150.431 91.8691 187.872 135.645 190.281C179.421 192.69 216.862 159.156 219.271 115.38Z" fill="white"/>
<g opacity="0.5">
<path opacity="0.5" d="M217.585 94.1677C181.435 116.067 122.024 151.995 88.8212 171.716C79.433 163.8 72.0083 153.816 67.1304 142.547L176.947 40.7418C187.208 46.1436 196.163 53.7251 203.183 62.9544C210.203 72.1837 215.118 82.8372 217.585 94.1677Z" fill="#EBEBEB"/>
<path opacity="0.5" d="M219.126 117.363C218.424 126.413 216.164 135.273 212.446 143.554L119.242 187.635C114.619 186.39 110.12 184.721 105.803 182.65C134.959 165.779 186.869 135.91 219.126 117.363Z" fill="#EBEBEB"/>
</g>
<path d="M141.154 53.6225L143.77 116.515L136.237 116.423L139.11 53.5979L141.154 53.6225Z" fill="#FF5C5C"/>
<path d="M96.1579 110.456L145.108 107.22L144.991 114.753L96.1272 112.5L96.1579 110.456Z" fill="#455A64"/>
<path d="M142.572 111.014C142.572 111.523 142.422 112.021 142.139 112.444C141.856 112.867 141.454 113.196 140.984 113.391C140.514 113.586 139.997 113.637 139.498 113.537C138.999 113.438 138.541 113.193 138.181 112.833C137.821 112.474 137.576 112.015 137.477 111.516C137.378 111.017 137.429 110.5 137.623 110.03C137.818 109.56 138.148 109.158 138.571 108.876C138.994 108.593 139.491 108.442 140 108.442C140.682 108.442 141.337 108.713 141.819 109.195C142.301 109.678 142.572 110.332 142.572 111.014Z" fill="#C7C7C7"/>
<path d="M137.71 38.9184V46.1262C137.708 46.3058 137.636 46.4776 137.508 46.6041C137.381 46.7306 137.208 46.8015 137.029 46.8015C136.939 46.8032 136.851 46.7868 136.768 46.7535C136.686 46.7201 136.61 46.6705 136.547 46.6074C136.484 46.5444 136.435 46.4692 136.401 46.3866C136.368 46.3039 136.352 46.2153 136.353 46.1262V40.1156L135.862 40.398C135.762 40.463 135.644 40.4971 135.524 40.4962C135.378 40.4925 135.236 40.4419 135.12 40.3517C135.004 40.2615 134.92 40.1366 134.88 39.9952C134.84 39.8538 134.847 39.7034 134.899 39.5659C134.95 39.4285 135.045 39.3113 135.168 39.2315L136.673 38.3413C136.673 38.3413 136.709 38.3413 136.722 38.3413C136.734 38.3413 136.758 38.3413 136.783 38.3044H136.857C136.873 38.2988 136.89 38.2988 136.906 38.3044C136.934 38.2985 136.963 38.2985 136.992 38.3044H137.121C137.137 38.3101 137.154 38.3101 137.17 38.3044C137.194 38.2973 137.219 38.2973 137.244 38.3044C137.259 38.2988 137.277 38.2988 137.293 38.3044C137.329 38.3044 137.342 38.3413 137.366 38.3413C137.38 38.3564 137.397 38.3689 137.415 38.3781L137.465 38.415C137.465 38.415 137.501 38.4518 137.514 38.4641C137.525 38.4711 137.535 38.4793 137.544 38.4886L137.593 38.5378C137.593 38.5378 137.593 38.5377 137.593 38.5746C137.593 38.6114 137.593 38.6114 137.593 38.636C137.593 38.6605 137.593 38.6851 137.593 38.6974C137.592 38.7178 137.592 38.7383 137.593 38.7588C137.587 38.7723 137.584 38.7869 137.584 38.8017C137.584 38.8166 137.587 38.8312 137.593 38.8447L137.71 38.9184Z" fill="#263238"/>
<path d="M144.789 46.1262C144.79 46.2153 144.774 46.3039 144.741 46.3866C144.707 46.4692 144.658 46.5444 144.595 46.6074C144.532 46.6705 144.456 46.7201 144.374 46.7535C144.291 46.7868 144.203 46.8032 144.113 46.8015H139.761C139.667 46.8023 139.574 46.783 139.488 46.7449C139.402 46.7068 139.325 46.6507 139.263 46.5805C139.203 46.5158 139.155 46.4398 139.125 46.3568C139.094 46.2738 139.079 46.1855 139.083 46.097C139.086 46.0084 139.107 45.9215 139.144 45.8411C139.182 45.7608 139.235 45.6886 139.3 45.6289L142.916 42.3504C143.082 42.2038 143.214 42.0231 143.303 41.8207C143.392 41.6182 143.436 41.3989 143.432 41.1777C143.434 40.7856 143.289 40.407 143.027 40.1156C142.879 39.9509 142.699 39.8196 142.496 39.7307C142.294 39.6417 142.075 39.5971 141.854 39.5999C141.462 39.5989 141.084 39.7432 140.792 40.0051L140.411 40.3489C140.346 40.4087 140.269 40.455 140.186 40.4849C140.102 40.5148 140.014 40.5279 139.925 40.5233C139.837 40.5188 139.75 40.4967 139.67 40.4583C139.59 40.4199 139.519 40.366 139.46 40.2998C139.34 40.1659 139.278 39.9901 139.287 39.8108C139.296 39.6315 139.376 39.463 139.509 39.342L139.883 39.0043C140.417 38.5135 141.116 38.2417 141.842 38.243C142.251 38.244 142.656 38.3301 143.03 38.4961C143.404 38.6621 143.74 38.9041 144.015 39.2069C144.508 39.7447 144.78 40.4484 144.776 41.1777C144.776 41.5871 144.689 41.9917 144.523 42.3659C144.357 42.7401 144.115 43.0756 143.813 43.3511L141.498 45.4447H144.101C144.191 45.443 144.281 45.4595 144.365 45.4931C144.449 45.5267 144.525 45.5767 144.589 45.6402C144.653 45.7038 144.704 45.7795 144.738 45.8629C144.772 45.9464 144.79 46.0359 144.789 46.1262Z" fill="#263238"/>
<path d="M174.725 47.919V55.1329C174.724 55.2224 174.706 55.3108 174.671 55.3932C174.636 55.4756 174.585 55.5502 174.521 55.613C174.457 55.6757 174.382 55.7252 174.299 55.7587C174.216 55.7922 174.127 55.809 174.037 55.8082C173.949 55.809 173.861 55.7921 173.779 55.7584C173.697 55.7247 173.622 55.6749 173.56 55.6119C173.498 55.5489 173.449 55.4741 173.416 55.3918C173.383 55.3095 173.366 55.2215 173.368 55.1329V49.1162L172.877 49.3986C172.775 49.4647 172.655 49.4989 172.533 49.4968C172.415 49.5006 172.298 49.4701 172.197 49.4091C172.096 49.3481 172.014 49.2592 171.962 49.153C171.914 49.0794 171.882 48.9968 171.867 48.9104C171.852 48.8239 171.854 48.7352 171.874 48.6498C171.895 48.5643 171.932 48.4838 171.984 48.4131C172.036 48.3423 172.101 48.2829 172.177 48.2382L173.681 47.348C173.681 47.348 173.718 47.348 173.73 47.348C173.743 47.348 173.767 47.348 173.792 47.3112H173.865C173.881 47.3055 173.899 47.3055 173.915 47.3112C173.943 47.3052 173.972 47.3052 174 47.3112H174.136C174.151 47.3168 174.169 47.3168 174.185 47.3112C174.209 47.304 174.234 47.304 174.258 47.3112C174.274 47.3055 174.292 47.3055 174.307 47.3112C174.344 47.3112 174.357 47.348 174.381 47.348L174.43 47.3848L174.479 47.4217C174.479 47.4217 174.516 47.4585 174.528 47.4708C174.544 47.4848 174.556 47.5015 174.565 47.5199L174.614 47.569C174.614 47.569 174.614 47.569 174.614 47.6059C174.62 47.6238 174.62 47.6431 174.614 47.6611C174.614 47.6611 174.614 47.7102 174.614 47.7225C174.613 47.743 174.613 47.7635 174.614 47.7839C174.608 47.7974 174.605 47.8121 174.605 47.8269C174.605 47.8417 174.608 47.8563 174.614 47.8699L174.725 47.919Z" fill="#263238"/>
<path d="M103.918 47.919V55.1329C103.918 55.2224 103.899 55.3108 103.864 55.3932C103.829 55.4756 103.778 55.5502 103.714 55.613C103.651 55.6757 103.575 55.7252 103.492 55.7587C103.409 55.7922 103.32 55.809 103.231 55.8082C103.142 55.809 103.054 55.7921 102.972 55.7584C102.89 55.7247 102.816 55.6749 102.753 55.6119C102.691 55.5489 102.642 55.4741 102.609 55.3918C102.576 55.3095 102.56 55.2215 102.562 55.1329V49.1162L102.07 49.3986C101.968 49.4647 101.848 49.4989 101.727 49.4968C101.582 49.4901 101.443 49.4378 101.33 49.3476C101.217 49.2573 101.135 49.1336 101.096 48.9941C101.057 48.8547 101.064 48.7065 101.114 48.5708C101.164 48.435 101.256 48.3187 101.377 48.2382L102.875 47.348C102.875 47.348 102.911 47.348 102.924 47.348C102.936 47.348 102.961 47.348 102.985 47.3112H103.059C103.075 47.3055 103.092 47.3055 103.108 47.3112C103.136 47.3052 103.166 47.3052 103.194 47.3112H103.329C103.345 47.3168 103.362 47.3168 103.378 47.3112C103.402 47.304 103.428 47.304 103.452 47.3112C103.468 47.3055 103.485 47.3055 103.501 47.3112C103.538 47.3112 103.55 47.348 103.575 47.348L103.624 47.3848L103.673 47.4217C103.673 47.4217 103.71 47.4585 103.722 47.4708C103.737 47.4848 103.75 47.5015 103.759 47.5199L103.808 47.569C103.808 47.569 103.808 47.569 103.808 47.6059C103.814 47.6238 103.814 47.6431 103.808 47.6611C103.808 47.6611 103.808 47.7102 103.808 47.7225C103.807 47.743 103.807 47.7635 103.808 47.7839C103.802 47.7974 103.799 47.8121 103.799 47.8269C103.799 47.8417 103.802 47.8563 103.808 47.8699L103.918 47.919Z" fill="#263238"/>
<path d="M108.013 47.919V55.1329C108.012 55.2224 107.994 55.3108 107.959 55.3932C107.924 55.4756 107.873 55.5502 107.809 55.613C107.745 55.6757 107.67 55.7252 107.587 55.7587C107.504 55.7922 107.415 55.809 107.326 55.8082C107.237 55.809 107.149 55.7921 107.067 55.7584C106.985 55.7247 106.911 55.6749 106.848 55.6119C106.786 55.5489 106.737 55.4741 106.704 55.3918C106.671 55.3095 106.655 55.2215 106.656 55.1329V49.1162L106.165 49.3986C106.063 49.4647 105.943 49.4989 105.821 49.4968C105.676 49.4913 105.537 49.4399 105.423 49.3501C105.308 49.2603 105.226 49.1366 105.186 48.9969C105.147 48.8572 105.152 48.7085 105.202 48.5722C105.253 48.4359 105.345 48.319 105.465 48.2382L106.97 47.348C106.97 47.348 107.006 47.348 107.019 47.348C107.031 47.348 107.055 47.348 107.08 47.3112H107.154C107.17 47.3055 107.187 47.3055 107.203 47.3112C107.231 47.3052 107.26 47.3052 107.289 47.3112H107.424C107.44 47.3168 107.457 47.3168 107.473 47.3112C107.497 47.304 107.523 47.304 107.547 47.3112C107.563 47.3055 107.58 47.3055 107.596 47.3112C107.633 47.3112 107.645 47.348 107.669 47.348C107.683 47.3631 107.7 47.3756 107.719 47.3848L107.768 47.4217C107.768 47.4217 107.805 47.4585 107.817 47.4708C107.832 47.4848 107.844 47.5015 107.854 47.5199L107.903 47.569C107.903 47.569 107.903 47.569 107.903 47.6059C107.908 47.6238 107.908 47.6431 107.903 47.6611C107.903 47.6611 107.903 47.7102 107.903 47.7225C107.902 47.743 107.902 47.7635 107.903 47.7839C107.897 47.7974 107.893 47.8121 107.893 47.8269C107.893 47.8417 107.897 47.8563 107.903 47.8699L108.013 47.919Z" fill="#263238"/>
<path d="M202.236 80.581C202.238 80.6702 202.221 80.7587 202.188 80.8414C202.155 80.9241 202.105 80.9992 202.042 81.0623C201.979 81.1253 201.904 81.175 201.821 81.2083C201.738 81.2417 201.65 81.258 201.561 81.2564H197.214C197.119 81.2577 197.025 81.2386 196.938 81.2005C196.851 81.1624 196.774 81.106 196.71 81.0353C196.65 80.9707 196.603 80.8947 196.572 80.8117C196.541 80.7287 196.527 80.6403 196.53 80.5518C196.533 80.4633 196.554 80.3763 196.592 80.296C196.629 80.2156 196.682 80.1435 196.747 80.0837L200.363 76.8052C200.529 76.6584 200.661 76.4777 200.75 76.2753C200.839 76.0729 200.883 75.8536 200.879 75.6326C200.881 75.2386 200.737 74.8579 200.474 74.5643C200.326 74.401 200.145 74.2711 199.943 74.1833C199.74 74.0954 199.522 74.0516 199.301 74.0547C198.91 74.0549 198.532 74.1991 198.239 74.4599L197.859 74.7976C197.794 74.8582 197.717 74.9051 197.633 74.9355C197.55 74.966 197.461 74.9793 197.372 74.9747C197.284 74.9701 197.197 74.9477 197.117 74.9089C197.037 74.87 196.965 74.8155 196.907 74.7485C196.847 74.6831 196.801 74.6064 196.771 74.523C196.741 74.4395 196.728 74.3509 196.732 74.2624C196.737 74.1739 196.759 74.0871 196.798 74.0072C196.836 73.9273 196.89 73.8558 196.956 73.7969L197.331 73.4531C197.87 72.9641 198.573 72.6947 199.301 72.6979C199.712 72.6987 200.117 72.7848 200.492 72.9507C200.868 73.1167 201.204 73.3588 201.481 73.6618C201.97 74.2011 202.24 74.9043 202.236 75.6326C202.232 76.0378 202.144 76.4377 201.978 76.8075C201.812 77.1772 201.572 77.5087 201.272 77.7814L198.939 79.8995H201.542C201.633 79.8962 201.724 79.9114 201.809 79.9443C201.894 79.9772 201.971 80.0271 202.036 80.0909C202.101 80.1547 202.152 80.231 202.186 80.3153C202.221 80.3996 202.238 80.49 202.236 80.581Z" fill="#263238"/>
<path d="M78.1569 73.3672V80.5811C78.1561 80.6705 78.1377 80.759 78.1027 80.8414C78.0677 80.9238 78.0168 80.9984 77.953 81.0612C77.8891 81.1239 77.8135 81.1734 77.7305 81.2069C77.6476 81.2404 77.5588 81.2572 77.4693 81.2564C77.3806 81.2572 77.2927 81.2403 77.2108 81.2066C77.1288 81.1729 77.0544 81.123 76.992 81.0601C76.9296 80.9971 76.8805 80.9223 76.8475 80.84C76.8146 80.7577 76.7984 80.6697 76.8001 80.5811V74.5644L76.3089 74.8468C76.2066 74.9129 76.0869 74.9471 75.9651 74.945C75.8279 74.9319 75.6979 74.8779 75.5917 74.79C75.4856 74.7021 75.4084 74.5844 75.37 74.452C75.3316 74.3197 75.3339 74.1788 75.3765 74.0478C75.4191 73.9168 75.5001 73.8016 75.609 73.7171L77.1132 72.8269C77.1132 72.8269 77.15 72.8269 77.1623 72.8269C77.1746 72.8269 77.1991 72.8269 77.2237 72.79H77.2974C77.3133 72.7844 77.3306 72.7844 77.3465 72.79C77.3748 72.7841 77.4041 72.7841 77.4324 72.79H77.5675C77.5834 72.7957 77.6007 72.7957 77.6166 72.79C77.6407 72.7829 77.6663 72.7829 77.6903 72.79C77.7062 72.7844 77.7235 72.7844 77.7394 72.79C77.7763 72.79 77.7885 72.8269 77.8131 72.8269C77.8271 72.842 77.8438 72.8545 77.8622 72.8637L77.9113 72.9006C77.9113 72.9006 77.9482 72.9374 77.9604 72.9497C77.9756 72.9637 77.988 72.9803 77.9973 72.9988L78.0464 73.0479C78.0464 73.0479 78.0464 73.0479 78.0464 73.0847C78.0511 73.1029 78.0511 73.1219 78.0464 73.14C78.0464 73.14 78.0464 73.1891 78.0464 73.2014C78.0452 73.2218 78.0452 73.2423 78.0464 73.2628C78.0403 73.2763 78.0371 73.2909 78.0371 73.3058C78.0371 73.3206 78.0403 73.3352 78.0464 73.3487L78.1569 73.3672Z" fill="#263238"/>
<path d="M79.7041 76.9771C79.6863 75.9417 79.977 74.9244 80.5391 74.0547C80.7587 73.6439 81.0858 73.3005 81.4853 73.0611C81.8848 72.8217 82.3419 72.6952 82.8077 72.6952C83.2734 72.6952 83.7305 72.8217 84.13 73.0611C84.5295 73.3005 84.8566 73.6439 85.0762 74.0547C85.6105 74.9358 85.893 75.9466 85.893 76.9771C85.893 78.0076 85.6105 79.0184 85.0762 79.8995C84.8566 80.3103 84.5295 80.6537 84.13 80.8931C83.7305 81.1326 83.2734 81.259 82.8077 81.259C82.3419 81.259 81.8848 81.1326 81.4853 80.8931C81.0858 80.6537 80.7587 80.3103 80.5391 79.8995C79.9794 79.0287 79.6889 78.0122 79.7041 76.9771ZM84.5359 76.9771C84.5425 76.207 84.3296 75.451 83.922 74.7976C83.8103 74.5883 83.6477 74.4106 83.4492 74.2807C83.2507 74.1509 83.0226 74.0732 82.7862 74.0547C82.5469 74.0746 82.316 74.1527 82.1138 74.2822C81.9116 74.4116 81.744 74.5886 81.6258 74.7976C81.2182 75.451 81.0052 76.207 81.0119 76.9771C81.005 77.7414 81.2181 78.4916 81.6258 79.1382C81.7426 79.35 81.9094 79.53 82.1116 79.6627C82.3138 79.7953 82.5454 79.8766 82.7862 79.8995C83.0241 79.8781 83.2529 79.7971 83.4514 79.664C83.6499 79.531 83.8117 79.3502 83.922 79.1382C84.3297 78.4916 84.5428 77.7414 84.5359 76.9771Z" fill="#263238"/>
<path d="M68.7082 109.578C68.6996 108.812 68.9878 108.072 69.5125 107.514C70.0372 106.955 70.7577 106.622 71.5228 106.583C72.288 106.544 73.0386 106.803 73.6172 107.305C74.1958 107.807 74.5575 108.514 74.6267 109.277C74.6267 109.504 74.6267 109.737 74.6267 109.971C74.6348 110.825 74.4892 111.673 74.1969 112.476C73.9018 113.321 73.3502 114.053 72.619 114.569C72.0701 114.927 71.4323 115.125 70.7772 115.14C70.6024 115.149 70.4309 115.09 70.2983 114.976C70.1657 114.861 70.0821 114.7 70.065 114.526C70.0646 114.346 70.1328 114.171 70.256 114.039C70.3791 113.907 70.5478 113.826 70.7281 113.814C71.1339 113.805 71.5299 113.688 71.8762 113.476C72.1956 113.254 72.4584 112.959 72.6436 112.617C72.7041 112.514 72.7575 112.408 72.8032 112.298C72.434 112.461 72.0344 112.545 71.6306 112.543C70.8516 112.532 70.1083 112.214 69.5615 111.66C69.0146 111.105 68.7081 110.357 68.7082 109.578ZM70.065 109.578C70.065 110.004 70.2345 110.414 70.5361 110.715C70.8378 111.017 71.247 111.186 71.6736 111.186C72.1002 111.186 72.5093 111.017 72.811 110.715C73.1126 110.414 73.2821 110.004 73.2821 109.578C73.2821 109.151 73.1126 108.742 72.811 108.44C72.5093 108.139 72.1002 107.969 71.6736 107.969C71.247 107.969 70.8378 108.139 70.5361 108.44C70.2345 108.742 70.065 109.151 70.065 109.578Z" fill="#263238"/>
<path d="M210.07 109.983C210.353 110.263 210.577 110.597 210.73 110.965C210.883 111.333 210.961 111.727 210.96 112.126C210.952 112.934 210.625 113.707 210.05 114.276C209.476 114.846 208.699 115.165 207.89 115.165C207.493 115.164 207.1 115.085 206.734 114.932C206.367 114.78 206.034 114.556 205.754 114.275C205.624 114.145 205.552 113.969 205.552 113.786C205.552 113.603 205.624 113.428 205.754 113.298C205.883 113.169 206.059 113.096 206.242 113.096C206.425 113.096 206.601 113.169 206.73 113.298C207.04 113.602 207.457 113.772 207.89 113.771C208.33 113.771 208.752 113.602 209.069 113.298C209.223 113.144 209.345 112.961 209.428 112.76C209.512 112.559 209.554 112.343 209.554 112.126C209.556 111.909 209.514 111.693 209.431 111.493C209.347 111.293 209.224 111.111 209.069 110.959C208.759 110.65 208.34 110.476 207.903 110.474C207.808 110.478 207.715 110.46 207.628 110.422C207.542 110.383 207.466 110.326 207.405 110.253C207.341 110.189 207.29 110.113 207.255 110.029C207.22 109.946 207.202 109.856 207.202 109.765C207.202 109.674 207.22 109.584 207.255 109.501C207.29 109.417 207.341 109.341 207.405 109.277L208.633 108H206.65C206.478 107.984 206.319 107.904 206.202 107.776C206.086 107.648 206.022 107.482 206.022 107.309C206.022 107.137 206.086 106.97 206.202 106.842C206.319 106.715 206.478 106.635 206.65 106.619H210.26C210.351 106.618 210.441 106.635 210.525 106.669C210.609 106.703 210.686 106.754 210.751 106.818C210.815 106.882 210.866 106.958 210.901 107.042C210.936 107.125 210.954 107.215 210.954 107.306C210.952 107.422 210.922 107.535 210.868 107.638C210.834 107.7 210.793 107.758 210.745 107.81L209.204 109.394C209.528 109.534 209.821 109.734 210.07 109.983Z" fill="#263238"/>
<path d="M202.009 146.949C202.009 147.038 201.991 147.126 201.957 147.209C201.923 147.291 201.872 147.366 201.809 147.429C201.746 147.491 201.67 147.541 201.588 147.575C201.505 147.608 201.417 147.625 201.327 147.624H201.205V148.551C201.214 148.645 201.203 148.739 201.173 148.829C201.143 148.918 201.095 149 201.032 149.07C200.969 149.139 200.892 149.195 200.806 149.233C200.719 149.271 200.626 149.291 200.532 149.291C200.438 149.291 200.345 149.271 200.259 149.233C200.173 149.195 200.096 149.139 200.033 149.07C199.969 149 199.921 148.918 199.891 148.829C199.862 148.739 199.851 148.645 199.86 148.551V147.624H196.004C195.853 147.631 195.706 147.578 195.593 147.477C195.522 147.424 195.463 147.357 195.418 147.281C195.374 147.204 195.346 147.119 195.336 147.031C195.325 146.943 195.333 146.854 195.358 146.769C195.383 146.684 195.426 146.605 195.483 146.538L200.001 140.914C200.016 140.9 200.029 140.883 200.038 140.865C200.062 140.858 200.083 140.846 200.099 140.828L200.149 140.791C200.173 140.784 200.198 140.784 200.222 140.791C200.222 140.791 200.222 140.754 200.271 140.754C200.32 140.754 200.308 140.754 200.345 140.754C200.361 140.76 200.378 140.76 200.394 140.754H200.603C200.623 140.76 200.644 140.76 200.664 140.754C200.664 140.754 200.713 140.754 200.738 140.754H200.787L200.848 140.803L200.91 140.84H200.947L200.996 140.889L201.033 140.938C201.051 140.957 201.068 140.977 201.082 141C201.078 141.016 201.078 141.033 201.082 141.049C201.084 141.073 201.084 141.098 201.082 141.123C201.083 141.139 201.083 141.155 201.082 141.172C201.082 141.172 201.082 141.202 201.082 141.239C201.082 141.276 201.082 141.276 201.082 141.301V146.28H201.205C201.303 146.262 201.404 146.266 201.5 146.291C201.597 146.316 201.687 146.362 201.763 146.426C201.84 146.49 201.902 146.57 201.944 146.66C201.987 146.751 202.009 146.849 202.009 146.949ZM199.86 143.265L197.404 146.286H199.86V143.265Z" fill="#263238"/>
<path d="M83.8237 146.317C83.8203 146.821 83.6863 147.316 83.4348 147.753C83.1833 148.191 82.8229 148.555 82.3886 148.812C81.9544 149.069 81.461 149.209 80.9566 149.218C80.4522 149.228 79.954 149.107 79.5103 148.867C79.0666 148.626 78.6927 148.276 78.4249 147.848C78.157 147.421 78.0044 146.931 77.9819 146.427C77.9594 145.923 78.0677 145.422 78.2964 144.972C78.525 144.522 78.8662 144.14 79.2867 143.861C79.0986 143.606 78.9735 143.31 78.9214 142.997C78.8693 142.684 78.8917 142.364 78.9869 142.061C79.0821 141.759 79.2473 141.484 79.469 141.257C79.6908 141.031 79.9629 140.86 80.2632 140.758C80.5635 140.657 80.8835 140.628 81.1972 140.673C81.5108 140.719 81.8093 140.838 82.0684 141.02C82.3274 141.203 82.5396 141.444 82.6878 141.725C82.836 142.005 82.916 142.316 82.9212 142.633C82.9271 143.076 82.7845 143.508 82.516 143.861C82.9209 144.129 83.2526 144.494 83.4809 144.923C83.7092 145.352 83.827 145.831 83.8237 146.317ZM82.4915 146.317C82.4915 145.897 82.3256 145.494 82.0301 145.196C81.7345 144.899 81.3332 144.73 80.9136 144.726C80.4935 144.726 80.0906 144.893 79.7936 145.19C79.4965 145.487 79.3296 145.89 79.3296 146.31C79.3296 146.731 79.4965 147.133 79.7936 147.43C80.0906 147.728 80.4935 147.894 80.9136 147.894C81.3316 147.893 81.732 147.726 82.0275 147.43C82.3231 147.135 82.4898 146.735 82.4915 146.317ZM80.2199 142.67C80.2108 142.765 80.2218 142.861 80.2521 142.952C80.2824 143.043 80.3313 143.126 80.3958 143.197C80.4602 143.268 80.5387 143.325 80.6263 143.363C80.7139 143.402 80.8086 143.422 80.9044 143.422C81.0002 143.422 81.0949 143.402 81.1825 143.363C81.2701 143.325 81.3486 143.268 81.4131 143.197C81.4775 143.126 81.5264 143.043 81.5567 142.952C81.587 142.861 81.598 142.765 81.589 142.67C81.5728 142.499 81.4937 142.341 81.3671 142.226C81.2405 142.111 81.0755 142.047 80.9044 142.047C80.7333 142.047 80.5683 142.111 80.4417 142.226C80.3151 142.341 80.236 142.499 80.2199 142.67Z" fill="#263238"/>
<path d="M175.572 169.776C175.855 170.057 176.08 170.392 176.233 170.761C176.386 171.13 176.465 171.525 176.465 171.924C176.465 172.324 176.386 172.719 176.233 173.088C176.08 173.456 175.855 173.791 175.572 174.073C175.293 174.358 174.96 174.584 174.592 174.738C174.224 174.892 173.829 174.971 173.43 174.97C173.034 174.971 172.641 174.892 172.276 174.738C171.911 174.584 171.581 174.358 171.305 174.073C171.239 174.011 171.185 173.935 171.149 173.851C171.113 173.767 171.094 173.677 171.094 173.585C171.094 173.494 171.113 173.403 171.149 173.319C171.185 173.235 171.239 173.16 171.305 173.097C171.369 173.033 171.445 172.981 171.529 172.947C171.613 172.912 171.703 172.894 171.793 172.894C171.884 172.894 171.974 172.912 172.058 172.947C172.142 172.981 172.218 173.033 172.282 173.097C172.434 173.252 172.615 173.375 172.815 173.46C173.016 173.544 173.231 173.587 173.448 173.587C173.665 173.587 173.88 173.544 174.081 173.46C174.281 173.375 174.463 173.252 174.615 173.097C174.925 172.79 175.102 172.373 175.106 171.937C175.109 171.718 175.067 171.501 174.982 171.299C174.898 171.097 174.773 170.915 174.615 170.764C174.465 170.608 174.284 170.485 174.085 170.403C173.885 170.32 173.67 170.28 173.454 170.285C173.237 170.282 173.021 170.323 172.819 170.406C172.618 170.488 172.435 170.61 172.282 170.764C172.218 170.828 172.142 170.88 172.058 170.914C171.974 170.949 171.884 170.967 171.793 170.967C171.703 170.967 171.613 170.949 171.529 170.914C171.445 170.88 171.369 170.828 171.305 170.764C171.256 170.715 171.219 170.653 171.17 170.604C171.121 170.555 171.17 170.568 171.17 170.568C171.177 170.548 171.177 170.526 171.17 170.506C171.17 170.469 171.17 170.445 171.17 170.42C171.158 170.351 171.158 170.28 171.17 170.211L171.539 167.043C171.572 166.849 171.68 166.675 171.84 166.558H171.889H171.925C172.024 166.508 172.134 166.483 172.245 166.485H175.855C175.951 166.476 176.048 166.487 176.14 166.517C176.231 166.548 176.315 166.597 176.387 166.662C176.458 166.727 176.515 166.807 176.554 166.895C176.594 166.983 176.614 167.079 176.614 167.175C176.614 167.272 176.594 167.368 176.554 167.456C176.515 167.544 176.458 167.624 176.387 167.689C176.315 167.754 176.231 167.803 176.14 167.834C176.048 167.864 175.951 167.875 175.855 167.866H172.846L172.699 169.094C172.965 169.021 173.24 168.984 173.516 168.984C174.277 168.978 175.012 169.261 175.572 169.776Z" fill="#263238"/>
<path d="M108.609 167.332L105.539 174.558C105.494 174.683 105.41 174.79 105.3 174.863C105.189 174.936 105.058 174.971 104.925 174.963C104.837 174.964 104.749 174.947 104.667 174.914C104.504 174.843 104.375 174.711 104.306 174.546C104.238 174.381 104.235 174.197 104.299 174.03L106.939 167.762H103.777C103.597 167.757 103.427 167.683 103.301 167.554C103.175 167.426 103.103 167.254 103.102 167.074C103.102 166.986 103.119 166.898 103.153 166.817C103.187 166.735 103.237 166.661 103.3 166.599C103.363 166.537 103.437 166.487 103.519 166.454C103.601 166.421 103.689 166.404 103.777 166.405H107.97C108.009 166.4 108.048 166.4 108.087 166.405C108.177 166.427 108.263 166.46 108.345 166.503L108.382 166.54C108.404 166.55 108.421 166.567 108.431 166.589C108.431 166.589 108.468 166.626 108.48 166.638C108.489 166.657 108.502 166.673 108.517 166.687C108.522 166.708 108.522 166.729 108.517 166.749C108.529 166.772 108.546 166.793 108.566 166.81C108.566 166.81 108.566 166.859 108.566 166.872V166.933C108.578 167.021 108.578 167.109 108.566 167.197C108.633 167.258 108.621 167.295 108.609 167.332Z" fill="#263238"/>
<path d="M142.836 180.354C142.847 181.121 142.56 181.862 142.036 182.421C141.511 182.981 140.791 183.316 140.025 183.356C139.259 183.395 138.508 183.137 137.928 182.634C137.349 182.132 136.987 181.425 136.918 180.661C136.918 180.428 136.918 180.194 136.918 179.961C136.908 179.107 137.052 178.259 137.342 177.456C137.638 176.613 138.189 175.883 138.919 175.369C139.467 175.007 140.105 174.807 140.761 174.791C140.941 174.785 141.116 174.849 141.248 174.971C141.381 175.093 141.459 175.263 141.467 175.442C141.468 175.621 141.4 175.794 141.278 175.925C141.156 176.056 140.989 176.136 140.81 176.148C140.403 176.155 140.006 176.274 139.662 176.492C139.343 176.714 139.078 177.006 138.889 177.346C138.828 177.448 138.775 177.555 138.729 177.665C139.098 177.502 139.498 177.418 139.902 177.419C140.678 177.427 141.419 177.739 141.968 178.288C142.517 178.836 142.828 179.578 142.836 180.354ZM141.48 180.354C141.493 180.135 141.462 179.915 141.387 179.708C141.313 179.502 141.197 179.313 141.046 179.153C140.896 178.993 140.714 178.865 140.513 178.778C140.311 178.691 140.094 178.646 139.874 178.646C139.654 178.646 139.437 178.691 139.236 178.778C139.034 178.865 138.853 178.993 138.702 179.153C138.552 179.313 138.436 179.502 138.361 179.708C138.287 179.915 138.255 180.135 138.269 180.354C138.294 180.762 138.474 181.146 138.772 181.427C139.071 181.707 139.465 181.863 139.874 181.863C140.284 181.863 140.678 181.707 140.976 181.427C141.274 181.146 141.454 180.762 141.48 180.354Z" fill="#263238"/>
<path d="M68.2725 70.4755L66.2403 69.3581L65.1291 67.3259L64.0117 69.3581L61.9795 70.4755L64.0117 71.5867L65.1291 73.6189L66.2403 71.5867L68.2725 70.4755Z" fill="white"/>
<path d="M169.114 30.1943L168.002 28.1621L166.891 30.1943L164.859 31.3055L166.891 32.4168L168.002 34.4551L169.114 32.4168L171.146 31.3055L169.114 30.1943Z" fill="white"/>
<path d="M79.3418 166.086L80.0417 164.796L81.331 164.09L80.0417 163.39L79.3418 162.101L78.6357 163.39L77.3464 164.09L78.6357 164.796L79.3418 166.086Z" fill="white"/>
<path d="M218.021 70.7026L217.315 71.9919L216.031 72.698L217.315 73.3979L218.021 74.6872L218.727 73.3979L220.01 72.698L218.727 71.9919L218.021 70.7026Z" fill="white"/>
<path d="M186.912 179.967L186.212 181.25L184.923 181.956L186.212 182.656L186.912 183.945L187.618 182.656L188.907 181.956L187.618 181.25L186.912 179.967Z" fill="white"/>
<path d="M59.9902 82.5887L61.2795 83.2947L61.9794 84.5779L62.6855 83.2947L63.9748 82.5887L62.6855 81.8888L61.9794 80.5995L61.2795 81.8888L59.9902 82.5887Z" fill="white"/>
<path d="M211.15 158.233L210.039 160.265L208.007 161.377L210.039 162.494L211.15 164.526L212.262 162.494L214.294 161.377L212.262 160.265L211.15 158.233Z" fill="white"/>
<path d="M70.8019 152.609L69.6907 154.648L67.6523 155.759L69.6907 156.87L70.8019 161.186L71.9131 156.87L73.9453 155.759L71.9131 154.648L70.8019 152.609Z" fill="white"/>
<path d="M102.531 270.764H154.139V260.051H102.531V270.764Z" fill="#4CAF50"/>
<path d="M68.0575 270.764H102.537V260.051H68.0575V270.764Z" fill="#4CAF50"/>
<path opacity="0.1" d="M68.0575 270.764H102.537V260.051H68.0575V270.764Z" fill="black"/>
<path d="M154.145 261.162H103.667V269.653H154.145V261.162Z" fill="white"/>
<path d="M103.667 261.168C103.814 261.303 154.422 260.763 154.281 261.168V269.653V269.806H154.121C141.547 269.806 116.222 269.739 103.648 269.702H103.605V269.653L103.648 261.168H103.667ZM103.667 261.168L103.71 269.653C103.439 269.536 128.961 269.585 128.882 269.548L154.115 269.505L153.967 269.653V261.168C154.827 261.549 103.446 261.045 103.624 261.168H103.667Z" fill="#DBDBDB"/>
<path d="M150.873 267.909C146.944 267.971 143.01 268.012 139.073 268.032L127.273 268.075L115.442 268.038C111.509 268.014 107.575 267.971 103.642 267.909C107.579 267.848 111.513 267.807 115.442 267.786L127.248 267.743L139.048 267.786C143.002 267.807 146.944 267.848 150.873 267.909Z" fill="#DBDBDB"/>
<path d="M150.873 266.264C146.944 266.325 143.01 266.366 139.073 266.387L127.273 266.423L115.442 266.368C111.509 266.368 107.575 266.327 103.642 266.245C107.579 266.184 111.513 266.141 115.442 266.116L127.248 266.08L139.048 266.116C143.002 266.141 146.944 266.19 150.873 266.264Z" fill="#DBDBDB"/>
<path d="M150.873 264.575C146.944 264.637 143.01 264.68 139.073 264.704L127.273 264.741L115.442 264.704C111.509 264.68 107.575 264.637 103.642 264.575C107.579 264.522 111.513 264.481 115.442 264.453L127.248 264.416L139.048 264.453C143.002 264.477 146.944 264.518 150.873 264.575Z" fill="#DBDBDB"/>
<path d="M150.873 262.912C146.944 262.973 143.01 263.016 139.073 263.041L127.273 263.077L115.442 263.041C111.509 263.016 107.575 262.973 103.642 262.912C107.579 262.85 111.513 262.809 115.442 262.789L127.248 262.752L139.048 262.789C143.002 262.809 146.944 262.85 150.873 262.912Z" fill="#DBDBDB"/>
<path d="M114.012 230.378H70.7712V239.403H114.012V230.378Z" fill="#A6A6A6"/>
<path d="M141.75 230.378H114.011V239.403H141.75V230.378Z" fill="#C7C7C7"/>
<path d="M112.876 231.318H70.7712V238.47H112.876V231.318Z" fill="white"/>
<path d="M112.876 238.47L70.765 238.605H70.6238V238.47V231.318V231.164H70.7773C83.2159 231.207 100.677 231.195 112.931 231.275C112.931 231.312 112.882 238.427 112.888 238.47H112.876ZM112.876 238.47L112.833 231.318C106.079 231.502 98.7549 231.361 91.8234 231.428L70.765 231.471L70.9185 231.318V238.47L70.7773 238.329L112.888 238.47H112.876Z" fill="#DBDBDB"/>
<path d="M73.4419 232.791C76.659 232.742 79.8781 232.707 83.0993 232.687L93.2909 232.65L103.212 232.681C106.438 232.681 109.659 232.718 112.876 232.791C109.655 232.84 106.433 232.875 103.212 232.896L93.2909 232.926L83.0993 232.896C79.8822 232.879 76.6631 232.844 73.4419 232.791Z" fill="#DBDBDB"/>
<path d="M73.4419 234.191C76.659 234.142 79.8781 234.107 83.0993 234.087H93.2909H103.212C106.438 234.087 109.659 234.121 112.876 234.191C109.655 234.248 106.433 234.283 103.212 234.295L93.2909 234.332L83.0993 234.295C79.8822 234.279 76.6631 234.244 73.4419 234.191Z" fill="#DBDBDB"/>
<path d="M73.4419 235.597C76.659 235.54 79.8781 235.503 83.0993 235.487L93.2909 235.456L103.212 235.487C106.438 235.487 109.659 235.523 112.876 235.597C109.655 235.646 106.433 235.681 103.212 235.701H93.2909H83.0993C79.8822 235.681 76.6631 235.646 73.4419 235.597Z" fill="#DBDBDB"/>
<path d="M73.4419 236.997C76.659 236.948 79.8781 236.913 83.0993 236.892L93.2909 236.862L103.212 236.892C106.438 236.892 109.659 236.927 112.876 236.997C109.655 237.046 106.433 237.081 103.212 237.101L93.2909 237.138L83.0993 237.101C79.8822 237.085 76.6631 237.05 73.4419 236.997Z" fill="#DBDBDB"/>
<path d="M136.635 250.062H59.0139V260.094H136.635V250.062Z" fill="#A6A6A6"/>
<path d="M96.1639 252.112H66.3076V258.135H96.1639V252.112Z" fill="#DBDBDB"/>
<path d="M131.386 252.112H103.366V253.045H131.386V252.112Z" fill="#DBDBDB"/>
<path d="M131.386 254.611H103.366V255.544H131.386V254.611Z" fill="#DBDBDB"/>
<path d="M131.386 257.116H103.366V258.049H131.386V257.116Z" fill="#DBDBDB"/>
<path d="M64.5335 250.068H131.067V239.41H64.5335V250.068Z" fill="#37474F"/>
<path d="M71.5816 250.068H77.7825V239.41H71.5816V250.068Z" fill="#455A64"/>
<path d="M81.8528 250.068H84.2595V239.41H81.8528V250.068Z" fill="#455A64"/>
<path d="M57.3595 198.193L86.0713 270.785L94.5265 267.441L65.8147 194.849L57.3595 198.193Z" fill="#263238"/>
<path d="M80.4468 256.557L81.6165 259.515L90.0717 256.17L88.902 253.213L80.4468 256.557Z" fill="#455A64"/>
<path d="M60.2158 205.43L61.3855 208.388L69.8407 205.044L68.671 202.086L60.2158 205.43Z" fill="#455A64"/>
<path d="M62.1657 210.345L63.3354 213.303L71.7907 209.958L70.621 207.001L62.1657 210.345Z" fill="#455A64"/>
<path d="M61.175 270.764L61.175 208.166H47.6068V270.764H61.175Z" fill="#4CAF50"/>
<path d="M59.7629 208.166H49.0127V269.395H59.7629V208.166Z" fill="white"/>
<path d="M49.0129 269.395C49.1541 269.235 48.6138 207.902 49.0129 208H59.7631H59.9166V208.153C59.9166 208.153 59.8061 269.407 59.8123 269.426C59.8184 269.444 49.0559 269.364 49.0129 269.376V269.395ZM49.0129 269.395L59.7631 269.352C59.6342 269.622 59.6588 208.117 59.6097 208.172L59.7631 208.325H49.0129C49.3935 207.46 48.8901 269.604 49.0129 269.413V269.395Z" fill="#DBDBDB"/>
<path d="M57.5529 212.132C57.6347 216.904 57.6879 221.677 57.7125 226.449L57.7616 240.766L57.7309 255.078C57.7064 259.854 57.6531 264.627 57.5713 269.395C57.4976 264.622 57.4444 259.85 57.4117 255.078L57.3625 240.766L57.4117 226.449C57.4321 221.681 57.4792 216.908 57.5529 212.132Z" fill="#DBDBDB"/>
<path d="M55.447 212.132C55.5207 216.904 55.5719 221.677 55.6005 226.449L55.6496 240.766L55.6066 255.078C55.5739 259.854 55.5207 264.627 55.447 269.395C55.3693 264.622 55.316 259.85 55.2874 255.078L55.2383 240.766L55.2874 226.449C55.312 221.681 55.3652 216.908 55.447 212.132Z" fill="#DBDBDB"/>
<path d="M53.335 212.132C53.4086 216.904 53.4618 221.677 53.4946 226.449L53.5437 240.766L53.4946 255.078C53.4659 259.854 53.4127 264.627 53.335 269.395C53.2613 264.622 53.2081 259.85 53.1753 255.078L53.1262 240.766L53.1753 226.449C53.2081 221.681 53.2613 216.908 53.335 212.132Z" fill="#DBDBDB"/>
<path d="M51.2293 212.132C51.3029 216.904 51.3541 221.677 51.3827 226.449L51.4319 240.766L51.3827 255.078C51.3582 259.854 51.307 264.627 51.2293 269.395C51.1515 264.622 51.0983 259.85 51.0696 255.078L51.0205 240.766L51.0696 226.449C51.0942 221.681 51.1474 216.908 51.2293 212.132Z" fill="#DBDBDB"/>
<path d="M34.1123 270.739L34.1123 200.774H20.5379L20.5379 270.739H34.1123Z" fill="#4CAF50"/>
<path d="M31.3372 234.259V207.349H23.1901V234.259H31.3372Z" fill="white"/>
<path d="M31.3372 266.018V240.754H30.0786V266.018H31.3372Z" fill="white"/>
<path d="M27.9482 266.018V240.754H26.6897V266.018H27.9482Z" fill="white"/>
<path d="M24.5654 266.018V240.754H23.3068V266.018H24.5654Z" fill="white"/>
<path d="M34.1123 214.594V270.739H47.6069V214.594H34.1123Z" fill="#455A64"/>
<path d="M34.1123 220.549V225.78H47.6069V220.549H34.1123Z" fill="#37474F"/>
<path d="M34.1123 229.218V231.244H47.6069V229.218H34.1123Z" fill="#37474F"/>
<path d="M199.743 236.96C199.743 236.96 199.989 232.81 198.172 233.203C197.558 233.338 197.736 235.044 198.687 236.057C197.515 235.284 195.82 235.351 195.783 236.002C195.685 237.862 199.743 236.96 199.743 236.96Z" fill="#4CAF50"/>
<path opacity="0.2" d="M199.743 236.96C199.743 236.96 199.989 232.81 198.172 233.203C197.558 233.338 197.736 235.044 198.687 236.057C197.515 235.284 195.82 235.351 195.783 236.002C195.685 237.862 199.743 236.96 199.743 236.96Z" fill="black"/>
<path d="M199.743 236.96C201.045 235.437 200.621 233.123 199.743 232.951C198.724 232.754 199.179 235.511 199.179 235.511C199.179 235.511 197.337 233.055 196.416 234.105C195.495 235.155 198.258 236.604 198.258 236.604C198.258 236.604 195.47 236.604 195.802 237.574C196.09 238.433 198.448 238.489 199.743 236.96Z" fill="#4CAF50"/>
<path d="M195.501 247.268C195.603 248.418 195.779 249.561 196.029 250.688C196.415 252.798 197.253 254.801 198.485 256.557C203.336 258.456 208.725 258.456 213.576 256.557C216.062 253.451 216.952 247.059 216.596 243.775C215.982 237.838 212.409 235.566 209.333 234.756C208.256 234.479 207.148 234.339 206.036 234.338C203.022 234.338 196.379 235.425 195.476 243.781C195.374 244.941 195.383 246.109 195.501 247.268Z" fill="#455A64"/>
<path d="M205.834 234.338C205.748 236.309 205.698 238.28 205.662 240.251C205.625 242.221 205.619 244.192 205.606 246.169C205.594 248.146 205.606 250.111 205.686 252.081C205.703 254.057 205.841 256.029 206.098 257.988L206.024 257.251L205.981 256.514C205.95 256.023 205.95 255.526 205.932 255.035C205.932 254.052 205.895 253.064 205.889 252.081C205.889 250.111 205.889 248.14 205.889 246.169V240.251C205.858 238.274 205.858 236.303 205.834 234.338Z" fill="#37474F"/>
<path d="M207.111 234.369C207.404 235.309 207.64 236.267 207.817 237.236C208.013 238.2 208.16 239.17 208.283 240.146C208.52 242.096 208.655 244.058 208.688 246.022V247.495C208.688 247.986 208.688 248.478 208.658 248.969C208.658 249.951 208.572 250.933 208.529 251.91C208.529 252.407 208.455 252.892 208.412 253.383L208.283 254.85L207.952 257.785C208.111 256.815 208.271 255.845 208.412 254.869L208.584 253.401C208.639 252.91 208.701 252.419 208.731 251.928C208.811 250.946 208.885 249.963 208.903 248.975C208.903 248.484 208.946 247.986 208.94 247.495V246.003C208.898 244.029 208.743 242.059 208.474 240.103C208.219 238.15 207.763 236.228 207.111 234.369Z" fill="#37474F"/>
<path d="M208.823 234.615C209.425 235.42 209.928 236.294 210.322 237.218C210.414 237.451 210.524 237.678 210.616 237.912L210.868 238.618L210.991 238.974C211.028 239.09 211.058 239.213 211.095 239.336L211.292 240.06C211.778 242.003 212.009 244.001 211.979 246.003L211.942 247.508L211.801 248.999L211.727 249.748C211.691 250 211.642 250.246 211.599 250.491L211.347 251.971C211.307 252.219 211.253 252.465 211.187 252.708L211.009 253.438L210.653 254.906L209.763 257.785C210.107 256.84 210.438 255.894 210.776 254.942L211.169 253.481L211.365 252.751C211.44 252.509 211.499 252.263 211.543 252.014L211.826 250.528C211.869 250.276 211.924 250.031 211.961 249.785L212.041 249.03L212.2 247.52L212.243 246.003C212.264 243.979 212.012 241.962 211.494 240.005L211.273 239.281C211.236 239.158 211.199 239.035 211.156 238.918L211.021 238.562L210.751 237.856C210.653 237.623 210.543 237.396 210.438 237.169C210.015 236.25 209.472 235.391 208.823 234.615Z" fill="#37474F"/>
<path d="M210.082 234.952C210.86 235.612 211.546 236.374 212.121 237.218C212.707 238.049 213.195 238.945 213.576 239.888C214.343 241.773 214.731 243.791 214.718 245.825C214.718 246.329 214.718 246.838 214.681 247.342C214.644 247.845 214.601 248.355 214.509 248.858L214.392 249.613L214.239 250.356C214.19 250.608 214.14 250.86 214.073 251.099L213.889 251.842C213.754 252.333 213.594 252.818 213.453 253.309L212.937 254.746L212.372 256.17L211.758 257.57C212.726 255.763 213.508 253.862 214.091 251.897C214.22 251.4 214.38 250.915 214.472 250.405L214.632 249.656L214.754 248.895C214.853 248.385 214.877 247.876 214.939 247.36C215 246.844 215.006 246.335 214.994 245.819C214.991 243.754 214.573 241.71 213.766 239.809C213.36 238.862 212.845 237.966 212.231 237.138C211.925 236.726 211.593 236.335 211.237 235.965C210.883 235.594 210.497 235.255 210.082 234.952Z" fill="#37474F"/>
<path d="M204.63 234.387C203.978 236.249 203.519 238.172 203.261 240.128C202.987 242.084 202.829 244.054 202.788 246.028V247.508C202.788 248.005 202.819 248.496 202.831 248.987C202.831 249.976 202.923 250.958 203.003 251.94C203.034 252.431 203.095 252.923 203.151 253.414L203.316 254.881C203.464 255.857 203.617 256.827 203.783 257.803L203.445 254.869L203.316 253.395C203.273 252.904 203.224 252.419 203.206 251.928C203.157 250.946 203.077 249.963 203.071 248.981C203.071 248.49 203.034 247.999 203.071 247.508V246.034C203.104 244.07 203.24 242.109 203.476 240.159C203.605 239.182 203.746 238.212 203.943 237.248C204.114 236.282 204.343 235.326 204.63 234.387Z" fill="#37474F"/>
<path d="M202.923 234.633C202.274 235.407 201.731 236.263 201.309 237.181C201.204 237.408 201.088 237.635 200.989 237.869L200.719 238.575L200.584 238.931C200.541 239.047 200.511 239.17 200.474 239.293L200.253 240.017C199.734 241.976 199.482 243.996 199.504 246.022L199.547 247.538L199.706 249.042L199.786 249.798C199.823 250.043 199.872 250.295 199.915 250.54L200.197 252.032C200.244 252.279 200.304 252.523 200.376 252.763L200.572 253.494L200.965 254.955C201.303 255.906 201.634 256.858 201.984 257.803L201.094 254.918L200.738 253.457L200.56 252.72C200.491 252.48 200.438 252.236 200.4 251.989L200.142 250.504C200.105 250.258 200.056 250.012 200.019 249.761L199.946 249.018L199.798 247.52V246.016C199.767 244.013 199.996 242.016 200.48 240.073L200.682 239.348C200.682 239.225 200.744 239.103 200.781 238.986L200.91 238.63L201.161 237.924C201.247 237.691 201.358 237.463 201.456 237.236C201.833 236.31 202.326 235.435 202.923 234.633Z" fill="#37474F"/>
<path d="M201.665 234.952C201.251 235.253 200.867 235.593 200.517 235.965C200.169 236.342 199.847 236.742 199.553 237.162C198.938 237.988 198.421 238.883 198.012 239.827C197.204 241.728 196.787 243.772 196.784 245.838C196.784 246.353 196.815 246.869 196.833 247.385C196.851 247.9 196.925 248.41 197.017 248.913L197.097 249.687L197.257 250.442C197.355 250.946 197.508 251.437 197.643 251.928C198.226 253.893 199.008 255.794 199.976 257.601L199.363 256.201L198.792 254.783L198.276 253.34C198.135 252.849 197.975 252.37 197.846 251.873L197.662 251.136C197.594 250.89 197.539 250.639 197.49 250.393L197.337 249.644L197.22 248.889C197.134 248.392 197.109 247.882 197.048 247.379C196.987 246.875 196.993 246.359 197.011 245.856C197.003 243.821 197.393 241.804 198.159 239.919C198.539 238.975 199.027 238.079 199.614 237.248C200.187 236.391 200.877 235.618 201.665 234.952Z" fill="#37474F"/>
<path d="M206.534 241.38C206.218 241.8 205.928 242.238 205.668 242.694H205.821C205.674 242.43 205.521 242.166 205.355 241.908C205.275 241.779 205.195 241.65 205.109 241.528L204.839 241.153C204.894 241.294 204.962 241.436 205.023 241.571L205.226 241.982C205.367 242.252 205.514 242.522 205.668 242.786L205.748 242.921L205.821 242.786C206.089 242.334 206.327 241.864 206.534 241.38Z" fill="#37474F"/>
<path d="M205.809 240.699C205.737 241.03 205.698 241.367 205.692 241.706C205.674 242.046 205.693 242.388 205.748 242.725C205.827 242.391 205.87 242.049 205.877 241.706C205.887 241.369 205.864 241.031 205.809 240.699Z" fill="#37474F"/>
<path d="M199.706 234.394C199.676 234.919 199.676 235.446 199.706 235.972L199.842 235.886C199.571 235.744 199.301 235.609 199.025 235.48L198.601 235.296L198.178 235.124C198.301 235.216 198.429 235.296 198.558 235.382L198.951 235.615C199.215 235.763 199.485 235.91 199.756 236.045L199.903 236.119V235.959C199.868 235.434 199.802 234.911 199.706 234.394Z" fill="#37474F"/>
<path d="M198.724 234.216C198.844 234.536 198.994 234.845 199.172 235.136C199.346 235.434 199.552 235.712 199.786 235.965C199.542 235.323 199.185 234.731 198.73 234.216H198.724Z" fill="#37474F"/>
<path d="M201.34 239.109C201.075 239.565 200.838 240.037 200.627 240.521H200.787C200.609 240.275 200.419 240.03 200.228 239.79L199.94 239.44C199.835 239.33 199.737 239.213 199.627 239.103C199.7 239.238 199.78 239.367 199.86 239.496C199.94 239.625 200.026 239.753 200.112 239.882C200.278 240.134 200.456 240.386 200.64 240.625L200.732 240.754L200.793 240.613C201.007 240.124 201.189 239.621 201.34 239.109Z" fill="#37474F"/>
<path d="M200.541 238.519C200.508 238.86 200.508 239.204 200.541 239.545C200.565 239.888 200.625 240.227 200.719 240.558C200.753 240.215 200.753 239.869 200.719 239.526C200.694 239.186 200.634 238.848 200.541 238.519Z" fill="#37474F"/>
<path d="M204.305 254.691C203.988 255.113 203.697 255.554 203.433 256.011H203.593C203.445 255.741 203.286 255.483 203.126 255.225C203.046 255.096 202.96 254.967 202.874 254.838C202.788 254.709 202.702 254.586 202.604 254.47C202.666 254.611 202.727 254.746 202.795 254.887C202.862 255.028 202.924 255.163 202.991 255.299C203.132 255.569 203.28 255.839 203.433 256.103L203.513 256.238L203.593 256.103C203.856 255.645 204.093 255.174 204.305 254.691Z" fill="#37474F"/>
<path d="M203.58 253.985C203.431 254.656 203.408 255.349 203.513 256.029C203.654 255.357 203.677 254.665 203.58 253.985Z" fill="#37474F"/>
<path d="M211.218 236.72C211.039 237.215 210.887 237.719 210.764 238.231L210.917 238.182C210.696 237.973 210.475 237.764 210.242 237.568L209.892 237.273L209.53 236.991C209.622 237.113 209.726 237.224 209.824 237.341L210.137 237.678C210.352 237.893 210.567 238.108 210.788 238.292L210.905 238.403L210.942 238.249C211.063 237.745 211.155 237.235 211.218 236.72Z" fill="#37474F"/>
<path d="M210.352 236.272C210.375 236.615 210.433 236.954 210.524 237.285C210.609 237.618 210.728 237.941 210.88 238.249C210.855 237.906 210.796 237.567 210.702 237.236C210.62 236.903 210.503 236.58 210.352 236.272Z" fill="#37474F"/>
<path d="M195.12 242.32C195.145 242.846 195.2 243.371 195.286 243.891L195.409 243.793C195.126 243.683 194.838 243.578 194.549 243.48L194.113 243.345C193.966 243.308 193.819 243.259 193.671 243.228L194.077 243.437L194.494 243.621C194.776 243.744 195.059 243.855 195.347 243.959L195.495 244.014V243.861C195.4 243.34 195.275 242.826 195.12 242.32Z" fill="#37474F"/>
<path d="M194.126 242.264C194.435 242.873 194.851 243.422 195.354 243.885C195.048 243.274 194.632 242.724 194.126 242.264Z" fill="#37474F"/>
<path d="M209.542 248.201C209.219 248.617 208.922 249.052 208.652 249.503H208.811C208.664 249.233 208.517 248.969 208.357 248.711L208.111 248.324C208.019 248.201 207.94 248.072 207.847 247.95C207.903 248.091 207.964 248.232 208.025 248.373C208.087 248.514 208.154 248.649 208.222 248.785C208.357 249.055 208.504 249.325 208.652 249.589L208.732 249.73L208.811 249.595C209.08 249.144 209.324 248.679 209.542 248.201Z" fill="#37474F"/>
<path d="M208.824 247.508C208.741 247.841 208.693 248.183 208.682 248.527C208.665 248.869 208.682 249.213 208.732 249.552C208.815 249.218 208.862 248.877 208.873 248.533C208.887 248.19 208.871 247.847 208.824 247.508Z" fill="#37474F"/>
<path d="M214.988 251.689C214.534 251.954 214.097 252.247 213.68 252.566L213.827 252.628C213.79 252.325 213.747 252.024 213.698 251.725C213.668 251.572 213.643 251.425 213.612 251.271C213.582 251.118 213.551 250.976 213.508 250.829C213.508 250.982 213.508 251.13 213.508 251.283C213.508 251.437 213.508 251.59 213.539 251.744C213.539 252.045 213.594 252.358 213.637 252.652V252.812L213.766 252.714C214.193 252.396 214.601 252.054 214.988 251.689Z" fill="#37474F"/>
<path d="M214.582 250.78C214.189 251.337 213.902 251.961 213.735 252.622C214.122 252.061 214.408 251.438 214.582 250.78Z" fill="#37474F"/>
<path d="M216.338 237.844C215.844 238.021 215.36 238.226 214.889 238.458L215.018 238.55C215.018 238.243 215.055 237.936 215.061 237.635C215.061 237.482 215.061 237.328 215.061 237.175C215.061 237.021 215.061 236.874 215.061 236.72C215.031 236.868 215.006 237.021 214.982 237.169L214.926 237.623C214.889 237.93 214.865 238.237 214.846 238.538V238.697L214.988 238.624C215.452 238.39 215.903 238.129 216.338 237.844Z" fill="#37474F"/>
<path d="M216.129 236.874C215.88 237.11 215.656 237.372 215.46 237.654C215.261 237.934 215.088 238.232 214.945 238.544C215.194 238.305 215.418 238.042 215.614 237.758C215.817 237.483 215.99 237.187 216.129 236.874Z" fill="#37474F"/>
<path d="M197.742 247.845C197.468 248.293 197.22 248.756 196.999 249.233H197.158C196.987 248.981 196.802 248.736 196.618 248.496L196.336 248.134C196.231 248.023 196.139 247.901 196.029 247.79L196.256 248.189L196.495 248.582C196.661 248.84 196.833 249.092 197.005 249.337L197.103 249.466L197.165 249.325C197.385 248.843 197.578 248.349 197.742 247.845Z" fill="#37474F"/>
<path d="M196.956 247.231C196.922 247.572 196.922 247.916 196.956 248.257C196.973 248.601 197.026 248.943 197.116 249.276C197.192 248.592 197.148 247.9 196.987 247.231H196.956Z" fill="#37474F"/>
<path d="M206.098 234.952C206.098 234.952 210.358 231.735 208.455 230.28C207.798 229.777 206.319 231.373 206.098 233.16C205.883 231.373 204.403 229.777 203.74 230.28C201.837 231.711 206.098 234.952 206.098 234.952Z" fill="#4CAF50"/>
<path opacity="0.2" d="M206.098 234.952C206.098 234.952 210.358 231.735 208.455 230.28C207.798 229.777 206.319 231.373 206.098 233.16C205.883 231.373 204.403 229.777 203.74 230.28C201.837 231.711 206.098 234.952 206.098 234.952Z" fill="black"/>
<path d="M206.098 234.952C208.67 234.952 210.579 232.607 209.996 231.588C209.333 230.421 207.025 233.16 207.025 233.16C207.025 233.16 207.884 229.292 206.098 229.292C204.311 229.292 205.177 233.16 205.177 233.16C205.177 233.16 202.862 230.421 202.199 231.588C201.616 232.583 203.525 234.952 206.098 234.952Z" fill="#4CAF50"/>
<path d="M194.39 251.971H216.866L214.601 270.764H196.649L194.39 251.971Z" fill="#4CAF50"/>
<path opacity="0.1" d="M194.39 251.971L194.899 256.213L216.48 255.176L216.866 251.971H194.39Z" fill="black"/>
<path d="M218.278 249.601H192.978V252.959H218.278V249.601Z" fill="#4CAF50"/>
<path d="M238.41 200.51C238.41 200.51 233.338 196.679 235.604 194.947C236.39 194.333 238.152 196.255 238.41 198.379C238.674 196.255 240.436 194.346 241.222 194.947C243.487 196.679 238.41 200.51 238.41 200.51Z" fill="#4CAF50"/>
<path opacity="0.2" d="M238.41 200.51C238.41 200.51 233.338 196.679 235.604 194.947C236.39 194.333 238.152 196.255 238.41 198.379C238.674 196.255 240.436 194.346 241.222 194.947C243.487 196.679 238.41 200.51 238.41 200.51Z" fill="black"/>
<path d="M238.41 200.51C235.34 200.51 233.075 197.722 233.768 196.501C234.56 195.119 237.311 198.379 237.311 198.379C237.311 198.379 236.285 193.775 238.41 193.775C240.534 193.775 239.515 198.379 239.515 198.379C239.515 198.379 242.265 195.119 243.057 196.501C243.757 197.722 241.473 200.51 238.41 200.51Z" fill="#4CAF50"/>
<path d="M229.753 233.399L229.262 244.561C227.42 244.726 221.238 242.989 218.26 240.011C216.019 237.776 216.608 230.833 217.849 222.237C219.089 213.642 221.569 212.641 223.638 213.139C224.118 213.25 224.565 213.475 224.94 213.796C226.039 214.753 226.505 216.54 226.696 218.842C226.941 221.912 225.701 229.924 226.033 231.827C226.069 232.066 226.159 232.294 226.295 232.493C226.431 232.693 226.61 232.86 226.818 232.982C227.795 233.565 229.274 233.399 229.753 233.399Z" fill="#263238"/>
<path d="M246.864 248.883C246.864 248.883 238.06 252.106 228.881 248.883C228.881 248.883 229.747 213.403 230.864 207.454C231.982 201.504 234.505 198.643 238.557 198.643C238.818 198.642 239.078 198.656 239.337 198.686C242.56 199.024 244.813 201.498 245.476 206.213C246.004 209.817 246.471 229.777 246.704 241.08C246.827 245.709 246.864 248.883 246.864 248.883Z" fill="#263238"/>
<path d="M257.491 228.702C254.514 231.68 248.313 233.418 246.495 233.252L245.998 222.09C246.68 222.09 249.387 222.416 249.719 220.518C250.05 218.621 248.81 210.597 249.056 207.533C249.301 204.47 250.05 202.321 252.125 201.83C252.299 201.786 252.475 201.755 252.653 201.738C254.599 201.547 256.779 203.045 257.915 210.947C258.455 214.741 258.879 218.21 258.983 221.096C259.106 224.73 258.744 227.456 257.491 228.702Z" fill="#263238"/>
<path d="M238.41 198.625C238.548 198.619 238.684 198.66 238.796 198.742C238.911 198.817 239.012 198.91 239.097 199.018C239.276 199.226 239.428 199.455 239.552 199.699C239.798 200.187 240.004 200.694 240.166 201.216C240.478 202.261 240.724 203.326 240.902 204.402C241.258 206.557 241.461 208.7 241.614 210.898C241.768 213.096 241.829 215.245 241.866 217.418L241.989 223.938C242.038 228.279 242.106 232.625 242.13 236.972L242.161 243.492C242.161 245.666 242.161 247.839 242.161 250.012C242.069 247.839 242.014 245.666 241.94 243.492L241.768 236.978C241.664 232.632 241.596 228.285 241.516 223.944C241.436 219.604 241.467 215.251 241.252 210.916C241.148 208.749 240.988 206.588 240.681 204.439C240.544 203.365 240.339 202.301 240.067 201.253C239.925 200.732 239.742 200.223 239.521 199.73C239.405 199.488 239.265 199.257 239.103 199.042C239.02 198.934 238.923 198.837 238.815 198.754C238.701 198.661 238.556 198.615 238.41 198.625Z" fill="#455A64"/>
<path d="M244.801 249.448C244.746 247.274 244.709 245.095 244.672 242.921L244.574 236.401L244.439 223.367C244.439 221.194 244.383 219.02 244.328 216.847L244.291 215.22L244.23 213.593C244.175 212.512 244.095 211.426 244.003 210.345C243.911 209.265 243.794 208.19 243.634 207.116C243.492 206.043 243.287 204.979 243.02 203.929C242.759 202.876 242.346 201.867 241.793 200.933C241.513 200.47 241.175 200.045 240.786 199.669C240.389 199.299 239.938 198.992 239.447 198.76C239.948 198.977 240.413 199.271 240.823 199.632C241.226 199.992 241.579 200.405 241.872 200.86C242.443 201.794 242.877 202.805 243.162 203.862C243.726 205.971 244.1 208.126 244.279 210.302C244.5 212.463 244.654 214.643 244.733 216.816C244.813 218.99 244.856 221.163 244.893 223.343C244.93 225.522 244.954 227.689 244.961 229.863V236.383L244.899 242.903C244.899 245.095 244.862 247.274 244.801 249.448Z" fill="#455A64"/>
<path d="M238.41 198.625C238.276 198.623 238.145 198.669 238.041 198.754C237.933 198.837 237.836 198.934 237.753 199.042C237.591 199.257 237.452 199.488 237.335 199.73C237.114 200.223 236.931 200.732 236.789 201.253C236.518 202.301 236.313 203.365 236.175 204.439C235.868 206.588 235.708 208.737 235.604 210.916C235.389 215.251 235.408 219.597 235.34 223.944C235.272 228.291 235.193 232.632 235.088 236.978L234.916 243.492C234.843 245.666 234.787 247.839 234.695 250.012C234.695 247.839 234.695 245.666 234.695 243.492L234.726 236.972C234.726 232.625 234.818 228.279 234.867 223.938L234.99 217.418C235.027 215.245 235.082 213.065 235.242 210.898C235.401 208.731 235.598 206.557 235.954 204.402C236.132 203.326 236.378 202.261 236.691 201.216C236.853 200.694 237.058 200.187 237.305 199.699C237.428 199.456 237.578 199.227 237.753 199.018C237.841 198.912 237.945 198.819 238.06 198.742C238.16 198.665 238.283 198.624 238.41 198.625Z" fill="#455A64"/>
<path d="M232.025 249.448C231.963 247.274 231.927 245.095 231.89 242.921L231.834 236.401V229.881C231.834 227.708 231.834 225.534 231.902 223.361C231.97 221.188 231.994 219.008 232.062 216.835C232.129 214.661 232.295 212.482 232.51 210.321C232.694 208.145 233.07 205.99 233.633 203.88C233.916 202.824 234.348 201.813 234.917 200.878C235.214 200.425 235.569 200.012 235.973 199.65C236.382 199.289 236.847 198.995 237.348 198.778C236.857 199.01 236.406 199.317 236.009 199.687C235.62 200.063 235.282 200.488 235.002 200.952C234.449 201.885 234.036 202.895 233.775 203.948C233.508 204.997 233.303 206.061 233.161 207.134C233.001 208.209 232.884 209.283 232.792 210.364C232.7 211.444 232.62 212.531 232.565 213.611L232.504 215.238L232.467 216.865C232.41 219.039 232.373 221.212 232.356 223.386L232.221 236.42L232.154 242.934C232.092 245.095 232.092 247.274 232.025 249.448Z" fill="#455A64"/>
<path d="M238.41 250.301C238.354 248.146 238.33 246.003 238.293 243.842L238.232 237.408C238.189 233.111 238.189 228.813 238.17 224.515C238.152 220.218 238.17 215.92 238.225 211.622L238.299 205.164C238.336 203.009 238.361 200.866 238.416 198.705C238.477 200.854 238.502 203.002 238.539 205.164L238.612 211.622C238.649 215.92 238.649 220.218 238.668 224.515C238.686 228.813 238.668 233.111 238.606 237.408L238.539 243.867C238.489 246.003 238.471 248.14 238.41 250.301Z" fill="#455A64"/>
<path d="M223.638 213.139C223.866 213.319 224.072 213.525 224.252 213.753C224.416 213.99 224.556 214.243 224.67 214.508C224.879 215.044 225.025 215.602 225.106 216.172C225.255 217.307 225.306 218.453 225.259 219.597C225.174 221.872 224.969 224.141 224.645 226.394C224.469 227.506 224.35 228.627 224.289 229.752C224.21 230.865 224.293 231.984 224.535 233.074C224.661 233.607 224.884 234.112 225.191 234.565C225.344 234.791 225.523 234.997 225.726 235.179C225.933 235.359 226.16 235.516 226.401 235.646C226.897 235.904 227.429 236.088 227.979 236.192C228.531 236.297 229.09 236.364 229.661 236.42C229.091 236.424 228.52 236.391 227.954 236.321C227.38 236.25 226.819 236.095 226.29 235.861C225.753 235.611 225.285 235.234 224.927 234.762C224.556 234.289 224.279 233.749 224.111 233.172C223.826 232.049 223.71 230.89 223.767 229.734C223.821 228.603 223.936 227.476 224.111 226.357C224.271 225.236 224.414 224.112 224.541 222.986C224.67 221.863 224.774 220.733 224.842 219.61C224.927 218.486 224.927 217.357 224.842 216.233C224.8 215.674 224.693 215.122 224.522 214.588C224.352 214.039 224.049 213.541 223.638 213.139Z" fill="#455A64"/>
<path d="M223.251 213.034C223.071 213.079 222.904 213.167 222.766 213.292C222.627 213.415 222.5 213.551 222.386 213.697C222.159 213.994 221.964 214.313 221.803 214.649C221.487 215.322 221.235 216.023 221.047 216.743C220.672 218.187 220.397 219.656 220.225 221.138C219.862 224.11 219.519 227.088 219.427 230.065C219.358 231.549 219.42 233.037 219.611 234.51C219.705 235.235 219.893 235.945 220.169 236.622C220.467 237.278 220.883 237.874 221.397 238.378C222.477 239.391 223.723 240.209 225.081 240.797C226.444 241.414 227.871 241.879 229.336 242.185C227.844 241.972 226.382 241.583 224.983 241.024C223.564 240.473 222.256 239.67 221.121 238.654C220.543 238.139 220.073 237.512 219.74 236.813C219.44 236.103 219.234 235.358 219.126 234.596C218.915 233.096 218.841 231.579 218.905 230.065C219.04 227.062 219.345 224.07 219.819 221.102C220.031 219.607 220.357 218.131 220.796 216.687C221.022 215.966 221.314 215.268 221.667 214.6C221.837 214.267 222.043 213.954 222.281 213.667C222.403 213.522 222.541 213.393 222.693 213.28C222.853 213.149 223.046 213.064 223.251 213.034Z" fill="#455A64"/>
<path d="M252.181 201.83C251.776 202.222 251.473 202.707 251.297 203.242C251.124 203.778 251.015 204.332 250.971 204.893C250.891 206.018 250.891 207.146 250.971 208.27C251.039 209.394 251.143 210.523 251.278 211.647C251.413 212.77 251.548 213.894 251.708 215.017C251.878 216.147 251.988 217.284 252.04 218.425C252.103 219.582 251.987 220.742 251.696 221.863C251.541 222.433 251.283 222.97 250.934 223.447C250.756 223.676 250.549 223.882 250.32 224.061C250.094 224.248 249.845 224.405 249.578 224.528C249.048 224.761 248.488 224.916 247.914 224.988C247.351 225.072 246.782 225.119 246.213 225.129C246.778 225.074 247.343 225.006 247.895 224.896C248.446 224.794 248.978 224.61 249.473 224.349C249.714 224.222 249.939 224.065 250.142 223.883C250.351 223.705 250.533 223.499 250.683 223.269C250.989 222.816 251.21 222.31 251.333 221.777C251.578 220.69 251.662 219.573 251.585 218.462C251.536 217.338 251.389 216.227 251.229 215.103C250.905 212.848 250.7 210.578 250.615 208.301C250.571 207.159 250.623 206.015 250.769 204.881C250.852 204.311 251 203.753 251.211 203.217C251.32 202.951 251.458 202.698 251.622 202.462C251.781 202.229 251.968 202.016 252.181 201.83Z" fill="#455A64"/>
<path d="M252.561 201.725C252.749 201.757 252.925 201.837 253.071 201.959C253.223 202.073 253.363 202.203 253.488 202.346C253.726 202.633 253.932 202.946 254.102 203.279C254.454 203.947 254.744 204.645 254.968 205.366C255.406 206.808 255.732 208.282 255.944 209.774C256.418 212.745 256.723 215.739 256.859 218.744C256.928 220.262 256.858 221.782 256.65 223.287C256.542 224.048 256.336 224.791 256.036 225.498C255.704 226.196 255.237 226.822 254.661 227.339C253.524 228.355 252.214 229.158 250.793 229.709C249.395 230.266 247.936 230.655 246.446 230.87C247.911 230.563 249.337 230.097 250.701 229.482C252.061 228.881 253.307 228.05 254.385 227.026C254.904 226.526 255.321 225.93 255.613 225.27C255.89 224.596 256.077 223.888 256.171 223.165C256.364 221.691 256.428 220.204 256.362 218.72C256.269 215.742 255.92 212.764 255.563 209.793C255.389 208.31 255.112 206.841 254.735 205.397C254.548 204.677 254.295 203.976 253.979 203.303C253.82 202.967 253.626 202.649 253.402 202.352C253.288 202.205 253.161 202.069 253.022 201.946C252.888 201.837 252.73 201.762 252.561 201.725Z" fill="#455A64"/>
<path d="M232.025 204.869C232.281 205.184 232.513 205.519 232.718 205.87C232.829 206.041 232.921 206.219 233.019 206.391C233.117 206.563 233.203 206.747 233.289 206.926L232.878 206.876C233.007 206.723 233.136 206.569 233.271 206.422C233.406 206.275 233.541 206.127 233.688 205.986C233.974 205.694 234.282 205.425 234.609 205.182C234.433 205.547 234.227 205.898 233.995 206.232C233.885 206.404 233.756 206.557 233.639 206.723C233.523 206.889 233.394 207.042 233.265 207.196L233.019 207.496L232.853 207.147C232.768 206.962 232.682 206.778 232.602 206.594C232.522 206.41 232.442 206.226 232.375 206.035C232.226 205.657 232.109 205.267 232.025 204.869Z" fill="#455A64"/>
<path d="M233.406 204.292C233.472 204.522 233.51 204.759 233.517 204.998C233.522 205.229 233.512 205.461 233.486 205.692C233.457 205.922 233.41 206.15 233.345 206.373C233.281 206.605 233.189 206.828 233.069 207.036C233.002 206.804 232.965 206.565 232.958 206.324C232.943 206.093 232.943 205.861 232.958 205.63C232.987 205.402 233.034 205.176 233.099 204.955C233.172 204.721 233.275 204.498 233.406 204.292Z" fill="#455A64"/>
<path d="M240.749 239.041C241.041 239.324 241.31 239.63 241.553 239.956C241.682 240.11 241.793 240.275 241.916 240.441L242.247 240.938H241.83L242.167 240.441C242.29 240.281 242.401 240.116 242.529 239.962C242.779 239.638 243.054 239.334 243.352 239.054C243.217 239.439 243.05 239.812 242.855 240.171C242.769 240.349 242.658 240.521 242.56 240.699C242.462 240.877 242.351 241.043 242.247 241.208L242.032 241.534L241.83 241.208C241.719 241.037 241.615 240.865 241.516 240.693C241.418 240.515 241.32 240.343 241.228 240.159C241.036 239.801 240.876 239.427 240.749 239.041Z" fill="#455A64"/>
<path d="M242.051 238.304C242.144 238.526 242.208 238.76 242.241 238.998C242.279 239.227 242.295 239.46 242.29 239.692C242.29 239.924 242.271 240.156 242.235 240.386C242.201 240.623 242.135 240.854 242.038 241.073C241.944 240.852 241.88 240.618 241.848 240.38C241.81 240.15 241.794 239.918 241.799 239.686C241.799 239.456 241.817 239.226 241.854 238.998C241.891 238.76 241.957 238.527 242.051 238.304Z" fill="#455A64"/>
<path d="M241.301 196.998C241.442 197.379 241.551 197.772 241.627 198.171C241.67 198.373 241.7 198.57 241.731 198.785C241.762 199 241.793 199.184 241.811 199.399L241.443 199.214C241.615 199.11 241.786 199.012 241.964 198.92C242.142 198.828 242.321 198.729 242.505 198.643C242.869 198.464 243.246 198.314 243.634 198.195C243.347 198.482 243.034 198.743 242.701 198.975C242.542 199.098 242.37 199.208 242.204 199.319C242.038 199.429 241.866 199.54 241.694 199.638L241.363 199.841L241.32 199.454C241.32 199.257 241.283 199.055 241.271 198.84C241.258 198.625 241.24 198.435 241.271 198.226C241.247 197.817 241.257 197.406 241.301 196.998Z" fill="#455A64"/>
<path d="M242.793 196.887C242.778 197.128 242.733 197.365 242.658 197.593C242.59 197.815 242.504 198.031 242.4 198.238C242.298 198.452 242.179 198.657 242.044 198.852C241.906 199.05 241.743 199.23 241.559 199.386C241.575 199.146 241.62 198.909 241.694 198.68C241.763 198.458 241.852 198.242 241.958 198.036C242.056 197.819 242.175 197.614 242.314 197.422C242.449 197.222 242.61 197.043 242.793 196.887Z" fill="#455A64"/>
<path d="M259.536 217.909C259.531 218.321 259.494 218.731 259.425 219.137C259.425 219.34 259.352 219.536 259.315 219.751C259.278 219.966 259.223 220.144 259.174 220.334L258.891 220.027L259.505 219.941C259.708 219.941 259.904 219.886 260.119 219.874C260.528 219.842 260.938 219.842 261.347 219.874C260.976 220.039 260.592 220.172 260.199 220.273C260.002 220.334 259.806 220.371 259.585 220.42L258.971 220.537L258.59 220.604L258.689 220.23C258.744 220.039 258.793 219.843 258.854 219.653C258.916 219.462 258.971 219.266 259.045 219.082C259.176 218.678 259.34 218.286 259.536 217.909Z" fill="#455A64"/>
<path d="M260.948 218.376C260.85 218.596 260.724 218.802 260.573 218.99C260.285 219.352 259.943 219.669 259.56 219.929C259.37 220.063 259.164 220.172 258.946 220.254C259.045 220.035 259.171 219.829 259.321 219.64C259.467 219.462 259.625 219.294 259.794 219.137C259.965 218.978 260.147 218.833 260.34 218.701C260.529 218.569 260.733 218.46 260.948 218.376Z" fill="#455A64"/>
<path d="M249.799 213.753C250.152 213.957 250.489 214.189 250.805 214.446C250.965 214.569 251.112 214.704 251.266 214.833C251.419 214.962 251.567 215.097 251.714 215.238L251.309 215.337C251.376 215.146 251.444 214.956 251.518 214.772C251.591 214.588 251.665 214.397 251.751 214.213C251.914 213.84 252.107 213.481 252.328 213.139C252.295 213.553 252.225 213.964 252.119 214.367C252.076 214.563 252.015 214.753 251.96 214.95C251.904 215.146 251.843 215.33 251.776 215.521L251.653 215.889L251.37 215.619C251.229 215.478 251.082 215.343 250.947 215.195C250.812 215.048 250.664 214.907 250.535 214.747C250.262 214.437 250.016 214.104 249.799 213.753Z" fill="#455A64"/>
<path d="M250.891 212.727C251.034 212.916 251.152 213.123 251.241 213.341C251.42 213.77 251.529 214.223 251.567 214.686C251.6 214.924 251.6 215.166 251.567 215.404C251.425 215.215 251.308 215.008 251.217 214.79C251.124 214.577 251.052 214.355 251.002 214.127C250.947 213.903 250.908 213.675 250.885 213.446C250.857 213.207 250.859 212.966 250.891 212.727Z" fill="#455A64"/>
<path d="M250.713 200.062C251.073 200.265 251.416 200.497 251.739 200.755C251.898 200.872 252.046 201.007 252.199 201.136L252.647 201.541L252.242 201.639C252.31 201.455 252.377 201.265 252.451 201.075C252.525 200.884 252.598 200.706 252.684 200.522C252.847 200.149 253.04 199.79 253.261 199.448C253.228 199.862 253.158 200.273 253.053 200.676C253.01 200.872 252.948 201.062 252.893 201.253C252.838 201.443 252.776 201.639 252.709 201.83L252.586 202.198L252.304 201.928L251.88 201.504C251.745 201.357 251.604 201.21 251.469 201.056C251.19 200.746 250.938 200.413 250.713 200.062Z" fill="#455A64"/>
<path d="M251.806 199.036C251.949 199.225 252.066 199.431 252.156 199.65C252.334 200.079 252.444 200.532 252.482 200.995C252.515 201.233 252.515 201.475 252.482 201.713C252.34 201.523 252.223 201.317 252.132 201.099C252.04 200.885 251.968 200.663 251.917 200.436C251.862 200.212 251.824 199.984 251.8 199.755C251.772 199.516 251.774 199.274 251.806 199.036Z" fill="#455A64"/>
<path d="M242.91 210.069C243.221 210.331 243.513 210.617 243.782 210.922C243.917 211.07 244.04 211.229 244.169 211.383C244.297 211.536 244.42 211.696 244.543 211.856L244.126 211.886C244.224 211.708 244.322 211.536 244.426 211.364C244.531 211.193 244.635 211.021 244.758 210.861C244.979 210.518 245.23 210.196 245.507 209.897C245.4 210.29 245.263 210.674 245.096 211.045C245.016 211.236 244.924 211.414 244.838 211.592C244.752 211.77 244.654 211.948 244.555 212.126L244.371 212.47L244.144 212.15C244.021 211.991 243.905 211.831 243.794 211.659C243.683 211.487 243.573 211.328 243.469 211.15C243.252 210.806 243.065 210.444 242.91 210.069Z" fill="#455A64"/>
<path d="M244.162 209.246C244.27 209.461 244.351 209.687 244.402 209.922C244.45 210.148 244.483 210.378 244.5 210.609C244.519 210.84 244.519 211.072 244.5 211.303C244.481 211.542 244.431 211.777 244.353 212.003C244.245 211.789 244.165 211.562 244.113 211.328C244.062 211.101 244.029 210.871 244.015 210.64C244 210.409 244 210.177 244.015 209.946C244.032 209.707 244.081 209.472 244.162 209.246Z" fill="#455A64"/>
<path d="M227.93 214.692C228.344 214.727 228.754 214.795 229.158 214.895C229.354 214.938 229.544 214.999 229.741 215.048L230.312 215.226L229.986 215.49C229.986 215.287 229.95 215.091 229.937 214.876C229.925 214.661 229.937 214.477 229.937 214.262C229.926 213.852 229.949 213.441 230.005 213.034C230.143 213.418 230.249 213.812 230.324 214.213C230.367 214.41 230.392 214.612 230.422 214.827C230.453 215.042 230.478 215.226 230.502 215.441L230.539 215.828L230.177 215.705L229.606 215.496C229.422 215.423 229.231 215.355 229.053 215.269C228.663 215.108 228.287 214.915 227.93 214.692Z" fill="#455A64"/>
<path d="M228.482 213.311C228.695 213.424 228.892 213.567 229.065 213.734C229.237 213.888 229.395 214.057 229.538 214.238C229.684 214.42 229.815 214.613 229.931 214.815C230.051 215.023 230.144 215.246 230.207 215.478C229.996 215.362 229.8 215.219 229.624 215.054C229.454 214.899 229.296 214.73 229.151 214.551C229.008 214.369 228.878 214.176 228.765 213.974C228.64 213.767 228.545 213.544 228.482 213.311Z" fill="#455A64"/>
<path d="M215.608 223.545C216.022 223.58 216.432 223.648 216.836 223.748C217.032 223.791 217.222 223.852 217.419 223.901L217.99 224.079L217.664 224.337C217.664 224.141 217.628 223.938 217.615 223.723C217.603 223.508 217.615 223.318 217.615 223.109C217.604 222.699 217.626 222.288 217.683 221.881C217.821 222.265 217.927 222.659 218.002 223.06C218.045 223.257 218.07 223.459 218.106 223.674L218.18 224.288L218.223 224.675L217.855 224.552L217.29 224.343L216.731 224.116C216.342 223.956 215.966 223.765 215.608 223.545Z" fill="#455A64"/>
<path d="M216.16 222.151C216.372 222.265 216.568 222.405 216.743 222.569C216.914 222.727 217.072 222.897 217.216 223.079C217.363 223.257 217.495 223.448 217.609 223.65C217.728 223.859 217.822 224.082 217.891 224.313C217.669 224.202 217.462 224.061 217.278 223.895C217.108 223.739 216.95 223.571 216.805 223.392C216.663 223.208 216.534 223.015 216.418 222.815C216.302 222.607 216.215 222.383 216.16 222.151Z" fill="#455A64"/>
<path d="M237.108 218.234C237.404 218.515 237.677 218.819 237.925 219.143C238.054 219.303 238.164 219.469 238.281 219.628C238.397 219.788 238.514 219.96 238.618 220.125H238.232C238.342 219.96 238.453 219.788 238.569 219.628C238.686 219.469 238.803 219.297 238.932 219.143C239.177 218.817 239.45 218.513 239.748 218.234C239.612 218.618 239.448 218.992 239.257 219.352C239.171 219.536 239.061 219.708 238.968 219.88C238.876 220.052 238.76 220.224 238.649 220.396L238.44 220.721L238.232 220.396L237.919 219.88C237.82 219.708 237.716 219.536 237.63 219.352C237.429 218.993 237.254 218.619 237.108 218.234Z" fill="#455A64"/>
<path d="M238.41 217.492C238.506 217.713 238.572 217.946 238.606 218.185C238.68 218.643 238.68 219.109 238.606 219.567C238.572 219.806 238.506 220.039 238.41 220.26C238.318 220.038 238.254 219.805 238.22 219.567C238.146 219.109 238.146 218.643 238.22 218.185C238.254 217.947 238.318 217.714 238.41 217.492Z" fill="#455A64"/>
<path d="M223.497 241.264C223.901 241.176 224.312 241.123 224.725 241.104C224.927 241.104 225.124 241.104 225.339 241.104H225.953L225.719 241.448C225.64 241.264 225.566 241.073 225.492 240.889C225.418 240.705 225.357 240.515 225.296 240.318C225.165 239.932 225.067 239.536 225.001 239.133C225.245 239.459 225.463 239.804 225.652 240.165C225.75 240.343 225.836 240.527 225.928 240.705C226.02 240.883 226.094 241.067 226.174 241.251L226.327 241.608H225.94H225.326L224.712 241.552C224.3 241.49 223.893 241.394 223.497 241.264Z" fill="#455A64"/>
<path d="M223.601 239.772C223.838 239.817 224.067 239.893 224.283 239.999C224.496 240.097 224.701 240.212 224.897 240.343C225.09 240.472 225.272 240.616 225.443 240.773C225.619 240.937 225.774 241.123 225.904 241.325C225.668 241.279 225.439 241.203 225.222 241.098C225.009 241 224.804 240.885 224.608 240.754C224.416 240.624 224.235 240.479 224.068 240.318C223.889 240.158 223.732 239.974 223.601 239.772Z" fill="#455A64"/>
<path d="M223.638 220.04C223.932 220.32 224.203 220.624 224.449 220.948C224.578 221.108 224.688 221.274 224.811 221.433C224.934 221.593 225.038 221.765 225.148 221.931H224.725C224.835 221.765 224.946 221.593 225.063 221.433C225.179 221.274 225.29 221.102 225.419 220.948C225.666 220.624 225.939 220.32 226.235 220.04C226.104 220.426 225.94 220.799 225.744 221.157C225.658 221.341 225.554 221.507 225.455 221.685C225.357 221.863 225.247 222.029 225.142 222.201L224.934 222.526L224.725 222.201C224.614 222.029 224.51 221.863 224.412 221.685C224.314 221.507 224.209 221.341 224.117 221.157C223.928 220.798 223.768 220.424 223.638 220.04Z" fill="#455A64"/>
<path d="M224.94 219.297C225.034 219.518 225.098 219.752 225.13 219.99C225.204 220.448 225.204 220.914 225.13 221.372C225.098 221.611 225.034 221.844 224.94 222.066C224.843 221.844 224.777 221.611 224.743 221.372C224.67 220.914 224.67 220.448 224.743 219.99C224.78 219.752 224.846 219.519 224.94 219.297Z" fill="#455A64"/>
<path d="M252.905 226.412C252.949 226.82 252.96 227.231 252.936 227.64C252.936 227.843 252.936 228.039 252.899 228.254C252.862 228.469 252.856 228.653 252.832 228.868L252.512 228.598L253.096 228.438C253.292 228.395 253.482 228.34 253.709 228.303C254.114 228.216 254.524 228.161 254.937 228.138C254.589 228.347 254.224 228.526 253.845 228.672C253.66 228.758 253.464 228.819 253.28 228.887L252.709 229.077L252.334 229.187L252.389 228.807C252.389 228.604 252.445 228.408 252.482 228.193C252.518 227.978 252.555 227.794 252.604 227.579C252.673 227.183 252.774 226.793 252.905 226.412Z" fill="#455A64"/>
<path d="M254.379 226.695C254.309 226.924 254.207 227.143 254.078 227.345C253.957 227.543 253.821 227.732 253.672 227.91C253.52 228.085 253.356 228.249 253.181 228.401C252.994 228.559 252.788 228.693 252.567 228.801C252.635 228.57 252.737 228.351 252.868 228.15C252.989 227.952 253.125 227.763 253.273 227.585C253.426 227.411 253.59 227.247 253.765 227.094C253.952 226.936 254.158 226.802 254.379 226.695Z" fill="#455A64"/>
<path d="M233.504 232.619C233.799 232.901 234.072 233.205 234.321 233.528C234.45 233.688 234.56 233.853 234.677 234.013L235.015 234.51H234.597L234.935 234.013C235.058 233.853 235.168 233.688 235.297 233.528C235.544 233.204 235.817 232.9 236.114 232.619C235.978 233.003 235.813 233.377 235.623 233.737C235.53 233.921 235.426 234.093 235.334 234.265C235.242 234.437 235.125 234.615 235.015 234.78L234.806 235.112L234.597 234.78L234.284 234.265C234.186 234.093 234.082 233.921 233.996 233.737C233.8 233.379 233.635 233.005 233.504 232.619Z" fill="#455A64"/>
<path d="M234.806 231.883C234.902 232.104 234.968 232.337 235.002 232.576C235.039 232.806 235.058 233.038 235.058 233.27C235.057 233.502 235.039 233.734 235.002 233.964C234.968 234.201 234.902 234.432 234.806 234.651C234.711 234.432 234.647 234.201 234.616 233.964C234.579 233.734 234.561 233.502 234.56 233.27C234.56 233.038 234.579 232.806 234.616 232.576C234.651 232.338 234.715 232.105 234.806 231.883Z" fill="#455A64"/>
<path d="M217.855 231.269C218.153 231.548 218.426 231.852 218.671 232.177C218.8 232.331 218.911 232.497 219.034 232.662C219.156 232.828 219.261 232.994 219.371 233.16H218.954C219.058 232.994 219.169 232.822 219.285 232.662C219.402 232.503 219.519 232.331 219.647 232.177C219.893 231.852 220.166 231.548 220.464 231.269C220.333 231.655 220.169 232.029 219.973 232.386C219.887 232.57 219.783 232.736 219.684 232.914L219.371 233.43L219.162 233.755L218.954 233.43C218.843 233.258 218.739 233.086 218.634 232.914C218.53 232.742 218.438 232.564 218.346 232.386C218.155 232.026 217.991 231.653 217.855 231.269Z" fill="#455A64"/>
<path d="M219.162 230.495C219.254 230.718 219.318 230.951 219.353 231.189C219.426 231.646 219.426 232.113 219.353 232.57C219.321 232.809 219.257 233.042 219.162 233.264C219.066 233.043 219 232.809 218.966 232.57C218.892 232.113 218.892 231.646 218.966 231.189C219 230.95 219.066 230.716 219.162 230.495Z" fill="#455A64"/>
<path d="M219.684 217.295C219.684 217.295 214.969 217.295 215.534 215.257C215.731 214.551 217.628 214.895 218.727 216.037C217.935 214.661 218.113 212.746 218.862 212.752C220.974 212.764 219.684 217.295 219.684 217.295Z" fill="#4CAF50"/>
<path opacity="0.2" d="M219.684 217.295C219.684 217.295 214.969 217.295 215.534 215.257C215.731 214.551 217.628 214.895 218.727 216.037C217.935 214.661 218.113 212.746 218.862 212.752C220.974 212.764 219.684 217.295 219.684 217.295Z" fill="black"/>
<path d="M219.684 217.295C217.842 218.664 215.276 218.026 215.147 217.001C214.994 215.828 218.076 216.528 218.076 216.528C218.076 216.528 215.411 214.262 216.676 213.311C217.941 212.359 219.383 215.545 219.383 215.545C219.383 215.545 219.555 212.384 220.642 212.85C221.594 213.262 221.495 215.92 219.684 217.295Z" fill="#4CAF50"/>
<path d="M255.637 205.053C255.637 205.053 253.181 201.044 255.183 200.455C255.889 200.246 256.595 202.039 256.208 203.573C256.957 202.174 258.664 201.326 259.069 201.953C260.168 203.758 255.637 205.053 255.637 205.053Z" fill="#4CAF50"/>
<path opacity="0.2" d="M255.637 205.053C255.637 205.053 253.181 201.044 255.183 200.455C255.889 200.246 256.595 202.039 256.208 203.573C256.957 202.174 258.664 201.326 259.069 201.953C260.168 203.758 255.637 205.053 255.637 205.053Z" fill="black"/>
<path d="M255.637 205.053C253.519 204.23 252.696 201.695 253.501 201.038C254.415 200.289 255.447 203.285 255.447 203.285C255.447 203.285 255.969 199.822 257.436 200.393C258.903 200.964 256.969 203.868 256.969 203.868C256.969 203.868 259.745 202.352 259.923 203.518C260.076 204.55 257.755 205.87 255.637 205.053Z" fill="#4CAF50"/>
<path d="M224.326 249.386H249.897L247.318 270.764H226.904L224.326 249.386Z" fill="#4CAF50"/>
<path opacity="0.1" d="M224.326 249.386L224.909 254.212L249.455 253.027L249.897 249.386H224.326Z" fill="black"/>
<path d="M251.505 246.685H222.723V250.51H251.505V246.685Z" fill="#4CAF50"/>
</g>
<defs>
<linearGradient id="paint0_linear_304_3157" x1="140" y1="21.0034" x2="140" y2="201.013" gradientUnits="userSpaceOnUse">
<stop stop-color="#FFD35B"/>
<stop offset="1" stop-color="#FFBB02"/>
</linearGradient>
<clipPath id="clip0_304_3157">
<rect width="250" height="263.046" fill="white" transform="translate(15 8)"/>
</clipPath>
</defs>
</svg>
