<svg width="48" height="48" viewBox="0 0 48 48" fill="none" xmlns="http://www.w3.org/2000/svg">
<path fill-rule="evenodd" clip-rule="evenodd" d="M14.1142 9.87746L23.9992 19.7631L33.8858 9.87746C35.0557 8.70751 36.9526 8.70751 38.1225 9.87746C39.2925 11.0474 39.2925 12.9443 38.1225 14.1142L28.2363 23.9992L38.1225 33.8858C39.2925 35.0557 39.2925 36.9526 38.1225 38.1225C36.9526 39.2925 35.0557 39.2925 33.8858 38.1225L23.9992 28.2363L14.1142 38.1225C12.9443 39.2925 11.0474 39.2925 9.87746 38.1225C8.70751 36.9526 8.70751 35.0557 9.87746 33.8858L19.7631 23.9992L9.87746 14.1142C8.70751 12.9443 8.70751 11.0474 9.87746 9.87746C11.0474 8.70751 12.9443 8.70751 14.1142 9.87746Z" fill="#333333"/>
</svg>
 