<svg width="24" height="24" viewBox="0 0 24 24" fill="none" xmlns="http://www.w3.org/2000/svg">
<path d="M7.83333 2H5.33333C3.49238 2 2 3.49238 2 5.33333V7.83333C2 9.67428 3.49238 11.1667 5.33333 11.1667H7.83333C9.67428 11.1667 11.1667 9.67428 11.1667 7.83333V5.33333C11.1667 3.49238 9.67428 2 7.83333 2Z" fill="#2ED12E"/>
<path d="M18.6668 2H16.1668C14.3259 2 12.8335 3.49238 12.8335 5.33333V7.83333C12.8335 9.67428 14.3259 11.1667 16.1668 11.1667H18.6668C20.5078 11.1667 22.0002 9.67428 22.0002 7.83333V5.33333C22.0002 3.49238 20.5078 2 18.6668 2Z" fill="#2ED12E"/>
<path d="M7.83333 12.8334H5.33333C3.49238 12.8334 2 14.3258 2 16.1667V18.6667C2 20.5077 3.49238 22 5.33333 22H7.83333C9.67428 22 11.1667 20.5077 11.1667 18.6667V16.1667C11.1667 14.3258 9.67428 12.8334 7.83333 12.8334Z" fill="#2ED12E"/>
<path d="M18.6668 12.8334H16.1668C14.3259 12.8334 12.8335 14.3258 12.8335 16.1667V18.6667C12.8335 20.5077 14.3259 22 16.1668 22H18.6668C20.5078 22 22.0002 20.5077 22.0002 18.6667V16.1667C22.0002 14.3258 20.5078 12.8334 18.6668 12.8334Z" fill="#2ED12E"/>
</svg>
