<svg width="40" height="40" viewBox="0 0 40 40" fill="none" xmlns="http://www.w3.org/2000/svg">
<path d="M35.0785 26.7507L34.2257 26.4888C33.4864 29.8609 31.5458 32.6922 28.9013 34.2568L29.2953 35.1896C32.1676 33.4903 34.2755 30.4144 35.0785 26.7507Z" fill="#4CAF50"/>
<path d="M37.2743 38.9573H0.950256V40H37.2743V38.9573Z" fill="#4CAF50"/>
<path d="M2.85112 21.3279C2.90486 20.9989 2.95693 20.6905 3.0075 20.3988L5.44137 21.4586L5.74559 20.4801L3.19322 19.3686C3.53223 17.5671 3.7953 16.6046 4.01467 15.8996C4.25668 15.1206 4.74071 14.4997 5.37768 14.1515C6.01465 13.8032 6.72791 13.7694 7.38647 14.0564C8.04493 14.3428 8.56957 14.9157 8.86383 15.6696C9.158 16.4233 9.18672 17.2676 8.94471 18.0466C8.91352 18.1469 8.86762 18.2798 8.80877 18.4409L6.66906 17.5091L6.36485 18.4877L8.44103 19.3919C8.11682 20.2002 7.67165 21.2543 7.16551 22.39H1.32513V23.4615C1.32513 23.7523 1.33244 24.0466 1.34689 24.336C1.63639 30.1604 4.78978 35.0338 9.1276 37.0855H0.950256V38.1282H13.7173H24.5073H37.2743V37.0855H29.0957C33.6639 34.9228 36.8994 29.6313 36.8994 23.4615V23.3778C37.4621 23.2711 37.9954 23.011 38.465 22.6104C39.2651 21.9278 39.7929 20.9175 39.9512 19.7654C40.1097 18.613 39.8793 17.4568 39.3027 16.5101C38.8936 15.8382 38.3361 15.332 37.7089 15.0267C37.9306 14.6515 38.0716 14.2107 38.1069 13.7505C38.1268 13.4961 38.1151 13.2382 38.0719 12.9831C37.8263 11.5536 36.6437 10.6264 35.4355 10.9168C35.2266 10.9671 35.0274 11.0514 34.8427 11.1659C34.8393 11.1407 34.837 11.1155 34.8334 11.0901C34.6316 9.69246 33.9821 8.47132 33.0043 7.65185C30.986 5.96013 28.1813 6.52727 26.7518 8.91605C26.5221 9.29998 26.3407 9.71383 26.2071 10.145C24.2144 9.57171 22.1701 10.9604 21.599 13.3138C21.3504 14.3367 21.4128 15.4357 21.7746 16.4081L22.5809 15.988C22.3019 15.2384 22.2539 14.391 22.4456 13.6019C22.6646 12.6999 23.1672 11.9527 23.8609 11.498C24.5142 11.0701 25.2634 10.95 25.9854 11.1537C25.8307 12.3167 26.0007 13.5333 26.5044 14.592L27.2721 14.0804C26.5911 12.6491 26.6691 10.8586 27.4708 9.51874C28.0271 8.58894 28.8562 7.97113 29.8051 7.77927C30.754 7.58741 31.7093 7.84433 32.495 8.50292C33.2806 9.1614 33.8027 10.1426 33.9648 11.2657C34.1269 12.3888 33.9098 13.5196 33.3534 14.4494L34.0724 15.0519C34.543 14.2655 34.818 13.3636 34.8828 12.4277C35.0752 12.1787 35.328 12.0068 35.6109 11.9387C36.3433 11.763 37.0596 12.3246 37.2083 13.1895C37.2345 13.3443 37.2416 13.5007 37.2296 13.6553C37.1978 14.0711 37.0241 14.4608 36.7574 14.7307C36.3885 14.6756 36.0103 14.6837 35.6349 14.7653L35.794 15.7909C36.8592 15.5592 37.9558 16.0809 38.588 17.1197C39.4941 18.6075 39.208 20.6912 37.95 21.7646C37.4801 22.1653 36.9265 22.3812 36.3485 22.3899H31.5074C32.829 20.1064 33.9438 19.9858 33.956 19.9849L33.947 19.9853L33.9221 18.943C33.7425 18.949 32.154 19.0995 30.4596 22.3899H30.24C30.2556 22.2212 30.2657 22.0511 30.268 21.88C30.2874 20.3945 29.8133 18.9938 28.9332 17.9358C28.0528 16.8775 26.8771 16.2948 25.6225 16.2948C24.8383 16.2948 24.062 16.5307 23.3774 16.9775C23.1759 17.1097 22.963 17.2345 22.7451 17.3483C21.6259 17.9323 20.4435 18.1674 19.3259 18.0279C19.2334 18.0164 19.139 18.011 19.044 18.0092C18.0162 16.9926 16.8526 16.1193 15.9494 15.5024C15.9312 14.3368 16.0182 13.162 16.2099 12.0088L16.3132 11.3868H15.7776C15.5305 11.3868 14.8991 11.4538 14.3746 12.0746C14.3246 12.1339 14.278 12.1961 14.234 12.2604C14.1901 12.1961 14.1434 12.1339 14.0934 12.0746C13.5689 11.4537 12.9375 11.3868 12.6904 11.3868H12.1548L12.2581 12.0087C12.4497 13.162 12.5367 14.3367 12.5185 15.5018C11.7689 16.0135 10.84 16.7015 9.95892 17.5016C10.0433 16.734 9.94474 15.9521 9.6637 15.2321C9.46441 14.7216 9.18584 14.2737 8.84515 13.9058C9.04021 13.7562 9.22742 13.5807 9.3919 13.4164C10.0251 12.7838 10.7595 11.8526 11.4599 10.7943C12.1602 9.73636 12.7481 8.66954 13.1153 7.79042C13.4192 7.06292 13.7649 6.04147 13.26 5.57276C12.8487 5.19144 12.1683 5.50978 11.231 6.5183C11.244 6.37712 11.2541 6.23917 11.2604 6.10591C11.3344 4.54829 10.916 4.03235 10.5519 3.87385C9.90818 3.59357 9.18892 4.30679 8.55001 5.43742C8.39275 3.89106 8.04572 3.09588 7.51307 3.07023C6.87663 3.03988 6.57611 4.08281 6.40916 4.86997C6.20732 5.82114 6.07085 7.0844 6.02478 8.42722C5.97861 9.77045 6.02786 11.0431 6.16362 12.0105C6.19983 12.2687 6.24776 12.5545 6.31754 12.8246C5.87042 12.8491 5.42701 12.9758 5.00836 13.2047C4.15766 13.6697 3.51117 14.499 3.18802 15.5392C2.88777 16.504 2.51017 17.9229 1.98615 21.1297L2.85112 21.3279ZM9.39754 19.4332C9.72651 19.0616 10.0871 18.7029 10.4599 18.3633C9.88536 19.4851 9.48882 20.7913 9.48882 22.1766C9.48882 22.2479 9.49102 22.3189 9.49225 22.3901H8.16034C8.67582 21.2179 9.10426 20.1846 9.39754 19.4332ZM15.9164 20.7455H14.3037V21.7883H15.7901C15.7897 21.9912 15.8021 22.1922 15.8286 22.3901H12.8603C12.8596 22.3189 12.8587 22.2479 12.8587 22.1766C12.8587 19.7664 13.4189 17.7552 13.8723 16.6349V16.7851L13.8731 16.633C14.0127 16.2881 14.1424 16.0267 14.2421 15.8657C14.512 16.2846 15.006 17.4217 15.331 19.1703L16.1915 18.9463C16.0207 18.0271 15.7774 17.1392 15.4968 16.4004C16.1965 16.8781 17.059 17.5142 17.8766 18.2442C17.2196 18.5344 16.6502 19.0792 16.2685 19.8086C16.1147 20.1014 15.9971 20.4172 15.9164 20.7455ZM10.3733 22.3901C10.3718 22.3189 10.3698 22.248 10.3698 22.1766C10.3698 20.1127 11.411 18.4236 12.0317 17.6005C12.3341 17.1993 12.6336 16.8689 12.9113 16.6029C12.8554 16.7598 12.8029 16.9168 12.7543 17.0696C12.4642 17.9814 11.9778 19.8572 11.9778 22.1766C11.9778 22.2479 11.9787 22.3189 11.9793 22.3901H10.3733ZM36.0184 23.4616C36.0184 30.974 30.8545 37.0856 24.5073 37.0856H13.7173C7.63086 37.0856 2.58347 31.4585 2.2264 24.2748C2.21301 24.0057 2.20622 23.7321 2.20622 23.4616V23.4328H36.0184L36.0184 23.4616ZM23.4694 21.7932C23.4694 20.3795 24.4414 19.2296 25.6363 19.2296C26.8307 19.2296 27.8023 20.3796 27.8023 21.7932C27.8023 21.9962 27.7802 22.1954 27.7409 22.3901H23.531C23.4915 22.196 23.4694 21.9967 23.4694 21.7932ZM23.1006 18.3026C23.3429 18.1761 23.5797 18.0372 23.8034 17.8903C24.3575 17.5288 24.9865 17.3377 25.6225 17.3377C26.6391 17.3377 27.5919 17.8101 28.3054 18.6676C29.0187 19.5249 29.4028 20.6601 29.387 21.8637C29.3846 22.0408 29.3725 22.2167 29.3527 22.3901H28.6409C28.6685 22.1939 28.6832 21.9947 28.6832 21.7932C28.6832 19.8047 27.3162 18.1869 25.6361 18.1869C23.9555 18.1869 22.5882 19.8047 22.5882 21.7932C22.5882 21.9949 22.6029 22.1941 22.6306 22.3901H16.7252C16.6837 22.1695 16.6652 21.9426 16.6711 21.7121C16.683 21.2345 16.8025 20.7667 17.0169 20.3584C17.4221 19.5838 18.1159 19.096 18.8728 19.0535C18.9952 19.0466 19.1164 19.0506 19.2332 19.0652C20.5039 19.2234 21.8409 18.9599 23.1006 18.3026ZM14.9975 12.8122C15.0719 12.7242 15.1507 12.6563 15.2289 12.6039C15.1317 13.3739 15.078 14.1502 15.0675 14.9247C14.9108 14.8265 14.7783 14.7457 14.6744 14.6834V13.7354C14.6744 13.3866 14.7891 13.0588 14.9975 12.8122ZM13.2388 12.6039C13.3171 12.6563 13.3959 12.7242 13.4703 12.8122C13.6786 13.0588 13.7933 13.3866 13.7933 13.7354V14.6833C13.6895 14.7455 13.5565 14.8266 13.4002 14.9245C13.3898 14.1501 13.3362 13.3739 13.2388 12.6039ZM12.5851 6.594C12.4205 7.20733 11.8638 8.49333 10.7663 10.1516C10.4967 10.5589 10.2379 10.9228 9.99381 11.2458C10.2075 10.7398 10.4024 10.202 10.5702 9.66243C10.7042 9.23168 10.8191 8.80322 10.9168 8.38436C11.6884 7.37115 12.2613 6.82695 12.5851 6.594ZM10.2468 4.85547C10.4335 5.0661 10.5555 6.69035 9.74352 9.30227C8.9314 11.9144 7.94899 13.0577 7.69156 13.0748C7.50487 12.8642 7.38285 11.24 8.19488 8.62794C9.00699 6.01582 9.98941 4.87257 10.2468 4.85547ZM6.90508 8.46986C6.97724 6.36523 7.25766 4.95891 7.46813 4.3656C7.59059 4.80355 7.73376 5.69288 7.76098 7.12569L7.76583 7.12559C7.62143 7.49815 7.48787 7.8826 7.36805 8.26789C7.18004 8.87267 7.01917 9.50216 6.89962 10.1146C6.88473 9.62426 6.8842 9.07548 6.90508 8.46986Z" fill="#4CAF50"/>
<path d="M4.40937 17.636L5.57321 18.1428L5.87742 17.1642L4.71358 16.6574L4.40937 17.636Z" fill="#4CAF50"/>
<path d="M37.1252 20.58C36.8077 20.8506 36.4202 20.9585 36.0339 20.8844L35.8925 21.9135C36.0199 21.938 36.1475 21.9502 36.274 21.9502C36.7619 21.9502 37.2363 21.7702 37.64 21.4263C38.1485 20.9929 38.4839 20.351 38.5846 19.619C38.6851 18.887 38.5387 18.1525 38.1727 17.5508L37.4577 18.1601C37.6865 18.5359 37.7777 18.9946 37.7149 19.4517C37.652 19.9086 37.4426 20.3093 37.1252 20.58Z" fill="#4CAF50"/>
<path d="M29.5348 10.553L29.7783 9.55084C28.7685 9.20747 27.7104 9.90015 27.42 11.0954C27.1297 12.2908 27.7152 13.5428 28.7251 13.8865L28.9684 12.8843C28.4254 12.6995 28.1107 12.0263 28.2667 11.3835C28.4228 10.7408 28.9917 10.3682 29.5348 10.553Z" fill="#4CAF50"/>
<path d="M14.1692 3.62628H15.0502V2.33455H16.1417V1.29183H15.0502V0H14.1692V1.29183H13.0778V2.33455H14.1692V3.62628Z" fill="#4CAF50"/>
<path d="M24.4818 8.28961H25.3628V6.99788H26.4543V5.95516H25.3628V4.66333H24.4818V5.95516H23.3903V6.99788H24.4818V8.28961Z" fill="#4CAF50"/>
<path d="M1.09148 12.7088H1.97249V11.4171H3.06397V10.3743H1.97249V9.08252H1.09148V10.3743H0V11.4171H1.09148V12.7088Z" fill="#4CAF50"/>
</svg>
