<?xml version="1.0" encoding="UTF-8"?>
<svg version="1.1" viewBox="0 0 1600 1600" width="1280" height="1280" xmlns="http://www.w3.org/2000/svg">
<path transform="translate(351 347)" d="m0 0c1.15-0.00511 2.31-0.0102 3.5-0.0155 3.78-0.0138 7.55-0.0129 11.3-0.0106 1.98-0.00291 3.96-0.00582 5.94-0.00941 6.22-0.011 12.4-0.0116 18.7-0.00549 6.37 0.00603 12.7-0.00626 19.1-0.0276 5.51-0.0178 11-0.0236 16.5-0.0204 3.27 0.00179 6.54-0.00198 9.82-0.0147 25.3-0.0864 47.6 1.62 67.8 18.4 0.874 0.712 1.75 1.42 2.65 2.16 15.9 13.6 23.8 32.4 26.4 52.8v247h534v-250c5.77-24.5 15.3-44.1 36.7-58 15-8.87 29.8-12.1 47-12.1 1.73-0.00745 1.73-0.00745 3.5-0.015 3.81-0.0146 7.62-0.0214 11.4-0.0269 1.99-0.0043 3.98-0.0086 5.97-0.013 5.54-0.0118 11.1-0.0193 16.6-0.0228 7.12-0.00446 14.2-0.0219 21.4-0.051 5.54-0.0218 11.1-0.0317 16.6-0.033 3.29-0.00104 6.58-0.00821 9.88-0.0248 25.4-0.119 47.7 1.54 68 18.3 1.31 1.07 1.31 1.07 2.65 2.16 15 12.8 24 31.4 26.1 50.9 0.472 6.66 0.311 13.4 0.273 20-0.00502 1.55-0.00959 3.1-0.0137 4.65-0.0109 3.76-0.0281 7.53-0.0488 11.3 1.12-0.00888 2.23-0.0178 3.39-0.0269 10.6-0.0815 21.2-0.141 31.8-0.18 5.44-0.0208 10.9-0.0489 16.3-0.0945 5.26-0.0439 10.5-0.0675 15.8-0.0778 2-0.00732 3.99-0.0216 5.99-0.0434 15.1-0.158 29.5 0.847 43.1 8.17 0.659 0.343 1.32 0.686 2 1.04 5.77 3.1 10.8 6.79 15.6 11.2l2.07 1.79c15.1 13.8 23.2 34.4 24.1 54.6 0.2 8.54 0.138 17.1 0.054 25.6-0.0312 3.51-0.0445 7.01-0.0595 10.5-0.0318 6.83-0.0827 13.7-0.146 20.5 1.41-0.0236 1.41-0.0236 2.85-0.0476 31.5-0.456 57.5 0.661 81.3 23.7 14.1 14.2 23 35.2 23.2 55.3-0.00533 1.07-0.0107 2.13-0.0161 3.23 0.00609 1.17 0.0122 2.33 0.0185 3.53 0.0137 3.2 0.0141 6.4 0.00863 9.6-0.00269 3.46 0.0119 6.93 0.0241 10.4 0.021 6.77 0.0256 13.5 0.0238 20.3-0.00131 5.51 0.00252 11 0.00993 16.5 0.0021 1.59 0.0042 3.19 0.00629 4.78 0.00104 0.793 0.00209 1.59 0.00316 2.4 0.0189 15 0.0179 29.9 0.011 44.9-0.00557 13.7 0.0152 27.3 0.0484 41 0.0338 14.1 0.0489 28.1 0.0443 42.2-0.00224 7.88 0.00286 15.8 0.0279 23.6 0.0211 6.71 0.0245 13.4 0.0057 20.1-0.00908 3.42-0.00776 6.83 0.0104 10.3 0.126 25.5-3.79 48.7-21.6 68.1-0.675 0.767-1.35 1.53-2.05 2.32-14.6 15.7-35.1 22.3-56 23.7-4.9 0.112-9.79 0.0955-14.7 0.0625l-3.9-0.0137c-3.14-0.0117-6.28-0.028-9.42-0.0488 0.00444 0.71 0.00888 1.42 0.0135 2.15 0.0404 6.75 0.0707 13.5 0.0902 20.3 0.0104 3.47 0.0244 6.94 0.0473 10.4 0.0262 4 0.0357 8.01 0.0444 12 0.0103 1.22 0.0206 2.45 0.0313 3.71 0.00305 23.8-7.06 45.4-24 62.5-10.5 10-23.2 16.4-37.2 20-0.719 0.184-1.44 0.369-2.18 0.559-9.62 2.08-19.4 1.69-29.1 1.64-1.96-0.00374-3.91-0.00658-5.87-0.00858-5.12-0.00759-10.2-0.0272-15.4-0.0494-5.24-0.0206-10.5-0.0296-15.7-0.0397-10.2-0.0214-20.5-0.0554-30.7-0.0977 0.00589 0.949 0.0118 1.9 0.0179 2.88 0.0206 3.56 0.0333 7.13 0.0439 10.7 0.00561 1.53 0.0133 3.07 0.0231 4.6 0.161 25.9-5.61 46.3-23.1 65.8h-2v2c-18.8 16.3-40.7 21.2-65.2 21.1-1.06 0.00336-2.12 0.00672-3.21 0.0102-3.47 0.00943-6.93 0.0114-10.4 0.0125-2.43 0.00322-4.87 0.00658-7.3 0.0101-5.09 0.00597-10.2 0.00784-15.3 0.00725-6.49-1.01e-4 -13 0.0135-19.5 0.0308-5.03 0.0112-10.1 0.0131-15.1 0.0126-2.39 0.00117-4.78 0.00554-7.17 0.0133-28.1 0.083-52.6-2.47-74.1-22.4-66.5-69.1-23.8-277-23.8-298h-534v245c-2.89 20.2-8.6 37-23 52h-2v2c-18.8 16.3-40.7 21.2-65.2 21.1-1.06 0.00336-2.12 0.00672-3.21 0.0102-3.47 0.00943-6.93 0.0114-10.4 0.0125-2.43 0.00322-4.87 0.00658-7.3 0.0101-5.09 0.00597-10.2 0.00784-15.3 0.00725-6.49-1.01e-4 -13 0.0135-19.5 0.0308-5.03 0.0112-10.1 0.0131-15.1 0.0126-2.39 0.00117-4.78 0.00554-7.17 0.0133-28.1 0.083-52.6-2.47-74.1-22.4-15.3-15.9-24-35.3-23.9-57.4 0.00212-1.18 0.00212-1.18 0.00429-2.39 0.00555-2.5 0.0181-4.99 0.0309-7.49 0.00502-1.7 0.00958-3.4 0.0137-5.11 0.011-4.15 0.0282-8.3 0.0488-12.5-1.08 0.00666-2.16 0.0133-3.28 0.0202-10.3 0.0611-20.5 0.106-30.8 0.135-5.27 0.0156-10.5 0.0367-15.8 0.0709-5.1 0.0329-10.2 0.0506-15.3 0.0583-1.93 0.00549-3.87 0.0162-5.8 0.0326-25.2 0.204-47.6-5.13-66.2-23.4-14.3-14.6-23-33.9-22.9-54.4 1.13e-4 -1.86 1.13e-4 -1.86 2.29e-4 -3.76 0.0051-1.33 0.0103-2.67 0.0156-4 0.00187-1.38 0.00329-2.76 0.00429-4.14 0.0038-3.61 0.0136-7.22 0.0247-10.8 0.0103-3.69 0.0148-7.39 0.0198-11.1 0.0107-7.23 0.0277-14.5 0.0488-21.7-0.883 0.00622-1.77 0.0124-2.68 0.0188-3.33 0.0204-6.65 0.0352-9.98 0.0464-1.43 0.00591-2.86 0.014-4.29 0.0244-15.8 0.111-30.8-0.671-45.1-8.09-1.51-0.773-1.51-0.773-3.04-1.56-7.22-3.95-13.1-8.64-19-14.4l-2.34-2.27c-11.9-12.3-20.8-31.5-20.8-48.8-0.00507-0.999-0.0101-2-0.0154-3.03-4.98e-4 -1.09-9.96e-4 -2.18-0.00151-3.3-0.00438-1.16-0.00876-2.33-0.0133-3.53-0.011-3.23-0.0176-6.45-0.0222-9.68-0.00597-3.48-0.0176-6.96-0.0283-10.4-0.0245-8.41-0.0392-16.8-0.0521-25.2-0.00371-2.38-0.00769-4.76-0.0118-7.13-0.0252-14.8-0.0473-29.6-0.0597-44.4-0.00293-3.42-0.00589-6.85-0.00891-10.3-7.46e-4 -0.851-0.00149-1.7-0.00226-2.58-0.0126-13.8-0.0458-27.5-0.0875-41.3-0.0425-14.1-0.066-28.3-0.0712-42.4-0.0034-7.93-0.015-15.9-0.0481-23.8-0.0282-6.76-0.0389-13.5-0.0278-20.3 0.00515-3.44 0.00256-6.89-0.0225-10.3-0.169-27.8 5.07-50.1 24.4-71.1 15.1-14.8 35.6-22.4 56.5-22.2 0.767 0.00141 1.53 0.00283 2.32 0.00429 2.42 0.00555 4.85 0.0181 7.27 0.0309 1.65 0.00502 3.31 0.00958 4.96 0.0137 4.03 0.011 8.07 0.0282 12.1 0.0488-0.00888-0.766-0.0178-1.53-0.0269-2.32-0.0808-7.29-0.141-14.6-0.18-21.9-0.0207-3.75-0.0487-7.5-0.0945-11.2-0.0441-3.63-0.0675-7.26-0.0778-10.9-0.0108-2.03-0.0419-4.06-0.0737-6.09-0.00298-12.6 2.51-25 8.14-36.4 0.34-0.704 0.681-1.41 1.03-2.13 3.24-6.44 7.36-11.8 12.3-17.1 0.918-1.05 0.918-1.05 1.86-2.13 12.4-13.5 31.6-22.3 49.8-23.2 5.5-0.178 11-0.196 16.5-0.213 2.02-0.0169 4.04-0.035 6.06-0.0544 5.28-0.0472 10.6-0.0772 15.8-0.103 5.4-0.03 10.8-0.0764 16.2-0.121 10.6-0.0857 21.1-0.153 31.7-0.209 0.0195-1.06 0.039-2.13 0.0591-3.22 0.0757-4 0.164-7.99 0.255-12 0.0377-1.72 0.0721-3.44 0.103-5.16 0.469-25.6 6.84-45.2 24.9-64 16.5-15.9 37.5-21.9 60-21.9zm-24.1 60.5c-12.9 14.1-8.4 38.6-8.38 56.5 0.00165 3.77-0.00252 7.54-0.00591 11.3-0.00513 6.6-0.00658 13.2-0.00554 19.8 0.00153 9.81-0.00265 19.6-0.00787 29.4-0.00965 18.5-0.0125 37.1-0.0131 55.6-4.6e-4 14.3-0.00252 28.6-0.0057 42.9-8.98e-4 4.12-0.00179 8.25-0.00267 12.4-2.21e-4 1.03-4.42e-4 2.05-6.7e-4 3.11-0.00615 28.8-0.0101 57.6-0.00966 86.4 1.56e-5 1.09 3.12e-5 2.17 4.72e-5 3.29 8.31e-5 5.5 1.82e-4 11 2.85e-4 16.5 1.99e-5 1.09 3.99e-5 2.19 6.04e-5 3.31 4.04e-5 2.21 8.22e-5 4.42 1.25e-4 6.63 6.13e-4 34.4-0.0069 68.8-0.0206 103-0.0154 38.7-0.024 77.3-0.023 116 7.46e-5 4.12 1.23e-4 8.24 1.54e-4 12.4 1.17e-5 1.01 2.33e-5 2.03 3.53e-5 3.08 3.08e-5 16.3-0.00636 32.7-0.015 49-0.00847 16.4-0.00947 32.8-0.00289 49.2 0.0037 9.75 0.00185 19.5-0.00794 29.2-0.00599 6.51-0.00471 13 0.00247 19.5 0.00389 3.71 0.00464 7.42-0.00346 11.1-0.00865 4-0.00178 8 0.00656 12-0.00497 1.15-0.00994 2.29-0.0151 3.48 0.0456 10.3 0.29 21.2 7.87 29 6 5.42 12.1 8.46 20.2 8.49 0.969 0.00571 1.94 0.0114 2.93 0.0173 1.06 0.00112 2.11 0.00224 3.2 0.00339 1.12 0.00496 2.24 0.00993 3.39 0.015 3.7 0.0146 7.4 0.0214 11.1 0.0269 2.57 0.00575 5.15 0.0115 7.72 0.0173 4.71 0.00917 9.42 0.0155 14.1 0.0185 6.91 0.00447 13.8 0.022 20.7 0.051 6 0.0243 12 0.0319 18 0.0337 2.55 0.00302 5.09 0.011 7.64 0.0242 3.57 0.0171 7.14 0.0152 10.7 0.00869 1.05 0.00921 2.09 0.0184 3.17 0.0279 9.44-0.0535 16.7-1.87 23.7-8.42 4.93-5.63 6.85-11.9 6.86-19.3 0.00327-1.09 0.00654-2.18 0.00992-3.31-0.00148-1.2-0.00297-2.4-0.0045-3.64 0.00235-1.28 0.0047-2.56 0.00713-3.88 0.00641-3.57 0.00656-7.14 0.00572-10.7 1.69e-4 -3.88 0.00607-7.76 0.0112-11.6 0.00934-7.7 0.0132-15.4 0.0155-23.1 0.00296-9.22 0.0117-18.4 0.0204-27.7 0.0209-22.3 0.0313-44.6 0.0401-66.9 0.0042-10.5 0.00943-21.1 0.0147-31.6 0.0179-36.1 0.0329-72.1 0.0403-108 4.75e-4 -2.26 9.51e-4 -4.53 0.00143-6.79 2.36e-4 -1.12 4.73e-4 -2.25 7.16e-4 -3.4 0.0012-5.69 0.00242-11.4 0.00364-17.1 2.4e-4 -1.13 4.8e-4 -2.26 7.28e-4 -3.42 0.0079-36.6 0.0313-73.3 0.0638-110 0.0343-38.7 0.054-77.4 0.0573-116 4.18e-4 -4.25 8.97e-4 -8.49 0.00142-12.7 1.23e-4 -1.05 2.46e-4 -2.09 3.73e-4 -3.17 0.00233-16.8 0.018-33.7 0.0385-50.5 0.0202-16.9 0.0257-33.9 0.0162-50.8-0.00522-10.1 7.08e-4 -20.1 0.0225-30.2 0.0135-6.72 0.0125-13.4-4.02e-4 -20.2-0.00692-3.83-0.00749-7.66 0.00956-11.5 0.0182-4.12 0.00552-8.25-0.0102-12.4 0.0102-1.19 0.0204-2.38 0.031-3.61-0.0815-9.73-2.55-17.4-9.42-24.4-7.81-6.92-18.1-6.52-27.9-6.61-1.54-0.0275-3.09-0.0563-4.63-0.0864-4.85-0.0866-9.7-0.132-14.5-0.171-1.56-0.0146-3.12-0.0293-4.68-0.0441-9.94-0.0877-19.9-0.0977-29.8-0.0829-3.13 0.00264-6.26-0.00225-9.39-0.00699-3.08-0.00364-6.16-0.00245-9.24 1.28e-4 -1.44 6.55e-4 -2.87-1.06e-4 -4.31-0.00248-21.2-0.875-21.2-0.875-39.3 8.39zm800 0c-12.9 14.1-8.4 38.6-8.38 56.5 0.00165 3.77-0.00252 7.54-0.00591 11.3-0.00513 6.6-0.00658 13.2-0.00554 19.8 0.00153 9.81-0.00265 19.6-0.00787 29.4-0.00965 18.5-0.0125 37.1-0.0131 55.6-4.6e-4 14.3-0.00252 28.6-0.0057 42.9-8.98e-4 4.12-0.00179 8.25-0.00267 12.4-2.21e-4 1.03-4.42e-4 2.05-6.7e-4 3.11-0.00615 28.8-0.0101 57.6-0.00966 86.4 1.56e-5 1.09 3.12e-5 2.17 4.72e-5 3.29 8.31e-5 5.5 1.82e-4 11 2.85e-4 16.5 1.99e-5 1.09 3.99e-5 2.19 6.04e-5 3.31 4.04e-5 2.21 8.22e-5 4.42 1.25e-4 6.63 6.13e-4 34.4-0.0069 68.8-0.0206 103-0.0154 38.7-0.024 77.3-0.023 116 7.46e-5 4.12 1.23e-4 8.24 1.54e-4 12.4 1.17e-5 1.01 2.33e-5 2.03 3.53e-5 3.08 3.08e-5 16.3-0.00636 32.7-0.015 49-0.00847 16.4-0.00947 32.8-0.00289 49.2 0.0037 9.75 0.00185 19.5-0.00794 29.2-0.00599 6.51-0.00471 13 0.00247 19.5 0.00389 3.71 0.00464 7.42-0.00346 11.1-0.00865 4-0.00178 8 0.00656 12-0.00497 1.15-0.00994 2.29-0.0151 3.48 0.0456 10.3 0.29 21.2 7.87 29 6 5.42 12.1 8.46 20.2 8.49 0.969 0.00571 1.94 0.0114 2.93 0.0173 1.06 0.00112 2.11 0.00224 3.2 0.00339 1.12 0.00496 2.24 0.00993 3.39 0.015 3.7 0.0146 7.4 0.0214 11.1 0.0269 2.57 0.00575 5.15 0.0115 7.72 0.0173 4.71 0.00917 9.42 0.0155 14.1 0.0185 6.91 0.00447 13.8 0.022 20.7 0.051 6 0.0243 12 0.0319 18 0.0337 2.55 0.00302 5.09 0.011 7.64 0.0242 3.57 0.0171 7.14 0.0152 10.7 0.00869 1.05 0.00921 2.09 0.0184 3.17 0.0279 9.44-0.0535 16.7-1.87 23.7-8.42 4.93-5.63 6.85-11.9 6.86-19.3 0.00327-1.09 0.00654-2.18 0.00992-3.31-0.00148-1.2-0.00297-2.4-0.0045-3.64 0.00235-1.28 0.0047-2.56 0.00713-3.88 0.00641-3.57 0.00656-7.14 0.00572-10.7 1.69e-4 -3.88 0.00607-7.76 0.0112-11.6 0.00934-7.7 0.0132-15.4 0.0155-23.1 0.00296-9.22 0.0117-18.4 0.0204-27.7 0.0209-22.3 0.0313-44.6 0.0401-66.9 0.0042-10.5 0.00943-21.1 0.0147-31.6 0.0179-36.1 0.0329-72.1 0.0403-108 4.75e-4 -2.26 9.51e-4 -4.53 0.00143-6.79 2.36e-4 -1.12 4.73e-4 -2.25 7.16e-4 -3.4 0.0012-5.69 0.00242-11.4 0.00364-17.1 2.4e-4 -1.13 4.8e-4 -2.26 7.28e-4 -3.42 0.0079-36.6 0.0313-73.3 0.0638-110 0.0343-38.7 0.054-77.4 0.0573-116 4.18e-4 -4.25 8.97e-4 -8.49 0.00142-12.7 1.23e-4 -1.05 2.46e-4 -2.09 3.73e-4 -3.17 0.00233-16.8 0.018-33.7 0.0385-50.5 0.0202-16.9 0.0257-33.9 0.0162-50.8-0.00522-10.1 7.08e-4 -20.1 0.0225-30.2 0.0135-6.72 0.0125-13.4-4.02e-4 -20.2-0.00692-3.83-0.00749-7.66 0.00956-11.5 0.0182-4.12 0.00552-8.25-0.0102-12.4 0.0102-1.19 0.0204-2.38 0.031-3.61-0.0815-9.73-2.55-17.4-9.42-24.4-7.81-6.92-18.1-6.52-27.9-6.61-1.54-0.0275-3.09-0.0563-4.63-0.0864-4.85-0.0866-9.7-0.132-14.5-0.171-1.56-0.0146-3.12-0.0293-4.68-0.0441-9.94-0.0877-19.9-0.0977-29.8-0.0829-3.13 0.00264-6.26-0.00225-9.39-0.00699-3.08-0.00364-6.16-0.00245-9.24 1.28e-4 -1.44 6.55e-4 -2.87-1.06e-4 -4.31-0.00248-21.2-0.875-21.2-0.875-39.3 8.39zm-961 108c-3.66 4.8-6.03 9.23-6.31 15.3-0.0413 0.868-0.0826 1.74-0.125 2.63-0.0387 0.939-0.0774 1.88-0.117 2.84-0.0421 0.983-0.0842 1.97-0.128 2.98-0.417 10.5-0.461 20.9-0.452 31.4-0.00187 2.14-0.00418 4.29-0.00687 6.43-0.00605 5.82-0.00599 11.6-0.00481 17.5 2.06e-4 6.3-0.00533 12.6-0.0101 18.9-0.00827 12.3-0.0111 24.6-0.0116 37-4.61e-4 10-0.00253 20-0.0057 30-8.98e-4 2.89-0.00179 5.78-0.00267 8.67-2.21e-4 0.719-4.42e-4 1.44-6.7e-4 2.18-0.00614 20.2-0.0101 40.4-0.00966 60.6 1.56e-5 0.759 3.12e-5 1.52 4.72e-5 2.3 8.31e-5 3.85 1.82e-4 7.7 2.85e-4 11.5 1.99e-5 0.764 3.99e-5 1.53 6.04e-5 2.32 4.04e-5 1.55 8.22e-5 3.09 1.25e-4 4.64 6.14e-4 24.1-0.00691 48.1-0.0206 72.2-0.0154 27.1-0.024 54.2-0.023 81.3 7.46e-5 2.89 1.23e-4 5.78 1.54e-4 8.66 1.17e-5 0.711 2.33e-5 1.42 3.53e-5 2.15 3.07e-5 11.4-0.00635 22.9-0.015 34.3-0.00848 11.5-0.00929 23-0.00289 34.4 0.00327 6.22 0.00332 12.4-0.00535 18.6-0.00786 5.69-0.00644 11.4 0.00228 17.1 0.00154 2.06-2.87e-4 4.11-0.00586 6.17-0.921 20.2-0.921 20.2 7.26 37.9h2v2c1.63 0.999 3.28 1.97 4.94 2.94 0.917 0.545 1.83 1.09 2.78 1.65 9.14 3.92 20.4 2.56 30.2 2.54 1.73 6.74e-4 3.47 0.00165 5.2 0.0029 3.61 0.00147 7.23-6.49e-4 10.8-0.00534 4.64-0.00573 9.28-0.00239 13.9 0.00357 3.57 0.0036 7.14 0.00247 10.7-1.28e-4 1.71-6.68e-4 3.43 1.56e-4 5.14 0.00248 2.38 0.00252 4.76-0.00131 7.15-0.0069 0.712 0.00202 1.42 0.00405 2.16 0.00613 3.27 0.266 3.27 0.266 5.97-1.14 0.1-3.1 0.134-6.17 0.126-9.27 0.00218-1.49 0.00218-1.49 0.0044-3 0.00369-3.36 1.61e-4 -6.73-0.00326-10.1 0.00115-2.42 0.00274-4.83 0.00473-7.25 0.00332-5.28 0.00349-10.6 9.53e-4 -15.8-0.00377-7.85-0.00186-15.7 0.00121-23.5 0.00528-14 0.0048-28 0.00192-42-0.00251-12.3-0.00317-24.5-0.00198-36.8 7.64e-5 -0.812 1.53e-4 -1.62 2.31e-4 -2.46 3.11e-4 -3.3 6.3e-4 -6.59 9.6e-4 -9.89 0.00306-31 2.81e-4 -61.9-0.0051-92.9-0.00475-27.5-0.00432-55 4.61e-4 -82.6 0.00535-30.9 0.00748-61.8 0.00439-92.7-3.21e-4 -3.29-6.34e-4 -6.58-9.43e-4 -9.87-1.19e-4 -1.22-1.19e-4 -1.22-2.4e-4 -2.46-0.00114-12.3 1.97e-4 -24.5 0.00272-36.8 0.00285-13.9 0.00216-27.9-0.00328-41.8-0.00295-7.81-0.00311-15.6 6.46e-4 -23.4 0.00249-5.81-1.9e-4 -11.6-0.00497-17.4-0.00113-2.36-5.3e-4 -4.73 0.00188-7.09 3e-3 -3.19-3.73e-5 -6.38-0.00472-9.57 0.00234-0.937 0.00468-1.87 0.00709-2.84 0.397-4.04 0.397-4.04-1.13-7.43-2.54-0.111-5.05-0.157-7.59-0.161-1.19-0.00745-1.19-0.00745-2.41-0.015-2.65-0.0147-5.29-0.0214-7.94-0.0269-1.84-0.00575-3.68-0.0115-5.51-0.0173-3.86-0.0105-7.73-0.0164-11.6-0.0198-4.93-0.00546-9.87-0.0294-14.8-0.058-3.8-0.0187-7.6-0.0238-11.4-0.0254-1.82-0.00302-3.64-0.011-5.45-0.0242-2.56-0.0172-5.11-0.0151-7.67-0.00869-0.742-0.00921-1.48-0.0184-2.25-0.0279-9 0.0706-16.9 3.08-23.4 9.38zm1167-9v588c40.5 5.77 40.5 5.77 98.9-7.72 6.92-7.24 8.59-15 8.51-24.8 0.00436-0.925 0.00872-1.85 0.0132-2.8 0.0109-3.09 5.45e-4 -6.18-0.00979-9.28 0.00346-2.24 0.00822-4.48 0.0142-6.73 0.0125-6.16 0.00633-12.3-0.00296-18.5-0.00609-5.96 0.0019-11.9 0.00944-17.9 0.0158-12.9 0.0144-25.9 0.00576-38.8-0.00755-11.3-0.00952-22.6-0.00593-34 2.29e-4 -0.751 4.58e-4 -1.5 6.94e-4 -2.28 9.34e-4 -3.05 0.00189-6.1 0.00288-9.15 0.00918-28.6 8.58e-4 -57.2-0.0153-85.8-0.0142-25.4-0.013-50.8 0.00138-76.2 0.0161-28.5 0.0224-57.1 0.0132-85.6-9.62e-4 -3.04-0.0019-6.09-0.00283-9.13-2.37e-4 -0.749-4.74e-4 -1.5-7.19e-4 -2.27-0.00341-11.3 5.78e-4 -22.6 0.00816-33.9 0.00857-12.9 0.00644-25.7-0.00984-38.6-0.00804-6.56-0.011-13.1-0.00105-19.7 0.00893-6.01 0.00405-12-0.0119-18-0.00336-2.18-0.00163-4.35 0.00563-6.53 0.0091-2.95-2.15e-4 -5.91-0.0142-8.86 0.00702-0.848 0.014-1.7 0.0213-2.57-0.0761-8.05-2.51-14.7-7.53-21-23.9-23.3-66.5-7.83-99.9-7.83zm-1252 133c-9.31 0.388-15.5 2.96-21.9 9.76-6.16 6.98-6.56 14.8-6.51 23.6-0.00468 1.13-0.00936 2.26-0.0142 3.43-0.0119 3.78-0.0025 7.56 0.00695 11.3-0.00242 2.72-0.0093 5.43-0.0159 8.15-0.0133 6.6-0.0105 13.2-0.00176 19.8 0.00678 5.37 0.00769 10.7 0.00443 16.1-4.6e-4 0.765-9.19e-4 1.53-0.00139 2.32-9.59e-4 1.55-0.00193 3.11-0.00292 4.66-0.00855 14.6 0.00127 29.1 0.0174 43.7 0.0134 12.5 0.0111 25-0.00276 37.5-0.0161 14.5-0.0224 29-0.0132 43.5 9.56e-4 1.55 0.0019 3.1 0.00283 4.65 4.63e-4 0.762 9.26e-4 1.52 0.0014 2.31 0.00259 5.36-0.00177 10.7-0.00884 16.1-0.00843 6.54-0.0061 13.1 0.00984 19.6 0.00786 3.33 0.00938 6.67 0.00105 10-0.00821 3.62 0.0021 7.24 0.017 10.9-0.00669 1.05-0.0134 2.09-0.0203 3.17 0.0723 9.04 1.68 16.9 8.2 23.4 8.49 7.45 18.6 7.73 29.3 7.81 1.43 0.0318 2.85 0.0656 4.28 0.102 6.52 0.51 6.52 0.51 12.7-0.977 0.0229-40.7 0.0405-81.5 0.0511-122 0.00125-4.81 0.00255-9.61 0.00387-14.4 3.93e-4 -1.44 3.93e-4 -1.44 7.95e-4 -2.9 0.00436-15.5 0.0122-31 0.0214-46.5 0.00934-15.9 0.0149-31.8 0.0169-47.7 0.00138-9.82 0.00573-19.6 0.0138-29.5 0.00527-6.73 0.00689-13.5 0.00558-20.2-6.44e-4 -3.89 3.76e-4 -7.77 0.0057-11.7 0.00572-4.2 0.0038-8.41 0.00105-12.6 0.00291-1.24 0.00583-2.48 0.00883-3.76-0.00199-1.12-0.00398-2.23-0.00603-3.38 3.8e-4 -0.972 7.59e-4 -1.94 0.00115-2.94 0.119-2.15 0.119-2.15-1.12-3.18-1.41-0.0993-2.82-0.131-4.23-0.133-0.878-0.00234-1.76-0.00467-2.66-0.00708-6.03 0.0314-12 0.114-18.1 0.191zm1412 0.949c-0.0973 1.7-0.124 3.41-0.123 5.12-0.00199 1.12-0.00398 2.23-0.00603 3.38 0.00291 1.24 0.00583 2.48 0.00883 3.76-8.54e-4 1.31-0.00171 2.62-0.00259 3.96-0.00225 3.65 0.00178 7.29 0.00678 10.9 0.0043 3.93 0.00286 7.85 0.0021 11.8-5.25e-4 6.81 0.00262 13.6 0.00824 20.4 0.00811 9.84 0.0107 19.7 0.012 29.5 0.00219 16 0.00885 31.9 0.0183 47.9 0.00917 15.5 0.0163 31 0.0205 46.5 2.63e-4 0.956 5.25e-4 1.91 7.96e-4 2.9 0.0013 4.79 0.00257 9.59 0.00381 14.4 0.0104 39.8 0.028 79.6 0.0503 119 4.48 0.15 8.96 0.258 13.4 0.33 1.52 0.0299 3.04 0.0706 4.56 0.123 11 0.369 20.4-0.356 29-8.26 6.63-7.98 7.5-17.7 7.42-27.7 0.00596-1.67 0.00596-1.67 0.012-3.37 0.00958-3.71-0.00217-7.42-0.014-11.1 0.00243-2.67 0.00603-5.34 0.0111-8 0.00946-6.48 0.00291-13-0.00926-19.4-0.0137-7.55-0.012-15.1-0.00987-22.7 0.00319-13.5-0.00845-27-0.0281-40.4-0.019-13.1-0.0261-26.1-0.0205-39.2 0.00606-14.2 0.00587-28.5-0.00549-42.7-0.00121-1.52-0.00241-3.04-0.00362-4.56-6.04e-4 -0.748-0.00121-1.5-0.00183-2.27-0.00387-5.26-0.00349-10.5-0.00159-15.8 0.00213-6.41-0.00313-12.8-0.0176-19.2-0.00723-3.27-0.0103-6.54-0.00676-9.81 0.00322-3.55-0.00587-7.1-0.0181-10.6 0.00378-1.03 0.00756-2.06 0.0115-3.12-0.0599-9.84-1.77-18.2-8.69-25.6-9.39-8.39-21.3-7.66-33.1-7.62-1.1-0.00387-2.19-0.00773-3.32-0.0117-1.04 0.00129-2.08 0.00258-3.15 0.00391-0.943 0.00113-1.89 0.00226-2.86 0.00342-2.15-0.113-2.15-0.113-3.17 1.13zm-960 80c-0.099 2.06-0.126 4.12-0.127 6.19-0.00156 0.654-0.00312 1.31-0.00473 1.98-0.00401 2.21-8.2e-4 4.41 0.00232 6.62-0.00135 1.57-0.00313 3.15-0.00531 4.72-0.00457 4.29-0.00278 8.58 3.79e-4 12.9 0.00252 4.48 1.86e-4 8.96-0.00139 13.4-0.00182 7.52 5.85e-4 15 0.00534 22.6 0.00544 8.71 0.00368 17.4-0.00183 26.1-0.00453 7.46-0.00518 14.9-0.00256 22.4 0.00156 4.46 0.00176 8.93-0.00154 13.4-0.00288 4.2-9.04e-4 8.39 0.00489 12.6 0.00133 1.54 9.33e-4 3.09-0.00126 4.63-0.00271 2.1 6.69e-4 4.2 0.00568 6.3 3.77e-4 1.18 7.54e-4 2.36 0.00114 3.57-0.172 2.55-0.172 2.55 1.13 3.62 2.81 0.0999 5.6 0.134 8.41 0.126 0.897 0.00145 1.79 0.00291 2.72 0.0044 3.05 0.00369 6.09 1.61e-4 9.14-0.00326 2.19 0.00115 4.38 0.00274 6.57 0.00473 6.05 0.0042 12.1 0.0021 18.1-9.86e-4 6.51-0.00225 13 0.00122 19.5 0.00398 12 0.0044 24.1 0.00382 36.1 0.00109 11.1-0.00251 22.2-0.00317 33.3-0.00198 1.1 1.15e-4 1.1 1.15e-4 2.23 2.31e-4 2.99 3.11e-4 5.97 6.3e-4 8.96 9.6e-4 28 0.00306 56.1 2.81e-4 84.1-0.0051 24.9-0.00475 49.9-0.00432 74.8 4.61e-4 28 0.00535 56 0.00748 84 0.00439 2.98-3.21e-4 5.96-6.34e-4 8.94-9.43e-4 0.734-7.91e-5 1.47-1.58e-4 2.22-2.4e-4 11.1-0.00114 22.2 1.96e-4 33.3 0.00272 12.6 0.00285 25.2 0.00206 37.9-0.00328 6.45-0.00264 12.9-0.00364 19.3-3.51e-4 5.89 0.00296 11.8 0.00137 17.7-0.00398 2.14-0.00112 4.28-5.33e-4 6.42 0.00188 2.89 0.00301 5.78-4.28e-5 8.68-0.00472 0.846 0.00234 1.69 0.00468 2.56 0.00709 4.12 0.0919 4.12 0.0919 7.97-1.13 0.0233-20.8 0.041-41.7 0.0518-62.5 0.00516-9.68 0.0122-19.4 0.0236-29 0.00995-8.43 0.0164-16.9 0.0186-25.3 0.00131-4.47 0.00439-8.93 0.0116-13.4 0.00676-4.2 0.00889-8.4 0.00738-12.6 2.76e-4 -1.55 0.00228-3.09 0.0061-4.64 0.00493-2.1 0.00379-4.2 0.00105-6.3 9.22e-4 -1.18 0.00184-2.36 0.00279-3.57 0.175-2.55 0.175-2.55-1.12-3.62-2.82-0.0999-5.61-0.134-8.43-0.126-0.899-0.00145-1.8-0.00291-2.72-0.0044-3.05-0.00369-6.1-1.61e-4 -9.16 0.00326-2.19-0.00115-4.39-0.00274-6.58-0.00473-6.06-0.0042-12.1-0.0021-18.2 9.86e-4 -5.86 0.00202-11.7-6.29e-4 -17.6-0.00315-12.7-0.00528-25.4-0.0048-38.2-0.00192-11.1 0.00251-22.3 0.00317-33.4 0.00198-0.737-7.64e-5 -1.47-1.53e-4 -2.23-2.31e-4 -2.99-3.11e-4 -5.99-6.3e-4 -8.98-9.6e-4 -28.1-0.00306-56.2-2.81e-4 -84.3 0.0051-25 0.00475-50 0.00432-75-4.61e-4 -28-0.00535-56.1-0.00748-84.1-0.00439-2.99 3.21e-4 -5.97 6.34e-4 -8.96 9.43e-4 -0.736 7.91e-5 -1.47 1.58e-4 -2.23 2.4e-4 -11.1 0.00114-22.3-1.97e-4 -33.4-0.00272-12.6-0.00285-25.3-0.00216-37.9 0.00328-6.46 0.00264-12.9 0.00364-19.4 3.51e-4 -5.9-0.00296-11.8-0.00137-17.7 0.00398-2.15 0.00113-4.29 5.31e-4 -6.44-0.00188-2.9-3e-3 -5.79 3.78e-5 -8.69 0.00472-0.851-0.00234-1.7-0.00468-2.58-0.00709-3.73-0.347-3.73-0.347-6.85 1.13z" fill="#000002"/>
</svg>
