<svg width="150" height="150" viewBox="0 0 150 150" fill="none" xmlns="http://www.w3.org/2000/svg">
<path opacity="0.1" d="M79.1019 132.218C108.391 132.218 132.135 108.475 132.135 79.185C132.135 49.8953 108.391 26.1514 79.1019 26.1514C49.8123 26.1514 26.0684 49.8953 26.0684 79.185C26.0684 108.475 49.8123 132.218 79.1019 132.218Z" fill="#003154"/>
<path d="M74.8158 127.932C104.105 127.932 127.849 104.188 127.849 74.8984C127.849 45.6088 104.105 21.8649 74.8158 21.8649C45.5261 21.8649 21.7822 45.6088 21.7822 74.8984C21.7822 104.188 45.5261 127.932 74.8158 127.932Z" fill="white"/>
<mask id="mask0_159_475" style="mask-type:luminance" maskUnits="userSpaceOnUse" x="21" y="21" width="108" height="108">
<path d="M112.5 112.5C133.211 91.7893 133.211 58.2107 112.5 37.5C91.7893 16.7893 58.2107 16.7893 37.5 37.5C16.7893 58.2107 16.7893 91.7893 37.5 112.5C58.2107 133.211 91.7893 133.211 112.5 112.5Z" fill="white"/>
</mask>
<g mask="url(#mask0_159_475)">
<path d="M103.518 173.999C117.644 159.873 117.644 136.97 103.518 122.845C89.3926 108.719 66.49 108.719 52.3642 122.845C38.2384 136.97 38.2384 159.873 52.3642 173.999C66.49 188.125 89.3926 188.125 103.518 173.999Z" fill="#FFB199"/>
<path d="M86.7035 101.887H68.7637V114.345H86.7035V101.887Z" fill="#FFB199"/>
<g opacity="0.5">
<path d="M86.7035 101.887H68.7637V114.345H86.7035V101.887Z" fill="#FF8255"/>
</g>
<path d="M104.329 174.809C118.902 160.236 118.902 136.608 104.329 122.034C89.7555 107.461 66.1275 107.461 51.5542 122.034C36.981 136.608 36.981 160.236 51.5542 174.809C66.1275 189.382 89.7555 189.382 104.329 174.809Z" fill="#F74141"/>
<path d="M87.9851 106.954H67.1357V120.242H87.9851V106.954Z" fill="#F74141"/>
<path d="M77.8085 53.4927C84.307 53.4927 89.5751 48.2246 89.5751 41.7261C89.5751 35.2277 84.307 29.9596 77.8085 29.9596C71.3101 29.9596 66.042 35.2277 66.042 41.7261C66.042 48.2246 71.3101 53.4927 77.8085 53.4927Z" fill="#ED4F4F"/>
<path d="M109.74 75.4705C109.495 57.91 95.1861 43.7493 77.5672 43.7493C59.9484 43.7493 45.6393 57.91 45.3943 75.4705H45.3887V79.1306H109.746V75.4705H109.74Z" fill="#FF6757"/>
<path d="M49.7633 88.6318C53.9004 88.6318 57.2542 85.278 57.2542 81.1409C57.2542 77.0038 53.9004 73.65 49.7633 73.65C45.6262 73.65 42.2725 77.0038 42.2725 81.1409C42.2725 85.278 45.6262 88.6318 49.7633 88.6318Z" fill="#FFB199"/>
<path opacity="0.5" d="M49.7633 88.6318C53.9004 88.6318 57.2542 85.278 57.2542 81.1409C57.2542 77.0038 53.9004 73.65 49.7633 73.65C45.6262 73.65 42.2725 77.0038 42.2725 81.1409C42.2725 85.278 45.6262 88.6318 49.7633 88.6318Z" fill="#FF8255"/>
<path d="M106.173 88.6318C110.31 88.6318 113.663 85.278 113.663 81.1409C113.663 77.0038 110.31 73.65 106.173 73.65C102.035 73.65 98.6816 77.0038 98.6816 81.1409C98.6816 85.278 102.035 88.6318 106.173 88.6318Z" fill="#FFB199"/>
<path opacity="0.5" d="M106.173 88.6318C110.31 88.6318 113.663 85.278 113.663 81.1409C113.663 77.0038 110.31 73.65 106.173 73.65C102.035 73.65 98.6816 77.0038 98.6816 81.1409C98.6816 85.278 102.035 88.6318 106.173 88.6318Z" fill="#FF8255"/>
<path d="M97.5825 98.6486C108.545 87.6858 108.545 69.9114 97.5822 58.9485C86.6193 47.9855 68.8449 47.9854 57.8821 58.9482C46.9193 69.911 46.9195 87.6853 57.8824 98.6483C68.8454 109.611 86.6197 109.611 97.5825 98.6486Z" fill="#FFB199"/>
<path d="M101.408 70.2755C101.227 57.2626 90.6233 46.769 77.5669 46.769C64.511 46.769 53.9075 57.2622 53.7261 70.2755H53.7217V72.9874H101.412V70.2755H101.408Z" fill="#FF6757"/>
<path d="M59.7105 85.7747C61.27 85.7747 62.5342 84.5104 62.5342 82.9509C62.5342 81.3914 61.27 80.1271 59.7105 80.1271C58.151 80.1271 56.8867 81.3914 56.8867 82.9509C56.8867 84.5104 58.151 85.7747 59.7105 85.7747Z" fill="#001433"/>
<path d="M92.9326 82.9509C92.9326 84.5106 94.1971 85.7747 95.7564 85.7747C97.3161 85.7747 98.5801 84.5102 98.5801 82.9509C98.5801 81.3912 97.3157 80.1271 95.7564 80.1271C94.1967 80.1271 92.9326 81.3916 92.9326 82.9509Z" fill="#001433"/>
<path d="M70.9459 83.4534C70.9455 83.4743 70.9443 83.4948 70.9443 83.5161C70.9443 87.0801 73.8333 89.9691 77.3973 89.9691C80.9613 89.9691 83.8502 87.0801 83.8502 83.5161C83.8502 83.4952 83.849 83.4743 83.8486 83.4534" stroke="#001433" stroke-width="1.51282" stroke-miterlimit="10" stroke-linecap="round" stroke-linejoin="round"/>
</g>
<path opacity="0.1" d="M38.81 56.4561C52.6939 56.4561 63.949 45.2009 63.949 31.317C63.949 17.4331 52.6939 6.17792 38.81 6.17792C24.926 6.17792 13.6709 17.4331 13.6709 31.317C13.6709 45.2009 24.926 56.4561 38.81 56.4561Z" fill="#003154"/>
<path d="M34.5238 52.1699C48.4078 52.1699 59.6629 40.9148 59.6629 27.0308C59.6629 13.1469 48.4078 1.89178 34.5238 1.89178C20.6399 1.89178 9.38477 13.1469 9.38477 27.0308C9.38477 40.9148 20.6399 52.1699 34.5238 52.1699Z" fill="#FF6757"/>
<path opacity="0.2" d="M49.0861 21.9538C49.0861 15.175 43.5714 9.66064 36.7926 9.66064C30.0138 9.66064 24.499 15.1754 24.499 21.9538C24.499 28.1223 29.0664 33.2428 34.9971 34.1146V40.4167H31.3595V44.0076H34.9971V49.946H38.5881V44.0076H42.2257V40.4167H38.5881V34.1146C44.5188 33.2428 49.0861 28.1227 49.0861 21.9538ZM28.09 21.9538C28.09 17.1555 31.9939 13.2516 36.7926 13.2516C41.5912 13.2516 45.4952 17.1555 45.4952 21.9538C45.4952 26.7521 41.5912 30.656 36.7926 30.656C31.9939 30.656 28.09 26.7521 28.09 21.9538Z" fill="#003154"/>
<path d="M34.524 31.4747C27.7452 31.4747 22.2305 25.9599 22.2305 19.1815C22.2305 12.4031 27.7452 6.88837 34.524 6.88837C41.3028 6.88837 46.8176 12.4031 46.8176 19.1815C46.8176 25.9599 41.3032 31.4747 34.524 31.4747ZM34.524 10.4789C29.7254 10.4789 25.8214 14.3829 25.8214 19.1811C25.8214 23.9794 29.7254 27.8833 34.524 27.8833C39.3227 27.8833 43.2266 23.9794 43.2266 19.1811C43.2266 14.3829 39.3227 10.4789 34.524 10.4789Z" fill="white"/>
<path d="M36.3195 30.3233H32.7285V47.1733H36.3195V30.3233Z" fill="white"/>
<path d="M39.9576 37.644H29.0918V41.235H39.9576V37.644Z" fill="white"/>
</svg>
