<svg width="24" height="24" viewBox="0 0 24 24" fill="none" xmlns="http://www.w3.org/2000/svg">
<g clip-path="url(#clip0_345_5333)">
<path fill-rule="evenodd" clip-rule="evenodd" d="M20.7905 15.5114C20.5932 20.2228 16.7128 23.9822 11.9529 23.9822C7.06678 23.9822 3.10584 19.8881 3.10584 15.1352C3.10584 14.4999 3.09445 13.2302 4.04702 11.0881C4.61709 9.80615 4.97464 9.00079 5.17643 8.2646C5.2873 7.85999 5.50292 7.21716 6.11761 8.2646C6.48005 8.8822 6.49408 9.77048 6.49408 9.77048C6.49408 9.77048 7.84259 8.73566 8.7529 6.75872C10.0874 3.86055 9.02264 2.12813 8.65878 0.923423C8.53285 0.50667 8.45379 -0.242318 9.31761 0.0763639C10.1978 0.401164 12.5248 2.03006 13.7411 3.74695C15.4771 6.1973 16.0941 8.54695 16.0941 8.54695C16.0941 8.54695 16.6499 7.85707 16.847 7.13519C17.0696 6.32003 17.0729 5.51269 17.7881 6.38234C18.4683 7.20935 19.4785 8.76352 20.047 10.2411C21.0794 12.9243 20.7905 15.5114 20.7905 15.5114Z" fill="url(#paint0_linear_345_5333)"/>
<path fill-rule="evenodd" clip-rule="evenodd" d="M11.9529 23.9822C8.57412 23.9822 5.83521 21.2433 5.83521 17.8646C5.83521 15.8259 6.65676 14.5882 8.36659 12.9097C9.46137 11.8349 10.486 10.5149 10.9215 9.61611C11.0073 9.43917 11.2024 8.5171 11.9546 9.59672C12.3493 10.1629 12.9679 11.1699 13.3646 12.0293C14.0485 13.511 14.2117 14.9469 14.2117 14.9469C14.2117 14.9469 14.8819 14.552 15.3411 13.5352C15.4891 13.2075 15.7884 11.9668 16.6251 13.2073C17.2391 14.1176 18.0825 15.7543 18.0705 17.8646C18.0705 21.2433 15.3315 23.9822 11.9529 23.9822Z" fill="#FC9502"/>
<path fill-rule="evenodd" clip-rule="evenodd" d="M12.047 17.2999C12.9176 17.2999 12.9176 18.9121 14.0235 21.0646C14.7599 22.498 13.6584 23.9823 12.047 23.9823C10.4356 23.9823 9.59998 22.676 9.59998 21.0646C9.59998 19.4533 11.1764 17.2999 12.047 17.2999Z" fill="#FCE202"/>
</g>
<defs>
<linearGradient id="paint0_linear_345_5333" x1="11.9662" y1="23.9999" x2="11.9662" y2="0.0176344" gradientUnits="userSpaceOnUse">
<stop stop-color="#FF4C0D"/>
<stop offset="1" stop-color="#FC9502"/>
</linearGradient>
<clipPath id="clip0_345_5333">
<rect width="24" height="24" fill="white"/>
</clipPath>
</defs>
</svg>
