<svg width="22" height="23" viewBox="0 0 22 23" fill="none" xmlns="http://www.w3.org/2000/svg">
<path d="M19.8798 8.79009L16.1625 5.07271C15.7818 4.70503 15.1751 4.71559 14.8074 5.0963C14.4487 5.46767 14.4487 6.05646 14.8074 6.42783L18.5248 10.1452C18.6352 10.2578 18.7317 10.3833 18.8123 10.519C18.7979 10.519 18.7864 10.5113 18.772 10.5113L7.74152 10.542C7.21225 10.542 6.7832 10.971 6.7832 11.5003C6.7832 12.0295 7.21225 12.4586 7.74152 12.4586L18.7663 12.4279C18.7931 12.4279 18.8151 12.4145 18.841 12.4126C18.756 12.5747 18.6482 12.7238 18.521 12.8553L14.8036 16.5727C14.4229 16.9404 14.4123 17.5471 14.78 17.9278C15.1477 18.3085 15.7543 18.3191 16.1351 17.9514C16.1431 17.9436 16.1509 17.9358 16.1586 17.9278L19.876 14.2104C21.3725 12.7135 21.3725 10.287 19.876 8.79009H19.8798Z" fill="#E61515"/>
<path d="M6.71027 21.0833H4.79359C3.20578 21.0833 1.91859 19.7961 1.91859 18.2083V4.79168C1.91859 3.20387 3.20578 1.91668 4.79359 1.91668H6.71027C7.23954 1.91668 7.66859 1.48763 7.66859 0.958363C7.66859 0.429094 7.23959 0 6.71027 0H4.79359C2.14859 0.00318945 0.00514258 2.14664 0.00195312 4.79168V18.2084C0.00514258 20.8534 2.14859 22.9969 4.79363 23H6.71032C7.23959 23 7.66863 22.571 7.66863 22.0417C7.66863 21.5124 7.23959 21.0833 6.71027 21.0833Z" fill="#E61515"/>
</svg>
