<svg width="132" height="140" viewBox="0 0 132 140" fill="none" xmlns="http://www.w3.org/2000/svg">
<path opacity="0.1" d="M74.8917 140C106.355 140 131.862 114.494 131.862 83.0303C131.862 51.5667 106.355 26.0604 74.8917 26.0604C43.4281 26.0604 17.9219 51.5667 17.9219 83.0303C17.9219 114.494 43.4281 140 74.8917 140Z" fill="#003154"/>
<path d="M70.2872 135.395C101.751 135.395 127.257 109.889 127.257 78.4254C127.257 46.9618 101.751 21.4556 70.2872 21.4556C38.8236 21.4556 13.3174 46.9618 13.3174 78.4254C13.3174 109.889 38.8236 135.395 70.2872 135.395Z" fill="white"/>
<mask id="mask0_159_418" style="mask-type:luminance" maskUnits="userSpaceOnUse" x="13" y="21" width="115" height="115">
<path d="M70.2872 135.395C101.751 135.395 127.257 109.889 127.257 78.4254C127.257 46.9618 101.751 21.4556 70.2872 21.4556C38.8236 21.4556 13.3174 46.9618 13.3174 78.4254C13.3174 109.889 38.8236 135.395 70.2872 135.395Z" fill="white"/>
</mask>
<g mask="url(#mask0_159_418)">
<path d="M100.921 184.773C116.095 169.599 116.095 144.997 100.921 129.822C85.7464 114.648 61.1439 114.648 45.9696 129.822C30.7953 144.997 30.7954 169.599 45.9697 184.773C61.144 199.948 85.7464 199.948 100.921 184.773Z" fill="#C0E4F9"/>
<path d="M82.8583 107.309H63.5869V120.691H82.8583V107.309Z" fill="#C0E4F9"/>
<g opacity="0.2">
<path d="M82.8583 107.309H63.5869V120.691H82.8583V107.309Z" fill="#22689E"/>
</g>
<path d="M101.791 185.644C117.446 169.989 117.446 144.607 101.791 128.952C86.1364 113.297 60.7547 113.297 45.0997 128.952C29.4448 144.607 29.4448 169.989 45.0997 185.644C60.7547 201.299 86.1364 201.299 101.791 185.644Z" fill="#22689E"/>
<path d="M84.2347 112.751H61.8379V127.026H84.2347V112.751Z" fill="#22689E"/>
<path d="M107.605 78.9312C107.342 60.0668 91.9711 44.8556 73.0445 44.8556C54.1179 44.8556 38.7468 60.0673 38.4836 78.9312H38.4775V82.8626H107.611V78.9312H107.605Z" fill="#22689E"/>
<path d="M43.1768 93.0695C47.6209 93.0695 51.2236 89.4667 51.2236 85.0226C51.2236 80.5784 47.6209 76.9757 43.1768 76.9757C38.7326 76.9757 35.1299 80.5784 35.1299 85.0226C35.1299 89.4667 38.7326 93.0695 43.1768 93.0695Z" fill="#C0E4F9"/>
<path opacity="0.2" d="M43.1768 93.0695C47.6209 93.0695 51.2236 89.4667 51.2236 85.0226C51.2236 80.5784 47.6209 76.9757 43.1768 76.9757C38.7326 76.9757 35.1299 80.5784 35.1299 85.0226C35.1299 89.4667 38.7326 93.0695 43.1768 93.0695Z" fill="#22689E"/>
<path d="M103.772 93.0695C108.217 93.0695 111.819 89.4667 111.819 85.0226C111.819 80.5784 108.217 76.9757 103.772 76.9757C99.3283 76.9757 95.7256 80.5784 95.7256 85.0226C95.7256 89.4667 99.3283 93.0695 103.772 93.0695Z" fill="#C0E4F9"/>
<path opacity="0.2" d="M103.772 93.0695C108.217 93.0695 111.819 89.4667 111.819 85.0226C111.819 80.5784 108.217 76.9757 103.772 76.9757C99.3283 76.9757 95.7256 80.5784 95.7256 85.0226C95.7256 89.4667 99.3283 93.0695 103.772 93.0695Z" fill="#22689E"/>
<path d="M73.2237 112.662C89.8786 112.662 103.38 99.1609 103.38 82.5061C103.38 65.8512 89.8786 52.3497 73.2237 52.3497C56.5688 52.3497 43.0674 65.8512 43.0674 82.5061C43.0674 99.1609 56.5688 112.662 73.2237 112.662Z" fill="#C0E4F9"/>
<path d="M113.934 54.7495C113.934 54.7495 106.335 59.1087 97.5264 53.2711C83.4154 43.9199 68.9768 35.88 57.1628 48.0216C50.2715 56.718 51.3792 67.2191 60.7316 75.8334C66.3329 81.4347 85.4971 85.9305 99.4153 77.6883V89.001H103.802V74.4777C108.61 70.1829 112.343 63.8297 113.934 54.7495Z" fill="#22689E"/>
<path d="M55.9321 66.9732C55.9321 61.7553 52.715 57.291 48.1575 55.4487C42.4002 61.4251 38.7774 69.4655 38.5068 78.3538C38.5418 78.3693 38.5781 78.3823 38.6136 78.3974C39.9109 77.502 41.4814 76.9752 43.1772 76.9752V89.0005H47.5641V78.7207C52.4337 77.0383 55.9321 72.4154 55.9321 66.9732Z" fill="#22689E"/>
<path d="M50.8291 86.9668C50.8291 88.6423 52.1874 90.0002 53.8625 90.0002C55.538 90.0002 56.8958 88.6419 56.8958 86.9668C56.8958 85.2918 55.5375 83.9335 53.8625 83.9335C52.1874 83.9335 50.8291 85.2918 50.8291 86.9668Z" fill="#001433"/>
<path d="M89.5508 86.9668C89.5508 88.6423 90.9091 90.0002 92.5842 90.0002C94.2596 90.0002 95.6175 88.6419 95.6175 86.9668C95.6175 85.2918 94.2592 83.9335 92.5842 83.9335C90.9087 83.9335 89.5508 85.2918 89.5508 86.9668Z" fill="#001433"/>
<path d="M66.2928 87.1453C66.2923 87.1677 66.291 87.1898 66.291 87.2127C66.291 91.0412 69.3944 94.1446 73.2229 94.1446C77.051 94.1446 80.1548 91.0412 80.1548 87.2127C80.1548 87.1902 80.1535 87.1677 80.1531 87.1453" stroke="#001433" stroke-width="1.6251" stroke-miterlimit="10" stroke-linecap="round" stroke-linejoin="round"/>
</g>
<path opacity="0.1" d="M31.6095 58.6142C46.5239 58.6142 58.6145 46.5237 58.6145 31.6092C58.6145 16.6948 46.5239 4.60425 31.6095 4.60425C16.695 4.60425 4.60449 16.6948 4.60449 31.6092C4.60449 46.5237 16.695 58.6142 31.6095 58.6142Z" fill="#003154"/>
<path d="M27.005 54.01C41.9194 54.01 54.01 41.9194 54.01 27.005C54.01 12.0905 41.9194 0 27.005 0C12.0905 0 0 12.0905 0 27.005C0 41.9194 12.0905 54.01 27.005 54.01Z" fill="#22689E"/>
<path opacity="0.2" d="M37.2635 13.1058L37.6818 16.9689L39.9546 16.723L33.7859 22.8921C31.5053 21.1907 28.7499 20.2702 25.8526 20.2702C22.2994 20.2702 18.9588 21.6539 16.4462 24.1665C13.9336 26.6787 12.5498 30.0197 12.5498 33.573C12.5498 37.1262 13.9336 40.4669 16.4462 42.9794C18.9588 45.492 22.299 46.8758 25.8526 46.8758C29.4059 46.8758 32.7465 45.492 35.2591 42.9794C39.9779 38.2602 40.3884 30.8568 36.521 25.6527L42.7022 19.4715L42.4563 21.7443L46.3194 22.1626L47.4184 12.0072L37.2635 13.1058ZM32.5114 40.2318C30.7331 42.0101 28.3683 42.9894 25.8526 42.9894C23.337 42.9894 20.9727 42.0101 19.1939 40.2318C17.4151 38.453 16.4358 36.0882 16.4358 33.573C16.4358 31.0574 17.4155 28.693 19.1939 26.9142C20.9722 25.1354 23.337 24.1562 25.8526 24.1562C28.3683 24.1562 30.7326 25.1359 32.5114 26.9142C36.1826 30.5859 36.1822 36.5597 32.5114 40.2318Z" fill="#003154"/>
<path d="M22.8741 44.4393C19.3209 44.4393 15.9803 43.0555 13.4677 40.5429C10.9547 38.0303 9.57129 34.6897 9.57129 31.1365C9.57129 27.5832 10.9551 24.2426 13.4677 21.73C15.9798 19.2174 19.3209 17.8336 22.8741 17.8336C26.4274 17.8336 29.768 19.2174 32.2806 21.73C37.4674 26.9168 37.4674 35.3557 32.2806 40.5429C29.768 43.0555 26.4274 44.4393 22.8741 44.4393ZM22.8741 21.7201C20.3585 21.7201 17.9942 22.6998 16.2154 24.4781C14.437 26.2565 13.4573 28.6213 13.4573 31.1369C13.4573 33.6521 14.437 36.0169 16.2154 37.7957C17.9942 39.574 20.3585 40.5533 22.8741 40.5533C25.3897 40.5533 27.7541 39.574 29.5329 37.7957C33.2041 34.124 33.2045 28.1498 29.5329 24.4786C27.7541 22.6993 25.3897 21.7201 22.8741 21.7201Z" fill="white"/>
<path d="M41.0141 10.2487L30.0244 21.2384L32.7722 23.9862L43.7619 12.9965L41.0141 10.2487Z" fill="white"/>
<path d="M43.3411 19.7261L39.4776 19.3077L40.0571 13.9537L34.7035 14.5328L34.2852 10.6697L44.4401 9.57068L43.3411 19.7261Z" fill="white"/>
</svg>
