<svg width="16" height="18" viewBox="0 0 16 18" fill="none" xmlns="http://www.w3.org/2000/svg">
<path fill-rule="evenodd" clip-rule="evenodd" d="M2.58192 5.32949C2.23095 2.52171 4.42027 0.041687 7.2499 0.041687H8.669C11.5016 0.041687 13.6933 2.52433 13.3419 5.33509L13.2881 5.76586C13.1839 6.59929 13.4869 7.43196 14.1023 8.00352L14.1389 8.03749C15.4833 9.28603 15.7442 11.3166 14.7591 12.8645C14.1153 13.8761 13.0359 14.5196 11.852 14.6132L11.6926 14.8864C10.8486 16.3332 9.53361 17.125 8.15275 17.125C6.77189 17.125 5.45688 16.3332 4.61288 14.8864L4.45599 14.6174C3.04657 14.5297 1.78402 13.6902 1.16223 12.4083L1.0761 12.2308C0.370558 10.7763 0.700638 9.03131 1.8887 7.93498C2.46205 7.4059 2.74482 6.63266 2.64805 5.85853L2.58192 5.32949ZM5.93336 14.625C6.56615 15.4898 7.38513 15.875 8.15275 15.875C8.92036 15.875 9.73935 15.4898 10.3721 14.625H5.93336Z" fill="#5DCCFC"/>
</svg>
