<svg width="55" height="27" viewBox="0 0 55 27" fill="none" xmlns="http://www.w3.org/2000/svg">
<rect width="55" height="27" rx="13.5" fill="url(#paint0_linear_217_86)"/>
<path d="M16.2656 14.8594H13.8203V19H11.4297V7.48438H16.4453C17.6016 7.48438 18.5234 7.78125 19.2109 8.375C19.8984 8.96875 20.2422 9.88802 20.2422 11.1328C20.2422 12.4922 19.8984 13.4531 19.2109 14.0156C18.5234 14.5781 17.5417 14.8594 16.2656 14.8594ZM17.3906 12.4609C17.7031 12.1849 17.8594 11.7474 17.8594 11.1484C17.8594 10.5495 17.7005 10.1224 17.3828 9.86719C17.0703 9.61198 16.6302 9.48438 16.0625 9.48438H13.8203V12.875H16.0625C16.6302 12.875 17.0729 12.737 17.3906 12.4609ZM26.9375 14.4844H24.4531V19H22.1016V7.48438H27.75C28.5573 7.5 29.1771 7.59896 29.6094 7.78125C30.0469 7.96354 30.4167 8.23177 30.7188 8.58594C30.9688 8.8776 31.1667 9.20052 31.3125 9.55469C31.4583 9.90885 31.5312 10.3125 31.5312 10.7656C31.5312 11.3125 31.3932 11.8516 31.1172 12.3828C30.8411 12.9089 30.3854 13.2812 29.75 13.5C30.2812 13.7135 30.6562 14.0182 30.875 14.4141C31.099 14.8047 31.2109 15.4036 31.2109 16.2109V16.9844C31.2109 17.5104 31.2318 17.8672 31.2734 18.0547C31.3359 18.3516 31.4818 18.5703 31.7109 18.7109V19H29.0625C28.9896 18.7448 28.9375 18.5391 28.9062 18.3828C28.8438 18.0599 28.8099 17.7292 28.8047 17.3906L28.7891 16.3203C28.7786 15.5859 28.6432 15.0964 28.3828 14.8516C28.1276 14.6068 27.6458 14.4844 26.9375 14.4844ZM28.3984 12.3906C28.8776 12.1719 29.1172 11.7396 29.1172 11.0938C29.1172 10.3958 28.8854 9.92708 28.4219 9.6875C28.1615 9.55208 27.7708 9.48438 27.25 9.48438H24.4531V12.5781H27.1797C27.7214 12.5781 28.1276 12.5156 28.3984 12.3906ZM38.7031 19.3203C37.0573 19.3203 35.7995 18.8724 34.9297 17.9766C33.763 16.8776 33.1797 15.2943 33.1797 13.2266C33.1797 11.1172 33.763 9.53385 34.9297 8.47656C35.7995 7.58073 37.0573 7.13281 38.7031 7.13281C40.349 7.13281 41.6068 7.58073 42.4766 8.47656C43.638 9.53385 44.2188 11.1172 44.2188 13.2266C44.2188 15.2943 43.638 16.8776 42.4766 17.9766C41.6068 18.8724 40.349 19.3203 38.7031 19.3203ZM40.9766 16.2266C41.5339 15.5234 41.8125 14.5234 41.8125 13.2266C41.8125 11.9349 41.5312 10.9375 40.9688 10.2344C40.4115 9.52604 39.6562 9.17188 38.7031 9.17188C37.75 9.17188 36.9896 9.52344 36.4219 10.2266C35.8542 10.9297 35.5703 11.9297 35.5703 13.2266C35.5703 14.5234 35.8542 15.5234 36.4219 16.2266C36.9896 16.9297 37.75 17.2812 38.7031 17.2812C39.6562 17.2812 40.4141 16.9297 40.9766 16.2266Z" fill="white"/>
<defs>
<linearGradient id="paint0_linear_217_86" x1="27.5" y1="7.43549e-07" x2="18.6325" y2="21.7752" gradientUnits="userSpaceOnUse">
<stop stop-color="#FFA935"/>
<stop offset="1" stop-color="#FDD00E"/>
</linearGradient>
</defs>
</svg>
