<svg width="8" height="24" viewBox="0 0 8 24" fill="none" xmlns="http://www.w3.org/2000/svg">
<path d="M3.99705 7.292C3.04505 7.292 2.23305 6.97 1.56105 6.326C0.889047 5.654 0.553047 4.814 0.553047 3.806C0.553047 2.742 0.889047 1.902 1.56105 1.286C2.23305 0.641999 3.04505 0.319999 3.99705 0.319999C4.94905 0.319999 5.76105 0.641999 6.43305 1.286C7.10505 1.902 7.44105 2.742 7.44105 3.806C7.44105 4.814 7.10505 5.654 6.43305 6.326C5.76105 6.97 4.94905 7.292 3.99705 7.292ZM3.99705 23.294C3.04505 23.294 2.23305 22.972 1.56105 22.328C0.889047 21.656 0.553047 20.816 0.553047 19.808C0.553047 18.744 0.889047 17.904 1.56105 17.288C2.23305 16.644 3.04505 16.322 3.99705 16.322C4.94905 16.322 5.76105 16.644 6.43305 17.288C7.10505 17.904 7.44105 18.744 7.44105 19.808C7.44105 20.816 7.10505 21.656 6.43305 22.328C5.76105 22.972 4.94905 23.294 3.99705 23.294Z" fill="black"/>
</svg>
