<svg width="48" height="48" viewBox="0 0 48 48" fill="none" xmlns="http://www.w3.org/2000/svg">
<path fill-rule="evenodd" clip-rule="evenodd" d="M6.25276 6.32955C7.28584 5.81367 8.48578 5.76163 9.55472 6.17808L9.78167 6.27449L42.2243 21.229C43.7564 21.9352 44.4252 23.7481 43.7181 25.2782C43.444 25.8712 42.9877 26.3589 42.4182 26.6722L42.2243 26.7701L9.78167 41.7246C7.73892 42.6662 5.31864 41.7756 4.37584 39.7355C3.89182 38.6881 3.87722 37.4887 4.32738 36.4346L4.43096 36.2111L10.5446 23.9995L4.43096 11.788C3.48874 9.90596 4.14416 7.64324 5.88382 6.53805L6.06763 6.42791L6.25276 6.32955ZM37.7239 24.3629L14.1557 25.8824L8.07456 38.0305L37.7239 24.3629ZM8.07456 9.96852L14.1567 22.116L37.7249 23.6346L8.07456 9.96852Z" fill="#333333"/>
</svg>
