<svg width="32" height="32" viewBox="0 0 32 32" fill="none" xmlns="http://www.w3.org/2000/svg">
<path d="M12.0001 29.3333H20.0001C26.6667 29.3333 29.3334 26.6666 29.3334 20V12C29.3334 5.33329 26.6667 2.66663 20.0001 2.66663H12.0001C5.33341 2.66663 2.66675 5.33329 2.66675 12V20C2.66675 26.6666 5.33341 29.3333 12.0001 29.3333Z" stroke="#020112" stroke-width="1.5" stroke-linecap="round" stroke-linejoin="round"/>
<path d="M23.8666 12.0667C20.96 11.7734 18.0266 11.6267 15.1066 11.6267C13.3733 11.6267 11.64 11.72 9.91996 11.8934L8.1333 12.0667" stroke="#020112" stroke-width="1.5" stroke-linecap="round" stroke-linejoin="round"/>
<path d="M12.9465 11.1867L13.1332 10.04C13.2665 9.21333 13.3732 8.58667 14.8532 8.58667H17.1465C18.6265 8.58667 18.7332 9.24 18.8665 10.04L19.0532 11.1733" stroke="#020112" stroke-width="1.5" stroke-linecap="round" stroke-linejoin="round"/>
<path d="M21.9867 12.1733L21.4133 20.9733C21.32 22.3467 21.24 23.4133 18.8 23.4133H13.1867C10.7467 23.4133 10.6667 22.3467 10.5733 20.9733L10 12.1733" stroke="#020112" stroke-width="1.5" stroke-linecap="round" stroke-linejoin="round"/>
</svg>
