<svg width="32" height="32" viewBox="0 0 32 32" fill="none" xmlns="http://www.w3.org/2000/svg">
<circle cx="16" cy="16" r="16" fill="white"/>
<path d="M28 11.9066C27.8498 12.3766 27.5986 12.7601 27.123 12.962C27.0872 12.9777 27.0636 13.0472 27.0524 13.0954C26.5657 15.0513 26.0797 17.0076 25.5944 18.9642C25.4733 19.451 25.258 19.6046 24.7118 19.6068C20.7739 19.6203 16.8367 19.6334 12.9002 19.6461C11.0688 19.6461 9.2363 19.6461 7.4049 19.6461C6.79705 19.6461 6.61986 19.507 6.47631 18.9205C6.01762 17.0779 5.55108 15.2375 5.1036 13.3915C5.08668 13.274 5.04246 13.162 4.97449 13.0646C4.90652 12.9673 4.81669 12.8872 4.71219 12.8308C4.54896 12.732 4.40807 12.6003 4.29845 12.4441C4.18884 12.2879 4.1129 12.1107 4.07546 11.9236C4.03802 11.7365 4.0399 11.5436 4.08097 11.3573C4.12205 11.171 4.20143 10.9952 4.31406 10.8412C4.42566 10.6862 4.56771 10.5556 4.73154 10.4573C4.89536 10.3591 5.0775 10.2953 5.26682 10.2699C5.45614 10.2445 5.64865 10.258 5.83258 10.3095C6.01651 10.3611 6.18799 10.4496 6.33652 10.5697C6.48506 10.6898 6.60752 10.839 6.69642 11.0081C6.78532 11.1771 6.83879 11.3626 6.85355 11.553C6.86832 11.7434 6.84407 11.9349 6.78229 12.1157C6.72051 12.2964 6.62249 12.4626 6.49425 12.6042C6.45387 12.648 6.41462 12.6951 6.34509 12.7736C6.6692 13.0887 6.98883 13.396 7.30397 13.7066C7.61911 14.0173 7.94434 14.3672 8.28191 14.6801C8.52871 14.9148 8.82142 15.0959 9.14163 15.2119C9.46183 15.3279 9.80258 15.3764 10.1424 15.3543C10.4823 15.3321 10.8139 15.2399 11.1163 15.0833C11.4188 14.9268 11.6856 14.7093 11.8999 14.4446C12.6759 13.4891 13.3948 12.4876 14.1372 11.5063C14.3963 11.1698 14.6486 10.8177 14.9144 10.4812C14.9355 10.4625 14.9523 10.4395 14.9639 10.4138C14.9754 10.3881 14.9814 10.3603 14.9814 10.3321C14.9814 10.3039 14.9754 10.276 14.9639 10.2503C14.9523 10.2246 14.9355 10.2016 14.9144 10.1829C14.725 9.94202 14.6208 9.64511 14.6182 9.33867C14.6155 9.03223 14.7146 8.73357 14.8999 8.48946C15.0865 8.24167 15.3495 8.06218 15.6482 7.97868C15.947 7.89517 16.2649 7.91229 16.5529 8.02739C16.8394 8.13832 17.08 8.34253 17.2361 8.60706C17.3922 8.87159 17.4545 9.181 17.4131 9.48534C17.3694 9.77468 17.2169 10.0461 17.0946 10.3736L19.0348 12.9721C19.3526 13.3967 19.6703 13.821 19.9881 14.245C21.0098 15.6031 22.7212 15.731 23.9257 14.5377C24.4729 13.9938 25.0169 13.4465 25.563 12.9003C25.6057 12.8577 25.6449 12.8117 25.6954 12.7556C25.3589 12.427 25.1627 12.0446 25.1896 11.5668C25.2092 11.2447 25.3393 10.9392 25.5581 10.7018C25.7768 10.4645 26.0707 10.3099 26.3902 10.2642C26.7097 10.2185 27.0352 10.2844 27.3117 10.4508C27.5883 10.6172 27.7989 10.874 27.9081 11.1777C27.9384 11.2652 27.9698 11.3526 28 11.4412V11.9066Z" fill="url(#paint0_linear_351_3197)"/>
<path d="M16.0706 24.031H7.5798C6.92596 24.031 6.70728 23.8157 6.70728 23.1697C6.70728 22.7637 6.70728 22.3589 6.70728 21.9529C6.70728 21.3058 6.93157 21.0781 7.57307 21.0781H24.483C25.2164 21.0781 25.4217 21.2856 25.4217 22.028C25.4217 22.4329 25.4217 22.8389 25.4217 23.2437C25.4217 23.7776 25.1682 24.0288 24.6366 24.0288L16.0706 24.031Z" fill="url(#paint1_linear_351_3197)"/>
<defs>
<linearGradient id="paint0_linear_351_3197" x1="16.0244" y1="7.92651" x2="16.0244" y2="19.6461" gradientUnits="userSpaceOnUse">
<stop stop-color="#F59E03"/>
<stop offset="1" stop-color="#FFD464"/>
</linearGradient>
<linearGradient id="paint1_linear_351_3197" x1="16.0645" y1="21.0781" x2="16.0645" y2="24.031" gradientUnits="userSpaceOnUse">
<stop stop-color="#F59E03"/>
<stop offset="1" stop-color="#FFD464"/>
</linearGradient>
</defs>
</svg>
