<svg width="101" height="170" viewBox="0 0 101 170" fill="none" xmlns="http://www.w3.org/2000/svg">
<path d="M96.1124 53.5137C95.7996 54.9916 94.7048 55.9473 93.61 56.9621C91.2249 59.1592 88.3901 60.8045 85.5064 62.2725C65.3109 72.5487 40.5602 74.4995 19.9345 65.1298C16.3862 63.514 12.9453 61.5533 10.0225 58.9326C8.86905 57.898 5.93649 55.5137 5.64324 53.8782C5.28156 51.957 9.30893 52.4004 10.6188 52.0851C10.7654 52.0457 10.9218 52.0161 11.0685 51.9767C13.3558 51.4447 15.7019 51.1195 18.0382 50.9028C33.7469 49.4052 49.7684 52.4496 65.2816 49.5037C72.8084 48.0751 80.2571 45.2278 87.8818 45.9273C89.9443 46.1145 92.046 46.5874 93.7078 47.8288C93.8348 47.9273 93.9521 48.016 94.0694 48.1342C95.5357 49.4348 96.5035 51.622 96.1027 53.5038L96.1124 53.5137Z" fill="#3291D9"/>
<g style="mix-blend-mode:multiply" opacity="0.5">
<path d="M96.1124 53.5137C95.7996 54.9916 94.7048 55.9472 93.61 56.9621C91.2249 59.1592 88.3901 60.8045 85.5064 62.2725C65.3109 72.5487 40.5602 74.4995 19.9345 65.1298C16.3862 63.5139 12.9453 61.5533 10.0225 58.9325C8.86905 57.898 5.93649 55.5137 5.64324 53.8782C5.28156 51.957 9.30893 52.4004 10.6188 52.0851C10.7654 52.0457 10.9218 52.0161 11.0685 51.9767C11.8016 52.1048 12.5347 52.223 13.2288 52.3018C16.8065 52.7255 20.3744 53.1294 23.9424 53.5137C27.96 53.9472 31.9776 54.3511 36.0049 54.7058C55.4868 56.4202 75.956 56.8635 93.6002 48.3608C93.7566 48.2919 93.913 48.2131 94.0792 48.1244C95.5455 49.4249 96.5132 51.6122 96.1124 53.494V53.5137Z" fill="#3291D9"/>
</g>
<path d="M96.1712 53.0309L94.5387 76.2926L89.5534 147.161C89.2797 151.083 86.6599 154.433 82.9551 155.664C55.2914 164.896 31.1956 159.674 18.6638 155.418C14.9982 154.167 12.4468 150.827 12.1829 146.945L6.23961 62.4203L5.63354 53.8881C7.84273 54.1443 10.0617 54.7256 12.2513 54.962C16.3765 55.3857 20.5309 55.5827 24.6463 55.9177C32.4077 56.5483 40.1399 57.5237 47.9112 57.8587C62.1927 58.4695 76.6697 57.7995 90.6384 54.4891C92.4957 54.0457 94.3334 53.563 96.1614 53.0309H96.1712Z" fill="#68CEFF"/>
<g style="mix-blend-mode:multiply" opacity="0.5">
<path d="M94.5386 76.2926L89.5533 147.161C89.2796 151.083 86.6598 154.433 82.955 155.664C55.2913 164.896 31.1955 159.674 18.6637 155.418C14.9981 154.167 12.4467 150.827 12.1828 146.945L6.2395 62.4203C8.79082 72.4403 10.8241 82.5982 12.3099 92.8349C13.5122 101.101 14.3822 109.436 16.523 117.506C18.6735 125.565 22.2024 133.457 28.0381 139.388C33.8641 145.319 42.2415 149.063 50.4526 147.969C56.8065 147.122 62.5543 143.496 66.9824 138.826C71.4106 134.156 74.6657 128.491 77.5885 122.747C85.086 108.037 90.785 92.4014 94.5386 76.3025V76.2926Z" fill="#68CEFF"/>
</g>
<g style="mix-blend-mode:screen" opacity="0.5">
<path d="M58.2143 60.8833C47.9308 60.9425 37.6766 59.9671 27.4616 58.7552C23.9425 58.3414 20.3648 57.8882 16.8751 58.5188C15.184 58.8242 13.444 59.435 12.3198 60.7454C11.1468 62.105 10.8047 64.0361 11.0393 65.8194C11.2837 67.6027 12.0461 69.2678 12.8966 70.854C16.3472 77.3074 21.4205 83.0711 27.9797 86.2535C33.1507 88.7658 38.967 89.5639 44.705 89.8595C49.6708 90.1058 54.7441 89.9777 59.485 88.4801C65.3306 86.6278 70.355 82.7755 74.8418 78.5587C79.3286 74.3418 83.3951 69.6816 88.097 65.7111C89.3873 64.6273 90.746 63.5632 91.616 62.1149C92.2905 61.0114 93.2973 57.1394 91.0393 57.1394C89.8174 57.1394 88.4098 57.6911 87.2074 57.9375C85.9073 58.1936 84.5974 58.4399 83.2876 58.6665C77.9503 59.5828 72.574 60.2232 67.1781 60.5779C64.1967 60.775 61.2152 60.8735 58.224 60.8932L58.2143 60.8833Z" fill="#9CF1FF"/>
</g>
<g style="mix-blend-mode:screen" opacity="0.5">
<path d="M30.3159 60.9523C27.2562 60.6075 24.0695 60.2528 21.1565 61.2577C20.4038 61.5238 19.573 62.0164 19.5143 62.8144C19.4557 63.642 20.2474 64.2628 20.961 64.6766C26.6404 67.9968 33.18 69.652 39.7294 70.0757C46.2787 70.4994 52.8672 69.721 59.2993 68.4106C62.7303 67.7111 66.1907 66.8342 69.2699 65.1199C70.0422 64.6864 71.7528 63.6913 70.355 62.9327C69.2015 62.312 67.5886 62.578 66.3569 62.6568C58.6248 63.1396 50.8731 62.8538 43.1604 62.2331C38.8691 61.8883 34.5876 61.4351 30.3159 60.9425V60.9523Z" fill="#9CF1FF"/>
</g>
<g style="mix-blend-mode:screen" opacity="0.5">
<path d="M75.2426 62.2036C74.8222 62.381 74.4019 62.5977 74.1086 62.9524C73.8154 63.3071 73.6785 63.8293 73.8936 64.2332C74.1673 64.7455 74.8418 64.8638 75.4185 64.8933C76.2494 64.9327 77.0901 64.9327 77.9307 64.8835C79.3481 64.7948 80.7655 64.5682 82.0949 64.0756C82.877 63.7899 84.9297 63.0509 85.1252 62.0854C85.4381 60.4597 81.0979 60.8538 80.2963 60.9523C78.5759 61.1691 76.8457 61.5238 75.2426 62.2135V62.2036Z" fill="#9CF1FF"/>
</g>
<path opacity="0.19" d="M50.5992 1C23.2092 1 1 5.93609 1 12.0249C1 12.1333 1 12.2417 1.01955 12.3402L10.1789 151.989L10.7067 159.92C10.7067 159.92 11.2053 164.847 13.5513 166.364C13.6979 166.472 13.8641 166.551 14.0303 166.62C15.5064 167.221 35.3206 169.595 50.609 169.29C65.8974 169.595 85.7214 167.221 87.1877 166.62C87.5885 166.462 87.9404 166.206 88.2532 165.881C90.1007 163.999 90.521 159.91 90.521 159.91L91 152.6L100.179 12.3402C100.198 12.2318 100.198 12.1234 100.198 12.0249C100.208 5.93609 77.999 1 50.5992 1Z" fill="#9CCAFF"/>
<path opacity="0.33" d="M100.12 13.355L91.0977 150.945L90.9902 152.61L90.5112 159.92C90.5112 159.92 90.5112 159.94 90.5112 159.97C90.5112 159.989 90.5112 160.009 90.5112 160.029C90.5112 160.058 90.5112 160.078 90.5112 160.117C90.5112 160.147 90.5112 160.186 90.4917 160.236C90.4917 160.265 90.4917 160.305 90.4721 160.344C90.4721 160.403 90.4526 160.452 90.4428 160.521C90.4428 160.561 90.4232 160.61 90.4232 160.659C90.4232 160.728 90.4037 160.807 90.3841 160.886C90.3841 160.935 90.3646 160.984 90.3646 161.034C90.345 161.122 90.3352 161.201 90.3059 161.3C90.3059 161.329 90.2864 161.369 90.2864 161.408C90.2473 161.605 90.1886 161.812 90.1397 162.029C90.1397 162.088 90.1202 162.147 90.1006 162.206C90.0811 162.305 90.042 162.393 90.0127 162.502C90.0127 162.531 89.9931 162.571 89.9833 162.61C89.9833 162.65 89.9638 162.689 89.954 162.728C89.9247 162.827 89.8954 162.916 89.8563 163.024C89.8269 163.103 89.7976 163.182 89.7683 163.27C89.739 163.369 89.6999 163.457 89.6608 163.546C89.6217 163.635 89.5923 163.723 89.5532 163.822C89.5239 163.911 89.4848 163.999 89.4457 164.088L89.2991 164.374C89.26 164.452 89.2307 164.521 89.1916 164.61C89.1036 164.778 89.0058 164.935 88.9081 165.093C88.8885 165.122 88.869 165.152 88.8494 165.182C88.7614 165.31 88.6637 165.438 88.5757 165.546C88.5366 165.595 88.4975 165.645 88.4584 165.684C88.39 165.753 88.3411 165.832 88.2727 165.891V165.871C87.9599 166.187 87.6178 166.462 87.2072 166.62C85.7409 167.221 65.9169 169.595 50.6285 169.29C35.3401 169.595 15.5259 167.221 14.0498 166.62C13.5904 166.433 13.1896 166.108 12.8475 165.714C12.8279 165.694 12.7888 165.654 12.7693 165.635C12.6813 165.526 12.6031 165.408 12.5151 165.3C12.4858 165.251 12.4565 165.211 12.4271 165.172C12.3489 165.063 12.2805 164.935 12.2023 164.817C12.1828 164.758 12.1437 164.709 12.1143 164.669C12.0557 164.551 11.9873 164.423 11.9286 164.305C11.9091 164.246 11.8797 164.196 11.8504 164.137C11.7918 164.009 11.7429 163.881 11.694 163.753C11.6744 163.694 11.6451 163.645 11.6256 163.585L11.4789 163.201C11.4594 163.142 11.4398 163.083 11.4203 163.024C11.3714 162.896 11.3323 162.768 11.303 162.649C11.2834 162.59 11.2639 162.531 11.2443 162.472C11.2248 162.413 11.215 162.354 11.1955 162.295C11.1759 162.226 11.1564 162.157 11.1466 162.108C11.127 162.058 11.1173 161.999 11.0977 161.95C11.0782 161.832 11.0391 161.714 11.0195 161.605C11.0195 161.556 11 161.507 10.9902 161.457C10.9706 161.349 10.9413 161.241 10.9315 161.142C10.912 161.093 10.912 161.053 10.9022 161.014C10.8827 160.915 10.8729 160.827 10.8533 160.738C10.8533 160.699 10.8338 160.669 10.8338 160.63C10.8142 160.551 10.8045 160.472 10.7947 160.403C10.7947 160.364 10.7947 160.344 10.7751 160.305C10.7751 160.245 10.7556 160.186 10.7556 160.137C10.7556 160.108 10.7556 160.088 10.7556 160.058C10.7556 160.039 10.7556 159.999 10.7556 159.979C10.7556 159.94 10.7556 159.92 10.7556 159.92L10.2277 151.989L10.13 150.521L1.03906 12.7146C1.18569 13.1777 1.40074 13.621 1.694 14.0151C1.72332 14.0447 1.75265 14.0841 1.79175 14.1235L1.8113 14.1432C2.06546 14.4191 2.32938 14.6752 2.58354 14.9511C2.58354 14.9511 2.58354 14.9511 2.60309 14.9708C2.60309 14.9708 2.62264 14.9708 2.62264 14.9905C2.64219 14.9905 2.75949 15.0693 2.90612 15.1679L12.1828 146.945C12.4565 150.827 15.0078 154.167 18.6637 155.418C31.1955 159.674 55.2913 164.896 82.955 155.664C86.6598 154.433 89.2698 151.083 89.5532 147.161L98.8983 14.3107C99.26 14.1038 99.6119 13.8673 99.9051 13.5521C99.9736 13.4929 100.052 13.424 100.12 13.3649V13.355Z" fill="#A7C0FF"/>
<path opacity="0.33" d="M44.519 164.955C43.1993 165.832 41.5473 165.95 39.9735 166.019C33.6587 166.275 27.3244 166.068 21.039 165.408C18.1847 165.103 15.2619 164.689 12.7301 163.319C12.1827 163.024 11.6646 162.679 11.1661 162.305C11.1465 162.236 11.127 162.167 11.1172 162.117C11.0977 162.068 11.0879 162.009 11.0683 161.96C11.0488 161.842 11.0097 161.723 10.9901 161.615C10.9901 161.566 10.9706 161.516 10.9608 161.467C10.9413 161.359 10.9119 161.25 10.9021 161.152C10.8826 161.103 10.8826 161.063 10.8728 161.024C10.8533 160.925 10.8435 160.837 10.8239 160.748C10.8239 160.709 10.8044 160.679 10.8044 160.64C10.7848 160.561 10.7751 160.482 10.7653 160.413C10.7653 160.374 10.7653 160.354 10.7457 160.314C10.7457 160.255 10.7262 160.196 10.7262 160.147C10.7262 160.117 10.7262 160.098 10.7262 160.068C10.7262 160.048 10.7262 160.009 10.7262 159.989C10.7262 159.95 10.7262 159.93 10.7262 159.93L10.1983 151.999L10.1006 150.531C10.4427 150.935 10.7946 151.319 11.1759 151.694C14.5581 155.083 18.9178 157.378 23.4046 158.915C29.8171 161.122 36.6108 161.97 43.1798 163.654C43.8543 163.832 44.6851 164.275 44.5287 164.955H44.519Z" fill="#A7FFFF"/>
<path opacity="0.33" d="M91.0977 150.945L90.9902 152.61L90.5112 159.92C90.5112 159.92 90.5112 159.94 90.5112 159.97C90.5112 159.989 90.5112 160.009 90.5112 160.029C90.5112 160.058 90.5112 160.078 90.5112 160.117C90.5112 160.147 90.5112 160.186 90.4917 160.236C90.4917 160.265 90.4917 160.305 90.4721 160.344C90.4721 160.403 90.4526 160.452 90.4428 160.521C90.4428 160.561 90.4232 160.61 90.4232 160.659C90.4232 160.728 90.4037 160.807 90.3841 160.886C90.3841 160.935 90.3646 160.984 90.3646 161.034C90.345 161.122 90.3353 161.201 90.3059 161.3C90.3059 161.329 90.2864 161.369 90.2864 161.408C90.2473 161.605 90.1886 161.812 90.1398 162.029C90.1398 162.088 90.1202 162.147 90.1007 162.206C90.0811 162.305 90.042 162.393 90.0127 162.502C90.0127 162.531 89.9931 162.571 89.9834 162.61C89.6217 162.866 89.2502 163.103 88.8592 163.31C86.3275 164.689 83.4047 165.103 80.5503 165.398C74.2649 166.049 67.9306 166.265 61.606 166.009C60.0322 165.95 58.3802 165.822 57.0606 164.945C56.8944 164.265 57.7351 163.822 58.4096 163.645C64.9785 161.96 71.7722 161.113 78.1847 158.906C82.6618 157.359 87.0215 155.073 90.4135 151.684C90.6481 151.447 90.8925 151.201 91.1173 150.945H91.0977Z" fill="#A7FFFF"/>
<path d="M100.208 12.0249C100.208 12.1333 100.208 12.2417 100.189 12.3402C99.436 18.2812 77.5298 23.0597 50.609 23.0597C23.6882 23.0597 1.77224 18.2911 1.01955 12.3402C1 12.2318 1 12.1234 1 12.0249C1 5.93609 23.2092 1 50.5992 1C77.9892 1 100.198 5.93609 100.198 12.0249H100.208Z" stroke="white" stroke-width="0.81" stroke-miterlimit="10"/>
<path d="M50.5992 1C23.2092 1 1 5.93609 1 12.0249C1 12.1333 1 12.2417 1.01955 12.3402L10.1789 151.989L10.7067 159.92C10.7067 159.92 11.2053 164.847 13.5513 166.364C13.6979 166.472 13.8641 166.551 14.0303 166.62C15.5064 167.221 35.3206 169.595 50.609 169.29C65.8974 169.595 85.7214 167.221 87.1877 166.62C87.5885 166.462 87.9404 166.206 88.2532 165.881C90.1007 163.999 90.521 159.91 90.521 159.91L91 152.6L100.179 12.3402C100.198 12.2318 100.198 12.1234 100.198 12.0249C100.208 5.93609 77.999 1 50.5992 1Z" stroke="white" stroke-width="0.81" stroke-miterlimit="10"/>
<path opacity="0.19" d="M95.438 16.7442L87.9991 151.772C86.8261 153.565 85.0666 154.955 82.9551 155.654C79.2894 156.876 75.6726 157.851 72.1438 158.6L78.4488 21.1483C92.7596 20.6852 95.438 16.7344 95.438 16.7344V16.7442Z" fill="#9CCAFF"/>
<path opacity="0.19" d="M28.9569 158.285C26.2492 157.674 23.7859 157.014 21.5865 156.344C20.5601 156.029 19.5825 155.723 18.6735 155.408C18.2727 155.27 17.9012 155.112 17.5298 154.925L7.55908 17.5128L12.7301 18.7837L21.7135 21.0005L28.9569 158.295V158.285Z" fill="#9CCAFF"/>
<path opacity="0.19" d="M21.5865 156.344C20.5601 156.029 19.5825 155.723 18.6735 155.408C18.2727 155.27 17.9012 155.112 17.5298 154.925L7.55908 17.5128L12.7301 18.7837C13.2091 23.976 19.4457 121.712 21.5865 156.344Z" fill="#9CCAFF"/>
</svg>
